<svg width="109" height="163" viewBox="0 0 109 163" fill="none" xmlns="http://www.w3.org/2000/svg">
<g clip-path="url(#clip0)">
<path d="M98.704 51.311C98.704 56.3523 97.709 61.1947 95.719 65.838C93.729 70.4813 91.142 74.992 87.958 79.37C84.774 83.6153 81.192 87.728 77.212 91.708C73.232 95.688 69.3183 99.469 65.471 103.051C63.481 104.908 61.292 107.031 58.904 109.419C56.6487 111.674 54.4597 113.996 52.337 116.384C50.2143 118.772 48.2907 121.027 46.566 123.15C44.974 125.14 43.979 126.798 43.581 128.125H102.883V153H10.945C10.6797 151.541 10.547 149.683 10.547 147.428C10.547 145.173 10.547 143.581 10.547 142.652C10.547 136.284 11.542 130.447 13.532 125.14C15.6547 119.833 18.3743 114.925 21.691 110.414C25.0077 105.771 28.7223 101.459 32.835 97.479C37.0803 93.499 41.2593 89.519 45.372 85.539C48.556 82.4877 51.541 79.6353 54.327 76.982C57.113 74.196 59.5673 71.5427 61.69 69.022C63.8127 66.3687 65.471 63.7817 66.665 61.261C67.859 58.6077 68.456 55.9543 68.456 53.301C68.456 47.4637 66.7977 43.351 63.481 40.963C60.1643 38.575 56.0517 37.381 51.143 37.381C47.561 37.381 44.178 37.978 40.994 39.172C37.9427 40.2333 35.0903 41.56 32.437 43.152C29.9163 44.6113 27.7273 46.137 25.87 47.729C24.0127 49.1883 22.6197 50.3823 21.691 51.311L6.965 30.615C12.8023 25.1757 19.5683 20.7313 27.263 17.282C35.0903 13.7 43.4483 11.909 52.337 11.909C60.4297 11.909 67.3947 12.8377 73.232 14.695C79.0693 16.5523 83.8453 19.2057 87.56 22.655C91.4073 25.9717 94.1933 30.0843 95.918 34.993C97.7753 39.769 98.704 45.2083 98.704 51.311Z" fill="white"/>
</g>
<defs>
<clipPath id="clip0">
<rect width="109" height="163" fill="white"/>
</clipPath>
</defs>
</svg>
