<svg width="109" height="163" viewBox="0 0 109 163" fill="none" xmlns="http://www.w3.org/2000/svg">
<g clip-path="url(#clip0)">
<path d="M45.372 155.985C41.79 155.985 38.009 155.72 34.029 155.189C30.049 154.791 26.2017 154.194 22.487 153.398C18.7723 152.602 15.3893 151.74 12.338 150.811C9.28667 149.882 6.89867 149.02 5.174 148.224L10.945 123.548C14.3943 125.007 18.7723 126.599 24.079 128.324C29.5183 129.916 36.218 130.712 44.178 130.712C53.332 130.712 60.0317 128.987 64.277 125.538C68.5223 122.089 70.645 117.445 70.645 111.608C70.645 108.026 69.849 105.041 68.257 102.653C66.7977 100.132 64.7413 98.1423 62.088 96.683C59.4347 95.091 56.2507 94.0297 52.536 93.499C48.954 92.8357 45.1067 92.504 40.994 92.504H29.452V68.624H42.586C45.5047 68.624 48.2907 68.3587 50.944 67.828C53.73 67.2973 56.1843 66.435 58.307 65.241C60.4297 63.9143 62.088 62.1897 63.282 60.067C64.6087 57.8117 65.272 55.0257 65.272 51.709C65.272 49.1883 64.7413 46.9993 63.68 45.142C62.6187 43.2847 61.2257 41.759 59.501 40.565C57.909 39.371 55.9853 38.5087 53.73 37.978C51.6073 37.3147 49.4183 36.983 47.163 36.983C41.4583 36.983 36.1517 37.8453 31.243 39.57C26.467 41.2947 22.089 43.4173 18.109 45.938L7.562 24.247C9.68467 22.9203 12.139 21.5273 14.925 20.068C17.8437 18.6087 21.0277 17.282 24.477 16.088C27.9263 14.894 31.5747 13.899 35.422 13.103C39.402 12.307 43.581 11.909 47.959 11.909C56.0517 11.909 63.0167 12.904 68.854 14.894C74.824 16.7513 79.7327 19.471 83.58 23.053C87.4273 26.5023 90.2797 30.615 92.137 35.391C93.9943 40.0343 94.923 45.142 94.923 50.714C94.923 56.1533 93.3973 61.46 90.346 66.634C87.2947 71.6753 83.182 75.5227 78.008 78.176C85.172 81.0947 90.6777 85.4727 94.525 91.31C98.505 97.0147 100.495 103.913 100.495 112.006C100.495 118.374 99.4337 124.278 97.311 129.717C95.1883 135.024 91.8717 139.667 87.361 143.647C82.8503 147.494 77.0793 150.546 70.048 152.801C63.1493 154.924 54.924 155.985 45.372 155.985Z" fill="white"/>
</g>
<defs>
<clipPath id="clip0">
<rect width="109" height="163" fill="white"/>
</clipPath>
</defs>
</svg>
