<svg width="32" height="32" viewBox="0 0 32 32" fill="none" xmlns="http://www.w3.org/2000/svg">
<g clip-path="url(#clip0)">
<path d="M3.85119 28.591L3.85121 28.591L3.84701 28.5876C2.75613 27.6971 1.90639 26.0153 1.34286 23.818C0.784194 21.6396 0.527774 19.0369 0.558596 16.4046C0.589408 13.7733 0.907007 11.134 1.48341 8.885C2.06413 6.61912 2.8904 4.81758 3.89122 3.79402C4.88903 2.77353 6.61241 1.96184 8.78101 1.40894C10.9345 0.859877 13.4623 0.582363 15.9999 0.582363C18.5376 0.582363 21.0653 0.859877 23.2188 1.40894C25.3875 1.96184 27.1108 2.77353 28.1086 3.79402C29.1095 4.81758 29.9357 6.61913 30.5164 8.88501C31.0929 11.1341 31.4105 13.7733 31.4413 16.4047C31.4721 19.0369 31.2157 21.6397 30.657 23.818C30.0935 26.0153 29.2437 27.6971 28.1528 28.5876C27.0215 29.5111 25.2407 30.2368 23.0778 30.7288C20.9263 31.2181 18.4468 31.4649 15.9625 31.4649C13.4781 31.4649 11.005 31.2181 8.8665 30.7289C6.71596 30.237 4.95616 29.5118 3.85119 28.591Z" fill="#CC027B" stroke="#2F5147" stroke-width="1.07"/>
<path d="M3.89172 3.79371L3.89223 3.79319C4.70722 2.95556 5.99655 2.25348 7.62205 1.71723C9.23959 1.18361 11.1488 0.8277 13.1602 0.655468C17.0752 0.320227 21.3065 0.686376 24.4392 1.73104C25.8165 8.03243 22.6406 16.0694 15.766 21.589C11.5521 24.9407 6.89115 26.6871 2.51729 26.8586C1.00885 24.0573 0.380494 19.3733 0.620429 14.8027C0.743663 12.4551 1.0946 10.1702 1.65564 8.22946C2.22021 6.27648 2.98219 4.72597 3.89172 3.79371Z" fill="#CC027B" stroke="#2F5147" stroke-width="1.07"/>
<path d="M10.6391 15.5978V6.75277H21.1611V9.48007H14.1014H13.5664V10.0151V13.2128V13.9551L14.2706 13.7204C14.7729 13.5529 15.2817 13.548 16.1 13.548C17.8768 13.548 19.3521 14.1057 20.5511 15.1202C21.7197 16.1091 22.3602 17.4533 22.3602 19.3086C22.3602 21.0613 21.7213 22.508 20.4485 23.599C19.1429 24.718 17.5665 25.3689 15.6003 25.3689C13.3035 25.3689 11.3448 24.5445 9.70289 22.9515L11.3834 20.6134C11.4795 20.6925 11.5859 20.7728 11.7061 20.8529C11.7704 20.8958 11.8563 20.9576 11.9607 21.0326C12.2582 21.2465 12.7062 21.5686 13.2363 21.8715L13.2363 21.8716C14.016 22.3171 14.9068 22.5416 15.7002 22.5416C16.4966 22.5416 17.3145 22.3146 18.0197 21.7358C18.7967 21.2043 19.1331 20.3132 19.1331 19.3085C19.1331 18.7982 19.0477 18.344 18.859 17.9351C18.6698 17.5252 18.39 17.1896 18.0413 16.8989C17.3072 16.2872 16.3638 16.0754 15.3005 16.0754C14.2708 16.0754 13.1913 16.4473 12.0128 17.0478L10.6391 15.5978Z" fill="#E9E8FF" stroke="#2F5147" stroke-width="1.07"/>
</g>
<defs>
<clipPath id="clip0">
<rect width="32" height="32" fill="white"/>
</clipPath>
</defs>
</svg>
