<svg width="95" height="96" viewBox="0 0 95 96" fill="none" xmlns="http://www.w3.org/2000/svg">
<g filter="url(#filter0_d)">
<circle cx="47.5" cy="46.5" r="38.5" fill="white"/>
</g>
<path d="M58.5 59.3534C55.1224 59.1602 51.9466 57.6823 49.6237 55.2227C47.3008 52.7631 46.0067 49.5081 46.0067 46.125C46.0067 42.7419 47.3008 39.4869 49.6237 37.0273C51.9466 34.5677 55.1224 33.0898 58.5 32.8966V27.5H56.75C56.5511 27.5 56.3603 27.421 56.2197 27.2803C56.079 27.1397 56 26.9489 56 26.75C56 26.5511 56.079 26.3603 56.2197 26.2197C56.3603 26.079 56.5511 26 56.75 26H58.5V24.25C58.4987 23.1232 58.0506 22.0429 57.2538 21.2462C56.4571 20.4494 55.3768 20.0013 54.25 20H34.25C33.1232 20.0013 32.0429 20.4494 31.2462 21.2462C30.4494 22.0429 30.0013 23.1232 30 24.25V26H50.375C50.5739 26 50.7647 26.079 50.9053 26.2197C51.046 26.3603 51.125 26.5511 51.125 26.75C51.125 26.9489 51.046 27.1397 50.9053 27.2803C50.7647 27.421 50.5739 27.5 50.375 27.5H30V63.25H58.5V59.3534ZM52.8375 26H54.2262C54.4252 26 54.6159 26.079 54.7566 26.2197C54.8972 26.3603 54.9762 26.5511 54.9762 26.75C54.9762 26.9489 54.8972 27.1397 54.7566 27.2803C54.6159 27.421 54.4252 27.5 54.2262 27.5H52.8375C52.6386 27.5 52.4478 27.421 52.3072 27.2803C52.1665 27.1397 52.0875 26.9489 52.0875 26.75C52.0875 26.5511 52.1665 26.3603 52.3072 26.2197C52.4478 26.079 52.6386 26 52.8375 26Z" fill="#FF0000"/>
<path d="M34.25 72.25H54.25C55.3768 72.2487 56.4571 71.8006 57.2538 71.0038C58.0506 70.2071 58.4987 69.1268 58.5 68V64.75H30V68C30.0013 69.1268 30.4494 70.2071 31.2462 71.0038C32.0429 71.8006 33.1232 72.2487 34.25 72.25ZM44.25 65.875C44.7692 65.875 45.2767 66.029 45.7084 66.3174C46.1401 66.6058 46.4765 67.0158 46.6752 67.4955C46.8739 67.9751 46.9258 68.5029 46.8246 69.0121C46.7233 69.5213 46.4733 69.989 46.1062 70.3562C45.739 70.7233 45.2713 70.9733 44.7621 71.0746C44.2529 71.1758 43.7251 71.1239 43.2455 70.9252C42.7658 70.7265 42.3558 70.39 42.0674 69.9584C41.779 69.5267 41.625 69.0192 41.625 68.5C41.6258 67.8041 41.9026 67.1368 42.3947 66.6447C42.8868 66.1526 43.554 65.8758 44.25 65.875Z" fill="#FF0000"/>
<path d="M44.25 69.625C44.8713 69.625 45.375 69.1213 45.375 68.5C45.375 67.8787 44.8713 67.375 44.25 67.375C43.6287 67.375 43.125 67.8787 43.125 68.5C43.125 69.1213 43.6287 69.625 44.25 69.625Z" fill="#FF0000"/>
<path d="M47.5 46.125C47.5 48.4489 48.1891 50.7207 49.4802 52.6529C50.7713 54.5852 52.6064 56.0913 54.7535 56.9806C56.9005 57.8699 59.263 58.1026 61.5423 57.6492C63.8216 57.1959 65.9152 56.0768 67.5585 54.4335C69.2018 52.7902 70.3209 50.6966 70.7742 48.4173C71.2276 46.138 70.9949 43.7755 70.1056 41.6285C69.2163 39.4814 67.7102 37.6463 65.7779 36.3552C63.8457 35.0641 61.5739 34.375 59.25 34.375C56.1348 34.3785 53.1482 35.6176 50.9454 37.8204C48.7426 40.0232 47.5035 43.0098 47.5 46.125ZM59.25 46.8039C58.2877 46.8036 57.36 46.4453 56.6473 45.7987C55.9347 45.152 55.4881 44.2634 55.3945 43.3057C55.3009 42.3479 55.5671 41.3897 56.1411 40.6173C56.7151 39.845 57.556 39.3139 58.5 39.1274V38.0875C58.5 37.8886 58.579 37.6978 58.7197 37.5572C58.8603 37.4165 59.0511 37.3375 59.25 37.3375C59.4489 37.3375 59.6397 37.4165 59.7803 37.5572C59.921 37.6978 60 37.8886 60 38.0875V39.128C60.88 39.3028 61.6723 39.7771 62.242 40.4702C62.8117 41.1633 63.1238 42.0323 63.125 42.9295C63.125 43.1284 63.046 43.3192 62.9053 43.4598C62.7647 43.6005 62.5739 43.6795 62.375 43.6795C62.1761 43.6795 61.9853 43.6005 61.8447 43.4598C61.704 43.3192 61.625 43.1284 61.625 42.9295C61.625 42.4598 61.4857 42.0006 61.2247 41.61C60.9638 41.2195 60.5928 40.915 60.1589 40.7353C59.7249 40.5555 59.2474 40.5085 58.7867 40.6001C58.326 40.6918 57.9028 40.918 57.5706 41.2501C57.2385 41.5823 57.0123 42.0055 56.9206 42.4662C56.829 42.9269 56.876 43.4044 57.0558 43.8384C57.2355 44.2723 57.54 44.6433 57.9305 44.9042C58.3211 45.1652 58.7803 45.3045 59.25 45.3045C60.2123 45.3048 61.14 45.6631 61.8527 46.3097C62.5653 46.9563 63.0119 47.845 63.1055 48.8027C63.1991 49.7604 62.9329 50.7187 62.3589 51.491C61.7849 52.2634 60.944 52.7945 60 52.981V54.1637C60 54.3627 59.921 54.5534 59.7803 54.6941C59.6397 54.8347 59.4489 54.9137 59.25 54.9137C59.0511 54.9137 58.8603 54.8347 58.7197 54.6941C58.579 54.5534 58.5 54.3627 58.5 54.1637V52.981C57.62 52.8062 56.8277 52.3319 56.258 51.6388C55.6882 50.9458 55.3762 50.0767 55.375 49.1795C55.375 48.9806 55.454 48.7898 55.5947 48.6492C55.7353 48.5085 55.9261 48.4295 56.125 48.4295C56.3239 48.4295 56.5147 48.5085 56.6553 48.6492C56.796 48.7898 56.875 48.9806 56.875 49.1795C56.8758 49.8052 57.1233 50.4053 57.5637 50.8497C58.0042 51.2941 58.6021 51.547 59.2277 51.5534C59.2351 51.5534 59.2425 51.5522 59.25 51.5522C59.2575 51.5522 59.2649 51.5531 59.2723 51.5534C59.8964 51.5419 60.4909 51.2851 60.9272 50.8386C61.3635 50.3922 61.6064 49.7919 61.6035 49.1677C61.6006 48.5434 61.352 47.9454 60.9115 47.5031C60.4711 47.0607 59.8742 46.8095 59.25 46.8039Z" fill="#FF0000"/>
<defs>
<filter id="filter0_d" x="0.034483" y="0.827586" width="94.931" height="94.931" filterUnits="userSpaceOnUse" color-interpolation-filters="sRGB">
<feFlood flood-opacity="0" result="BackgroundImageFix"/>
<feColorMatrix in="SourceAlpha" type="matrix" values="0 0 0 0 0 0 0 0 0 0 0 0 0 0 0 0 0 0 127 0"/>
<feOffset dy="1.7931"/>
<feGaussianBlur stdDeviation="4.48276"/>
<feColorMatrix type="matrix" values="0 0 0 0 0 0 0 0 0 0 0 0 0 0 0 0 0 0 0.19 0"/>
<feBlend mode="normal" in2="BackgroundImageFix" result="effect1_dropShadow"/>
<feBlend mode="normal" in="SourceGraphic" in2="effect1_dropShadow" result="shape"/>
</filter>
</defs>
</svg>
