<svg width="95" height="96" viewBox="0 0 95 96" fill="none" xmlns="http://www.w3.org/2000/svg">
<g filter="url(#filter0_d)">
<circle cx="47.5" cy="46.5" r="38.5" fill="white"/>
</g>
<path d="M29.3456 23.5327C32.9223 23.5327 35.821 26.4327 35.821 30.0093C35.821 33.586 32.9223 36.486 29.3456 36.486C25.769 36.486 22.869 33.586 22.869 30.0093C22.869 26.4327 25.769 23.5327 29.3456 23.5327Z" fill="#EAB932"/>
<path d="M35.821 30.0094C35.821 33.586 32.9223 36.486 29.3457 36.486C28.5569 36.486 27.8016 36.3455 27.103 36.0865C26.844 35.3879 26.7035 34.6326 26.7035 33.8438C26.7035 30.2672 29.6022 27.3672 33.1801 27.3672C33.9676 27.3672 34.7229 27.5077 35.4215 27.7655C35.6807 28.4653 35.821 29.2206 35.821 30.0094Z" fill="#FFD039"/>
<path d="M36.3623 24.4067L38.2312 32.5744L35.3827 33.523L33.6324 32.5744L34.9587 26.7783L35.5013 24.4067C35.6392 24.4377 35.7836 24.4544 35.9318 24.4544C36.08 24.4544 36.2244 24.4377 36.3623 24.4067Z" fill="#ED2E2E"/>
<path d="M39.2803 32.5742L39.6553 35.3028L39.3473 35.3453L36.0916 36.8095L32.5162 35.3453L32.2095 35.3028L32.5832 32.5742H33.6324H38.2311H39.2803Z" fill="#D82525"/>
<path d="M39.6553 35.3032L40.0419 38.1168L35.7693 39.4521L31.8228 38.1168L32.1334 35.8562L32.2081 35.3032H32.2094L32.5162 35.3458H39.3472L39.6553 35.3032Z" fill="#3B9DFF"/>
<path d="M35.9322 23.294C35.6895 23.294 35.4928 23.0972 35.4928 22.8546V20.0424C35.4928 19.7997 35.6896 19.603 35.9322 19.603C36.1747 19.603 36.3716 19.7998 36.3716 20.0424V22.8546C36.3716 23.0973 36.1747 23.294 35.9322 23.294Z" fill="#D82525"/>
<path d="M35.9318 21.5542C36.751 21.5542 37.414 22.2172 37.414 23.0364C37.414 23.7409 36.9219 24.3319 36.2619 24.4811V24.4821C36.1562 24.5059 36.0455 24.5188 35.9318 24.5188C35.8181 24.5188 35.7075 24.5059 35.6017 24.4821V24.4811C34.9426 24.3319 34.4496 23.741 34.4496 23.0364C34.4496 22.2172 35.1136 21.5542 35.9318 21.5542Z" fill="#ED2E2E"/>
<path d="M40.894 43.6584L43.8894 65.9161H29.1639L28.0684 50.5359C28.5581 49.9533 30.9696 43.6584 30.9696 43.6584V38.1162H31.8229H40.0421H40.894V43.6584Z" fill="#D82525"/>
<path d="M40.5721 53.3247H30.9055V54.6136H40.5721V53.3247Z" fill="#ED2E2E"/>
<path d="M59.5184 27.0322L57.6639 22.3292V19.9521C57.6639 19.6539 57.4221 19.4121 57.1239 19.4121C56.8256 19.4121 56.5838 19.6539 56.5838 19.9521V22.3281L54.729 27.0322H53.9557V32.5074H57.1238H60.2918V27.0322H59.5184Z" fill="#ED2E2E"/>
<path d="M57.1238 32.8935C56.5898 32.8935 56.1571 32.4607 56.1571 31.9269V30.3802C56.1571 29.8464 56.5898 29.4136 57.1238 29.4136C57.6577 29.4136 58.0904 29.8464 58.0904 30.3802V31.9269C58.0904 32.4609 57.6577 32.8935 57.1238 32.8935Z" fill="#4D4D4D"/>
<path d="M51.5917 45.5918V56.805V62.034H62.6541V56.805V45.5918H51.5917Z" fill="#ED2E2E"/>
<path d="M65.6407 46.1069H63.7074V50.1025H65.6407V46.1069Z" fill="#ED2E2E"/>
<path d="M42.2988 49.8452H45.4192H48.2406V49.9805V60.6164L42.9446 65.9163H39.4762V49.9805V49.8452H42.2988Z" fill="#ED2E2E"/>
<path d="M48.2408 48.4272H45.7684V65.7446H48.2408V48.4272Z" fill="#D82525"/>
<path d="M32.3874 49.9805V65.9163H23.623V49.9805V49.8452H32.3874V49.9805Z" fill="#ED2E2E"/>
<path d="M32.3874 48.4272H30.4276V65.7446H32.3874V48.4272Z" fill="#D82525"/>
<path d="M74.8055 65.9161H63.9431V60.6162H62.6542V56.805V48.4272H65.3183H67.9437H70.5692H73.1946H74.8055V65.9161Z" fill="#ED2E2E"/>
<path d="M66.5737 48.4272H62.6542V65.7446H66.5737V48.4272Z" fill="#D82525"/>
<path d="M63.943 60.6167V65.9166H56.8116V60.801V60.6167H62.6541H63.943Z" fill="#D82525"/>
<path d="M61.3227 40.5782V31.9272H60.2916H57.1235H53.9555H52.9244V40.5782H51.5917V45.5919H51.7747H54.2339H57.0694H59.9049H62.4724H62.6541V40.5782H61.3227Z" fill="#ED2E2E"/>
<path d="M48.1731 49.8455C48.2818 49.8455 48.3861 49.7951 48.448 49.7058C48.8083 49.1864 49.0139 48.5991 49.0139 47.9766C49.0139 43.7878 45.6628 43.6589 43.8584 41.4678C43.0412 42.4602 41.9057 43.0299 40.9082 43.7465C39.7056 44.6088 38.7029 45.6863 38.7029 47.9766C38.7029 48.599 38.9085 49.1864 39.2688 49.7058C39.3308 49.7951 39.4351 49.8455 39.5437 49.8455H48.1731Z" fill="#3B9DFF"/>
<path d="M32.4929 49.8455C32.9163 49.2927 33.1608 48.6556 33.1608 47.9766C33.1608 47.1569 33.0319 46.4918 32.8115 45.9376C32.4003 44.8975 31.6657 44.244 30.8511 43.6718C29.8806 42.9899 28.794 42.4267 28.0052 41.4678C27.2435 42.3919 26.2073 42.95 25.2638 43.5996C24.3771 44.2092 23.5728 44.9013 23.1539 46.0549C22.9606 46.5846 22.8497 47.2136 22.8497 47.9766C22.8497 48.6079 23.0611 49.203 23.431 49.7277C23.4839 49.8027 23.5719 49.8455 23.6637 49.8455H32.4929Z" fill="#0FBC30"/>
<path d="M57.1983 33.0898C58.9791 33.0898 60.4205 34.5312 60.4205 36.312C60.4205 38.0907 58.9791 39.5342 57.1983 39.5342C55.4196 39.5342 53.9761 38.0907 53.9761 36.312C53.9761 34.5312 55.4196 33.0898 57.1983 33.0898Z" fill="#CCCCCC"/>
<path d="M57.1984 33.8862C58.5391 33.8862 59.6242 34.9713 59.6242 36.312C59.6242 37.651 58.5391 38.7378 57.1984 38.7378C55.8594 38.7378 54.7726 37.651 54.7726 36.312C54.7726 34.9713 55.8594 33.8862 57.1984 33.8862Z" fill="#E6E6E6"/>
<path d="M56.8116 60.801V65.9166H42.9446V60.6167H48.2406H51.5917H56.8116V60.801Z" fill="#ED2E2E"/>
<path d="M45.65 47.9766C45.65 48.6546 45.5662 49.2926 45.4193 49.8455H42.2989C42.152 49.2926 42.0669 48.6546 42.0669 47.9766C42.0669 43.7878 43.232 43.6589 43.8584 41.4678C44.4861 43.6589 45.65 43.7878 45.65 47.9766Z" fill="#F2F2F2"/>
<path d="M32.3875 49.8455H32.4929C32.9163 49.2927 33.1608 48.6556 33.1608 47.9766C33.1608 47.1569 33.0319 46.4919 32.8115 45.9376L32.7097 45.9789C27.4253 45.7211 25.6208 43.6589 25.6208 43.6589L25.2638 43.5996C24.3771 44.2092 23.5728 44.9014 23.1539 46.0549L23.3009 46.1078C23.3009 46.1078 27.1675 49.2011 32.3875 49.8455Z" fill="#FFD039"/>
<path d="M28.0056 55.8383C27.4717 55.8383 27.0389 55.4055 27.0389 54.8717V53.0672C27.0389 52.5334 27.4717 52.1006 28.0056 52.1006C28.5395 52.1006 28.9723 52.5334 28.9723 53.0672V54.8717C28.9723 55.4057 28.5395 55.8383 28.0056 55.8383Z" fill="#4D4D4D"/>
<path d="M35.9322 44.3671C35.3984 44.3671 34.9656 43.9343 34.9656 43.4005V41.5961C34.9656 41.0622 35.3984 40.6294 35.9322 40.6294C36.4661 40.6294 36.8989 41.0622 36.8989 41.5961V43.4005C36.8989 43.9345 36.4661 44.3671 35.9322 44.3671Z" fill="#4D4D4D"/>
<path d="M35.9322 50.1669C35.3984 50.1669 34.9656 49.7341 34.9656 49.2003V47.3959C34.9656 46.862 35.3984 46.4292 35.9322 46.4292C36.4661 46.4292 36.8989 46.862 36.8989 47.3959V49.2003C36.8989 49.7343 36.4661 50.1669 35.9322 50.1669Z" fill="#4D4D4D"/>
<path d="M43.8589 55.8383C43.325 55.8383 42.8922 55.4055 42.8922 54.8717V53.0672C42.8922 52.5334 43.325 52.1006 43.8589 52.1006C44.3927 52.1006 44.8255 52.5334 44.8255 53.0672V54.8717C44.8255 55.4057 44.3927 55.8383 43.8589 55.8383Z" fill="#4D4D4D"/>
<path d="M68.6956 46.1069H66.7623V50.1025H68.6956V46.1069Z" fill="#ED2E2E"/>
<path d="M71.7506 46.1069H69.8173V50.1025H71.7506V46.1069Z" fill="#ED2E2E"/>
<path d="M74.8055 46.1069H72.8722V50.1025H74.8055V46.1069Z" fill="#ED2E2E"/>
<path d="M62.6541 56.1611H51.5917V57.45H62.6541V56.1611Z" fill="#D82525"/>
<path d="M60.8718 45.2692V43.0781H58.9385V45.2692H58.0363V43.0781H56.103V45.2692H55.2008V43.0781H53.2675V45.2692H51.7744V46.5581H53.2675H55.2008H56.103H58.0363H58.9385H60.8718H62.4721V45.2692H60.8718Z" fill="#D82525"/>
<path d="M67.9246 54.1628H66.837C66.303 54.1628 65.8704 53.73 65.8704 53.1962C65.8704 52.6623 66.303 52.2295 66.837 52.2295H67.9246C68.4586 52.2295 68.8912 52.6623 68.8912 53.1962C68.8912 53.73 68.4584 54.1628 67.9246 54.1628Z" fill="#D82525"/>
<path d="M72.4074 56.7404H71.3198C70.7858 56.7404 70.3531 56.3076 70.3531 55.7738C70.3531 55.2399 70.7858 54.8071 71.3198 54.8071H72.4074C72.9413 54.8071 73.374 55.2399 73.374 55.7738C73.374 56.3076 72.9413 56.7404 72.4074 56.7404Z" fill="#D82525"/>
<path d="M68.855 61.2517H67.7674C67.2335 61.2517 66.8008 60.8189 66.8008 60.285C66.8008 59.7512 67.2335 59.3184 67.7674 59.3184H68.855C69.389 59.3184 69.8217 59.7512 69.8217 60.285C69.8217 60.8189 69.3889 61.2517 68.855 61.2517Z" fill="#D82525"/>
<path d="M57.1236 15.9653L58.0486 17.8394L60.1167 18.1399L58.6202 19.5987L58.9735 21.6584L57.1236 20.6859L55.2739 21.6584L55.6271 19.5987L54.1306 18.1399L56.1988 17.8394L57.1236 15.9653Z" fill="#FFD039"/>
<path d="M77.1494 69.0354H20.5057C20.5057 68.4644 20.6514 67.9282 20.9079 67.4603C21.0587 67.1845 21.2481 66.9332 21.4685 66.7128C22.0627 66.1173 22.885 65.75 23.7924 65.75H73.8628C75.1065 65.75 76.1892 66.4408 76.7473 67.4603C77.0038 67.9282 77.1494 68.4644 77.1494 69.0354Z" fill="#CCCCCC"/>
<path d="M77.1494 69.0355H20.5057C20.5057 68.4645 20.6514 67.9283 20.9079 67.4604H76.7473C77.0038 67.9283 77.1494 68.4645 77.1494 69.0355Z" fill="#999999"/>
<defs>
<filter id="filter0_d" x="0.034483" y="0.827586" width="94.931" height="94.931" filterUnits="userSpaceOnUse" color-interpolation-filters="sRGB">
<feFlood flood-opacity="0" result="BackgroundImageFix"/>
<feColorMatrix in="SourceAlpha" type="matrix" values="0 0 0 0 0 0 0 0 0 0 0 0 0 0 0 0 0 0 127 0"/>
<feOffset dy="1.7931"/>
<feGaussianBlur stdDeviation="4.48276"/>
<feColorMatrix type="matrix" values="0 0 0 0 0 0 0 0 0 0 0 0 0 0 0 0 0 0 0.19 0"/>
<feBlend mode="normal" in2="BackgroundImageFix" result="effect1_dropShadow"/>
<feBlend mode="normal" in="SourceGraphic" in2="effect1_dropShadow" result="shape"/>
</filter>
</defs>
</svg>
