<svg width="95" height="96" viewBox="0 0 95 96" fill="none" xmlns="http://www.w3.org/2000/svg">
<g filter="url(#filter0_d)">
<circle cx="47.5" cy="46.5" r="38.5" fill="white"/>
</g>
<path d="M44.2829 41.9774C46.1684 39.9324 47.2073 37.1891 47.2073 34.2523C47.2073 28.6606 43.2133 23 35.5783 23C32.0252 23 29.0277 24.2204 26.9094 26.5292C25.0331 28.5746 24 31.3172 24 34.2523C24 39.8445 27.9771 45.5048 35.5783 45.5048C39.1447 45.505 42.1553 44.2855 44.2829 41.9774ZM35.5783 28.2319C39.7616 28.2319 41.6668 31.3547 41.6668 34.2562C41.6668 35.8346 41.1357 37.2957 40.1705 38.3699C39.0937 39.5697 37.5287 40.2041 35.6462 40.2041C31.357 40.2041 29.4031 37.0816 29.4031 34.1805C29.4031 31.22 31.3128 28.2319 35.5783 28.2319Z" fill="#FF0000"/>
<path d="M63.3459 27.3408C62.654 27.3533 61.7093 27.7847 61.2465 28.2992L26.9001 66.4864C26.4375 67.0011 26.7652 67.7228 27.4571 67.7228H31.9525C32.6444 67.7228 33.5881 67.3008 34.05 66.7856L68.1841 28.6062C68.6458 28.0905 68.6151 27.2515 67.4719 27.2518L63.3459 27.3408Z" fill="#FF0000"/>
<path d="M59.5918 49.8017C56.1072 49.8017 53.1666 50.9995 51.0884 53.2643C49.2479 55.2701 48.2339 57.961 48.2339 60.8402C48.2339 66.3255 52.1353 71.8785 59.5919 71.8785C63.0914 71.8785 66.044 70.6818 68.1314 68.418C69.9812 66.4116 71 63.7205 71 60.8402C70.9998 55.355 67.0814 49.8017 59.5918 49.8017ZM59.6592 66.813C55.4862 66.813 53.5849 63.6794 53.5849 60.7692C53.5849 59.1843 54.1157 57.7177 55.0801 56.6394C56.1553 55.4361 57.7153 54.8001 59.5919 54.8001C63.7652 54.8001 65.6656 57.9331 65.6656 60.8442C65.6656 62.4288 65.1347 63.8957 64.171 64.974C63.0955 66.177 61.5353 66.813 59.6592 66.813Z" fill="#FF0000"/>
<defs>
<filter id="filter0_d" x="0.034483" y="0.827586" width="94.931" height="94.931" filterUnits="userSpaceOnUse" color-interpolation-filters="sRGB">
<feFlood flood-opacity="0" result="BackgroundImageFix"/>
<feColorMatrix in="SourceAlpha" type="matrix" values="0 0 0 0 0 0 0 0 0 0 0 0 0 0 0 0 0 0 127 0"/>
<feOffset dy="1.7931"/>
<feGaussianBlur stdDeviation="4.48276"/>
<feColorMatrix type="matrix" values="0 0 0 0 0 0 0 0 0 0 0 0 0 0 0 0 0 0 0.19 0"/>
<feBlend mode="normal" in2="BackgroundImageFix" result="effect1_dropShadow"/>
<feBlend mode="normal" in="SourceGraphic" in2="effect1_dropShadow" result="shape"/>
</filter>
</defs>
</svg>
