<svg width="16" height="17" viewBox="0 0 16 17" fill="none" xmlns="http://www.w3.org/2000/svg">
<path d="M12.3755 9.97529C12.0546 9.63074 11.6676 9.44653 11.2574 9.44653C10.8505 9.44653 10.4602 9.62733 10.1261 9.97187L9.08075 11.0464C8.99474 10.9987 8.90874 10.9543 8.82604 10.91C8.70695 10.8486 8.59448 10.7906 8.49855 10.7292C7.51939 10.0879 6.62955 9.25208 5.77609 8.17069C5.36259 7.63169 5.08473 7.17799 4.88294 6.71745C5.15419 6.4616 5.4056 6.19552 5.65039 5.93967C5.74301 5.84415 5.83563 5.74522 5.92826 5.6497C6.62293 4.93332 6.62293 4.00544 5.92826 3.28906L5.02518 2.35776C4.92264 2.25201 4.81678 2.14285 4.71754 2.03368C4.51906 1.82218 4.31066 1.60385 4.09564 1.39917C3.77477 1.07168 3.39105 0.897705 2.98747 0.897705C2.5839 0.897705 2.19356 1.07168 1.86277 1.39917C1.85946 1.40258 1.85946 1.40258 1.85615 1.406L0.731441 2.57609C0.308021 3.01274 0.0665393 3.54491 0.0136118 4.16236C-0.0657794 5.15847 0.218706 6.08636 0.437032 6.69358C0.972922 8.18433 1.77345 9.56592 2.96763 11.0464C4.41652 12.8306 6.15982 14.2395 8.15121 15.2322C8.91204 15.604 9.92759 16.0441 11.0622 16.1191C11.1317 16.1225 11.2045 16.1259 11.2706 16.1259C12.0348 16.1259 12.6765 15.8428 13.1793 15.2799C13.1826 15.2731 13.1892 15.2697 13.1926 15.2629C13.3646 15.048 13.563 14.8535 13.7714 14.6454C13.9137 14.5055 14.0592 14.3589 14.2015 14.2054C14.529 13.854 14.701 13.4446 14.701 13.025C14.701 12.602 14.5257 12.1961 14.1916 11.8549L12.3755 9.97529ZM13.5597 13.5674C13.5564 13.5708 13.5564 13.5674 13.5597 13.5674C13.4538 13.6851 13.3456 13.7935 13.2316 13.9079C13.2114 13.9281 13.191 13.9486 13.1704 13.9692C13.1657 13.974 13.1609 13.9788 13.1562 13.9836C12.9411 14.1951 12.7228 14.4169 12.5177 14.6659C12.1836 15.0343 11.79 15.2083 11.2739 15.2083C11.2243 15.2083 11.1714 15.2083 11.1218 15.2049C10.1393 15.1401 9.2263 14.7443 8.54155 14.4066C6.66924 13.4719 5.02518 12.1449 3.65899 10.4631C2.53098 9.06105 1.77676 7.76474 1.27726 6.37291C0.969615 5.52348 0.857143 4.86168 0.906763 4.23741C0.939843 3.83828 1.0887 3.50738 1.36326 3.22424L2.49128 2.06097C2.65337 1.90405 2.82538 1.81877 2.99409 1.81877C3.20249 1.81877 3.3712 1.9484 3.47705 2.05756C3.48036 2.06097 3.48367 2.06438 3.48698 2.0678C3.68876 2.26224 3.88063 2.46351 4.08241 2.67843C4.13409 2.73344 4.1866 2.78844 4.23954 2.84389C4.29164 2.89847 4.34416 2.95348 4.39667 3.00933L5.29974 3.94062C5.65039 4.30222 5.65039 4.63654 5.29974 4.99814C5.28972 5.00848 5.27972 5.01882 5.26976 5.02916C5.24784 5.0519 5.22603 5.07465 5.20431 5.09731C5.14146 5.16289 5.07909 5.22796 5.01526 5.29151C4.73739 5.58489 4.47275 5.8578 4.18496 6.12388C4.18261 6.1263 4.18027 6.12829 4.17808 6.13015C4.17407 6.13355 4.17056 6.13653 4.16842 6.14094C3.88393 6.43431 3.93686 6.72087 3.9964 6.91531C3.99971 6.92555 4.00302 6.93578 4.00633 6.94601C4.24119 7.53277 4.57199 8.0854 5.0748 8.74379L5.07811 8.7472C5.99111 9.90706 6.95373 10.8111 8.01558 11.5036C8.13426 11.5812 8.25546 11.6457 8.37255 11.7064C8.38927 11.715 8.40593 11.7236 8.42247 11.7321C8.54155 11.7935 8.65402 11.8515 8.74995 11.9129C8.75657 11.9163 8.76319 11.9206 8.7698 11.9249C8.77642 11.9291 8.78303 11.9334 8.78965 11.9368C8.88145 11.9841 8.96883 12.011 9.05721 12.0193C9.07712 12.0212 9.09707 12.0221 9.11714 12.0221C9.3917 12.0221 9.56371 11.8447 9.61995 11.7867L10.7513 10.62C10.8637 10.504 11.0424 10.3642 11.2508 10.3642C11.4559 10.3642 11.6246 10.4972 11.7271 10.6132C11.7304 10.6166 11.7304 10.6166 11.7337 10.62L13.5564 12.4997C13.8972 12.8476 13.8972 13.2058 13.5597 13.5674Z" fill="#172116"/>
<path fill-rule="evenodd" clip-rule="evenodd" d="M8.42247 11.7321C8.54155 11.7935 8.65402 11.8515 8.74995 11.9129C8.75657 11.9163 8.76319 11.9206 8.7698 11.9249C8.77642 11.9291 8.78303 11.9334 8.78965 11.9368C8.88145 11.9841 8.96883 12.011 9.05721 12.0193L8.42247 11.7321Z" fill="#172116"/>
<path d="M8.47037 3.84474C9.33706 3.99483 10.1244 4.41784 10.7529 5.066C11.3814 5.71415 11.7883 6.52605 11.9371 7.41982C11.9735 7.64497 12.1621 7.80189 12.3771 7.80189C12.4036 7.80189 12.4267 7.79848 12.4532 7.79507C12.698 7.75414 12.8601 7.51534 12.8204 7.2629C12.6417 6.18151 12.1455 5.19563 11.388 4.41443C10.6305 3.63323 9.67448 3.12153 8.62585 2.93732C8.38106 2.89638 8.15281 3.06354 8.1098 3.31257C8.0668 3.56159 8.22558 3.8038 8.47037 3.84474Z" fill="#172116"/>
<path d="M15.6552 7.1299C15.3608 5.34918 14.5471 3.7288 13.2967 2.43931C12.0462 1.14982 10.475 0.310631 8.7482 0.00702105C8.50672 -0.0373264 8.27847 0.133241 8.23547 0.382269C8.19577 0.634708 8.35786 0.870091 8.60265 0.914438C10.1442 1.18393 11.5501 1.93784 12.6681 3.08746C13.7862 4.2405 14.514 5.69032 14.7753 7.28C14.8117 7.50515 15.0003 7.66207 15.2153 7.66207C15.2417 7.66207 15.2649 7.65866 15.2914 7.65525C15.5328 7.61773 15.6982 7.37893 15.6552 7.1299Z" fill="#172116"/>
</svg>
