<svg width="95" height="96" viewBox="0 0 95 96" fill="none" xmlns="http://www.w3.org/2000/svg">
<g filter="url(#filter0_d)">
<circle cx="47.5" cy="46.5" r="38.5" fill="white"/>
</g>
<path d="M73.6117 36.6079C73.359 36.6079 73.0997 36.6439 72.8409 36.7154L70.1212 37.4645L67.2463 30.4621C66.3849 28.3634 63.8382 26.6558 61.5693 26.6558H59.6564V20.8505C59.6564 19.83 58.8264 19 57.8059 19H38.1943C37.1739 19 36.3439 19.83 36.3439 20.8505V26.6558H34.3915C32.1228 26.6558 29.5758 28.3631 28.7145 30.4618L25.8435 37.4546L23.1594 36.7152C22.9006 36.6439 22.641 36.6076 22.3886 36.6076C21.0047 36.6079 20 37.6654 20 39.122V40.6103C20 42.311 21.3837 43.6944 23.0841 43.6944H23.282L22.8714 44.6942C22.071 46.6441 21.4197 49.9453 21.4197 52.0529V66.023C21.4197 67.7237 22.8031 69.1071 24.5038 69.1071H28.2114C29.9121 69.1071 31.2955 67.7237 31.2955 66.023V62.5895H64.6655V66.023C64.6655 67.7237 66.0491 69.1071 67.7496 69.1071H71.4565C73.1572 69.1071 74.5406 67.7237 74.5406 66.023V52.0529C74.5406 49.9453 73.8892 46.6441 73.0888 44.6942L72.6783 43.6944H72.9159C74.6166 43.6944 76 42.311 76 40.6103V39.122C76 37.6654 74.9956 36.6079 73.6117 36.6079ZM55.4334 21.4678C55.4334 21.4271 55.4667 21.3938 55.5074 21.3938H56.933C56.9737 21.3938 57.007 21.4271 57.007 21.4678V26.599C57.007 26.6237 56.9929 26.6422 56.9744 26.6558H55.4659C55.4474 26.6422 55.4334 26.6237 55.4334 26.599V21.4678ZM45.2089 21.3938H46.9219C46.9626 21.3938 47.0083 21.4246 47.0233 21.4626L49.0566 26.5739L50.9204 24.2682C50.9461 24.2366 50.9485 24.1828 50.9261 24.149L49.1373 21.4555C49.1146 21.4214 49.1297 21.3938 49.1704 21.3938H50.7546C50.7953 21.3938 50.8462 21.4221 50.8674 21.4567L51.7894 22.9524C51.8106 22.9872 51.8457 22.9872 51.8669 22.9524L52.7896 21.4567C52.8109 21.4219 52.8617 21.3938 52.9024 21.3938H54.4874C54.5281 21.3938 54.5429 21.4214 54.5205 21.4555L52.7302 24.149C52.7075 24.1831 52.7102 24.2366 52.7356 24.2682L54.6335 26.6156C54.6463 26.6311 54.6492 26.6457 54.6446 26.656H52.9624C52.9401 26.6444 52.9202 26.6289 52.9086 26.6104L51.8671 24.9437C51.8454 24.9092 51.8104 24.9092 51.7887 24.9437L50.7494 26.6104C50.7378 26.6289 50.7179 26.6444 50.6956 26.656H47.5259C47.5042 26.6432 47.4854 26.6254 47.4783 26.603L47.1289 25.5332C47.1163 25.4944 47.0727 25.4628 47.032 25.4628H45.0902C45.0495 25.4628 45.0051 25.4942 44.9917 25.5327L44.6152 26.6035C44.6073 26.6257 44.5886 26.6434 44.5666 26.656H43.0421C43.03 26.6434 43.0248 26.6262 43.0335 26.6047L45.107 21.4629C45.1225 21.4246 45.1682 21.3938 45.2089 21.3938ZM40.1953 26.599V22.5231C40.1953 22.4823 40.162 22.449 40.1213 22.449H38.4078C38.3671 22.449 38.3337 22.4157 38.3337 22.375V21.4675C38.3337 21.4268 38.3671 21.3935 38.4078 21.3935H43.5669C43.6076 21.3935 43.6409 21.4268 43.6409 21.4675V22.375C43.6409 22.4157 43.6076 22.449 43.5669 22.449H41.8435C41.8028 22.449 41.7695 22.4823 41.7695 22.5231V26.599C41.7695 26.6237 41.7554 26.6422 41.7369 26.6558H40.2279C40.2094 26.6425 40.1953 26.6237 40.1953 26.599ZM28.0227 41.9755L32.391 31.3343C32.9064 30.0789 34.4384 29.0518 35.7954 29.0518H60.1654C61.5224 29.0518 63.0543 30.0789 63.5698 31.3343L67.9381 41.9755C68.4535 43.2308 67.7649 44.258 66.4079 44.258H29.5529C28.1959 44.258 27.5072 43.2308 28.0227 41.9755ZM37.8909 55.6793C37.8909 56.3578 37.3357 56.913 36.6572 56.913H28.3192C27.6407 56.913 27.0856 56.3578 27.0856 55.6793V51.7238C27.0856 51.0453 27.6407 50.4901 28.3192 50.4901H36.6572C37.3357 50.4901 37.8909 51.0453 37.8909 51.7238V55.6793ZM68.7952 55.6793C68.7952 56.3578 68.2401 56.913 67.5616 56.913H59.2236C58.5451 56.913 57.99 56.3578 57.99 55.6793V51.7238C57.99 51.0453 58.5451 50.4901 59.2236 50.4901H67.5616C68.2401 50.4901 68.7952 51.0453 68.7952 51.7238V55.6793V55.6793Z" fill="#FF0000"/>
<path d="M46.6853 24.4073C46.726 24.4073 46.746 24.3767 46.7299 24.3395L46.1151 22.9205C46.0988 22.8833 46.0717 22.8828 46.0549 22.9198L45.4038 24.3402C45.387 24.3772 45.4062 24.4073 45.4469 24.4073H46.6853Z" fill="#FF0000"/>
<defs>
<filter id="filter0_d" x="0.034483" y="0.827602" width="94.931" height="94.931" filterUnits="userSpaceOnUse" color-interpolation-filters="sRGB">
<feFlood flood-opacity="0" result="BackgroundImageFix"/>
<feColorMatrix in="SourceAlpha" type="matrix" values="0 0 0 0 0 0 0 0 0 0 0 0 0 0 0 0 0 0 127 0"/>
<feOffset dy="1.7931"/>
<feGaussianBlur stdDeviation="4.48276"/>
<feColorMatrix type="matrix" values="0 0 0 0 0 0 0 0 0 0 0 0 0 0 0 0 0 0 0.19 0"/>
<feBlend mode="normal" in2="BackgroundImageFix" result="effect1_dropShadow"/>
<feBlend mode="normal" in="SourceGraphic" in2="effect1_dropShadow" result="shape"/>
</filter>
</defs>
</svg>
