<svg width="21" height="21" viewBox="0 0 21 21" fill="none" xmlns="http://www.w3.org/2000/svg">
<g clip-path="url(#clip0)">
<g filter="url(#filter0_d)">
<path d="M18.9136 5.80255L18.9083 5.78155C18.4837 4.06482 16.5692 2.22267 14.811 1.83942L14.7912 1.83534C11.9475 1.29284 9.06409 1.29284 6.22096 1.83534L6.20054 1.83942C4.44297 2.22267 2.52849 4.06482 2.10325 5.78155L2.09858 5.80255C1.57359 8.20002 1.57359 10.6313 2.09858 13.0288L2.10325 13.0498C2.51035 14.6933 4.28227 16.4508 5.97479 16.9341V18.8505C5.97479 19.5441 6.82003 19.8847 7.30069 19.3842L9.2423 17.366C9.6634 17.3895 10.0847 17.4027 10.5061 17.4027C11.9376 17.4027 13.3696 17.2673 14.7912 16.9961L14.811 16.992C16.5692 16.6087 18.4837 14.7666 18.9083 13.0499L18.9136 13.0289C19.4386 10.6313 19.4386 8.20002 18.9136 5.80255ZM17.3771 12.6811C17.0936 13.8011 15.6399 15.1935 14.485 15.4508C12.9729 15.7383 11.4489 15.8612 9.92643 15.819C9.89615 15.8182 9.86704 15.8299 9.84593 15.8516C9.62986 16.0734 8.42827 17.3069 8.42827 17.3069L6.92036 18.8545C6.81012 18.9694 6.61645 18.8913 6.61645 18.7326V15.558C6.61645 15.5056 6.579 15.461 6.52749 15.4509C6.5272 15.4508 6.52691 15.4508 6.52662 15.4507C5.37163 15.1935 3.91856 13.8011 3.63448 12.6811C3.16199 10.514 3.16199 8.31721 3.63448 6.15015C3.91856 5.03016 5.37163 3.63776 6.52662 3.38051C9.16734 2.87827 11.8448 2.87827 14.485 3.38051C15.6405 3.63776 17.0936 5.03016 17.3771 6.15015C17.8501 8.31727 17.8501 10.5141 17.3771 12.6811Z" fill="white"/>
<path d="M17.3771 12.6811C17.0936 13.8011 15.6399 15.1935 14.485 15.4508C12.9729 15.7383 11.4489 15.8612 9.92643 15.819C9.89615 15.8182 9.86704 15.8299 9.84593 15.8516C9.62986 16.0734 8.42827 17.3069 8.42827 17.3069L6.92036 18.8545C6.81012 18.9694 6.61645 18.8913 6.61645 18.7326V15.558C6.61645 15.5056 6.579 15.461 6.52749 15.4509L6.52662 15.4507C5.37163 15.1935 3.91856 13.8011 3.63448 12.6811C3.16199 10.514 3.16199 8.31721 3.63448 6.15015C3.91856 5.03016 5.37163 3.63776 6.52662 3.38051C9.16734 2.87827 11.8448 2.87827 14.485 3.38051C15.6405 3.63776 17.0936 5.03016 17.3771 6.15015C17.8501 8.31727 17.8501 10.5141 17.3771 12.6811Z" fill="#7D3DAF"/>
<path d="M18.9136 5.80255L18.9083 5.78155C18.4837 4.06482 16.5692 2.22267 14.811 1.83942L14.7912 1.83534C11.9475 1.29284 9.06409 1.29284 6.22096 1.83534L6.20054 1.83942C4.44297 2.22267 2.52849 4.06482 2.10325 5.78155L2.09858 5.80255C1.57359 8.20002 1.57359 10.6313 2.09858 13.0288L2.10325 13.0498C2.51035 14.6933 4.28227 16.4508 5.97479 16.9341V18.8505C5.97479 19.5441 6.82003 19.8847 7.30069 19.3842L9.2423 17.366C9.6634 17.3895 10.0847 17.4027 10.5061 17.4027C11.9376 17.4027 13.3696 17.2673 14.7912 16.9961L14.811 16.992C16.5692 16.6087 18.4837 14.7666 18.9083 13.0499L18.9136 13.0289C19.4386 10.6313 19.4386 8.20002 18.9136 5.80255ZM17.3771 12.6811C17.0936 13.8011 15.6399 15.1935 14.485 15.4508C12.9729 15.7383 11.4489 15.8612 9.92643 15.819C9.89615 15.8182 9.86704 15.8299 9.84593 15.8516C9.62986 16.0734 8.42827 17.3069 8.42827 17.3069L6.92036 18.8545C6.81012 18.9694 6.61645 18.8913 6.61645 18.7326V15.558C6.61645 15.5056 6.579 15.461 6.52749 15.4509C6.5272 15.4508 6.52691 15.4508 6.52662 15.4507C5.37163 15.1935 3.91856 13.8011 3.63448 12.6811C3.16199 10.514 3.16199 8.31721 3.63448 6.15015C3.91856 5.03016 5.37163 3.63776 6.52662 3.38051C9.16734 2.87827 11.8448 2.87827 14.485 3.38051C15.6405 3.63776 17.0936 5.03016 17.3771 6.15015C17.8501 8.31727 17.8501 10.5141 17.3771 12.6811Z" fill="white"/>
<path d="M13.0186 14.1465C12.841 14.0926 12.6718 14.0564 12.5146 13.9912C10.8862 13.3156 9.38752 12.444 8.20039 11.1079C7.52531 10.3481 6.99693 9.4903 6.55028 8.58253C6.33847 8.15203 6.15997 7.70468 5.97803 7.26024C5.81213 6.85494 6.05649 6.43623 6.3138 6.13086C6.55523 5.84427 6.86591 5.62494 7.20238 5.4633C7.46499 5.33713 7.72405 5.40987 7.91584 5.63247C8.33047 6.11371 8.71133 6.61957 9.01973 7.17741C9.20937 7.52052 9.15734 7.93993 8.81364 8.17344C8.73011 8.2302 8.65399 8.29681 8.57617 8.36092C8.50792 8.4171 8.4437 8.47385 8.39691 8.54992C8.3114 8.6891 8.30732 8.85325 8.36238 9.00456C8.78623 10.1694 9.50063 11.0751 10.673 11.5629C10.8606 11.641 11.049 11.7319 11.2651 11.7067C11.6271 11.6644 11.7443 11.2673 11.9979 11.0599C12.2458 10.8572 12.5626 10.8545 12.8297 11.0235C13.0968 11.1926 13.3557 11.374 13.6131 11.5574C13.8657 11.7375 14.1173 11.9136 14.3503 12.1188C14.5743 12.3161 14.6515 12.575 14.5254 12.8428C14.2944 13.3333 13.9582 13.7413 13.4734 14.0018C13.3365 14.0752 13.173 14.099 13.0186 14.1465C13.173 14.099 12.841 14.0926 13.0186 14.1465Z" fill="white"/>
<path d="M10.5106 4.9025C12.6406 4.96217 14.3901 6.37575 14.765 8.48156C14.8289 8.84037 14.8516 9.20722 14.88 9.57139C14.892 9.72457 14.8052 9.87011 14.6399 9.8721C14.4692 9.87414 14.3924 9.73128 14.3813 9.57816C14.3593 9.27506 14.3441 8.97062 14.3023 8.67004C14.0819 7.08333 12.8166 5.77061 11.2373 5.48892C10.9996 5.44651 10.7564 5.43537 10.5156 5.41011C10.3634 5.39413 10.1641 5.38491 10.1304 5.19574C10.1021 5.03713 10.236 4.91084 10.387 4.90273C10.4281 4.90046 10.4694 4.90232 10.5106 4.9025C10.4694 4.90232 12.6406 4.96217 10.5106 4.9025Z" fill="white"/>
<path d="M13.7475 9.09875C13.744 9.12535 13.7421 9.18788 13.7265 9.2468C13.67 9.46065 13.3458 9.48742 13.2711 9.27159C13.249 9.20754 13.2457 9.13468 13.2456 9.06573C13.2448 8.61459 13.1468 8.16391 12.9193 7.77139C12.6854 7.36796 12.3281 7.02881 11.9091 6.8236C11.6557 6.69953 11.3816 6.62241 11.1039 6.57644C10.9825 6.55638 10.8598 6.54418 10.7379 6.52721C10.5901 6.50668 10.5111 6.41247 10.5181 6.26681C10.5247 6.13031 10.6244 6.03214 10.7732 6.04054C11.262 6.06831 11.7341 6.17395 12.1687 6.40407C13.0525 6.87207 13.5573 7.6108 13.7046 8.5972C13.7113 8.64189 13.722 8.68616 13.7254 8.73102C13.7337 8.84179 13.739 8.95268 13.7475 9.09875C13.739 8.95268 13.744 9.12535 13.7475 9.09875Z" fill="white"/>
<path d="M12.4228 9.04704C12.2446 9.05024 12.1492 8.9516 12.1308 8.78821C12.1181 8.67429 12.108 8.55885 12.0808 8.44802C12.0272 8.22974 11.9112 8.02744 11.7276 7.89368C11.6409 7.83051 11.5427 7.78448 11.4398 7.75479C11.309 7.71705 11.1733 7.72743 11.0429 7.69547C10.9012 7.66076 10.8229 7.54608 10.8452 7.4132C10.8654 7.29227 10.9831 7.19789 11.1152 7.20746C11.941 7.26707 12.5312 7.69401 12.6155 8.66618C12.6214 8.73478 12.6284 8.80729 12.6132 8.87291C12.5871 8.98526 12.5039 9.04155 12.4228 9.04704C12.5039 9.04155 12.2446 9.05024 12.4228 9.04704Z" fill="white"/>
</g>
</g>
<defs>
<filter id="filter0_d" x="-0.295166" y="0.428467" width="21.6025" height="22.194" filterUnits="userSpaceOnUse" color-interpolation-filters="sRGB">
<feFlood flood-opacity="0" result="BackgroundImageFix"/>
<feColorMatrix in="SourceAlpha" type="matrix" values="0 0 0 0 0 0 0 0 0 0 0 0 0 0 0 0 0 0 127 0"/>
<feOffset dy="1"/>
<feGaussianBlur stdDeviation="1"/>
<feColorMatrix type="matrix" values="0 0 0 0 0 0 0 0 0 0 0 0 0 0 0 0 0 0 0.25 0"/>
<feBlend mode="normal" in2="BackgroundImageFix" result="effect1_dropShadow"/>
<feBlend mode="normal" in="SourceGraphic" in2="effect1_dropShadow" result="shape"/>
</filter>
<clipPath id="clip0">
<rect width="21" height="21" fill="white"/>
</clipPath>
</defs>
</svg>
