<svg width="22" height="22" viewBox="0 0 22 22" fill="none" xmlns="http://www.w3.org/2000/svg">
<g filter="url(#filter0_d)">
<path d="M6.70808 15.4068L6.96579 15.5596C8.0487 16.2022 9.29023 16.5421 10.5563 16.5428H10.5591C14.4473 16.5428 17.6119 13.3789 17.6134 9.49045C17.614 7.60592 16.8809 5.83413 15.5491 4.50102C14.2171 3.16816 12.4461 2.43362 10.5616 2.43283C6.6704 2.43283 3.50583 5.59618 3.50436 9.48467C3.50385 10.8172 3.8766 12.1149 4.58286 13.2376L4.75073 13.5045L4.03791 16.1069L6.70808 15.4068ZM2.00024 18.1227L3.20432 13.726C2.46163 12.4393 2.07092 10.9796 2.07154 9.48428C2.07335 4.80605 5.88052 1 10.5592 1C12.8296 1.00098 14.9605 1.88456 16.563 3.48835C18.1653 5.09212 19.0474 7.22394 19.0467 9.49113C19.0447 14.1691 15.2367 17.9759 10.5592 17.9759C10.5589 17.9759 10.5594 17.9759 10.5592 17.9759H10.5556C9.13517 17.9754 7.73943 17.6191 6.49978 16.943L2.00024 18.1227Z" fill="white"/>
<path d="M2.36386 9.48877C2.36335 10.9322 2.74051 12.3414 3.45765 13.5837L2.29517 17.8282L6.63871 16.6893C7.83545 17.3414 9.18285 17.6857 10.5541 17.6861H10.5577C15.0734 17.6861 18.7491 14.0115 18.751 9.4952C18.7519 7.30652 17.9004 5.24878 16.3533 3.70038C14.8065 2.1522 12.7494 1.29912 10.5573 1.2981C6.04127 1.2981 2.36562 4.97228 2.36366 9.48879L2.36386 9.48877ZM10.5575 17.6861H10.5576H10.5575C10.5574 17.6861 10.5575 17.6861 10.5575 17.6861Z" fill="url(#paint0_linear)"/>
<path d="M2.07129 9.48626C2.07078 10.9815 2.46149 12.4414 3.20418 13.728L2 18.1244L6.49939 16.9447C7.73911 17.6207 9.13478 17.977 10.5552 17.9776H10.5589C15.2363 17.9776 19.0444 14.1708 19.0463 9.49284C19.0471 7.22553 18.1649 5.09376 16.5626 3.49006C14.96 1.88637 12.8292 1.00269 10.5589 1.00171C5.88038 1.00171 2.07311 4.80776 2.07115 9.48599L2.07129 9.48626ZM4.75058 13.5064L4.58262 13.2396C3.87636 12.1167 3.50361 10.819 3.50412 9.48663C3.50566 5.59838 6.67016 2.43478 10.5613 2.43478C12.4457 2.43552 14.2167 3.17013 15.5488 4.50297C16.8808 5.83591 17.6137 7.60785 17.6132 9.49216C17.6115 13.3806 14.4469 16.5445 10.5587 16.5445H10.5559C9.28987 16.5437 8.04824 16.2039 6.96541 15.5614L6.70769 15.4086L4.03756 16.1086L4.75058 13.5064ZM10.5589 17.9776H10.5589H10.5589C10.5587 17.9776 10.5588 17.9776 10.5589 17.9776Z" fill="url(#paint1_linear)"/>
<path fill-rule="evenodd" clip-rule="evenodd" d="M8.43776 5.93877C8.27887 5.58559 8.11169 5.57852 7.96056 5.5723C7.83689 5.56704 7.69543 5.56739 7.55415 5.56739C7.41269 5.56739 7.18294 5.62047 6.98866 5.83269C6.79421 6.04492 6.24634 6.55793 6.24634 7.6013C6.24634 8.64476 7.00637 9.653 7.11226 9.79463C7.21833 9.936 8.57941 12.1457 10.7348 12.9956C12.5263 13.7021 12.8909 13.5616 13.2797 13.5262C13.6685 13.4909 14.5344 13.0133 14.7111 12.5181C14.8879 12.023 14.8879 11.5985 14.8349 11.5099C14.7819 11.4215 14.6404 11.3684 14.4283 11.2624C14.2162 11.1564 13.1736 10.6433 12.9792 10.5725C12.7848 10.5018 12.6434 10.4665 12.502 10.6788C12.3606 10.8909 11.9544 11.3684 11.8307 11.5099C11.707 11.6516 11.5832 11.6693 11.3712 11.5632C11.159 11.4568 10.476 11.2331 9.66571 10.5107C9.03524 9.94859 8.60964 9.25442 8.48588 9.04208C8.3622 8.83003 8.47267 8.71516 8.579 8.60942C8.67429 8.51439 8.79115 8.36181 8.89722 8.23804C9.00303 8.11419 9.03833 8.02581 9.10902 7.88434C9.17979 7.7428 9.14441 7.61895 9.09141 7.51286C9.03833 7.40679 8.62621 6.35806 8.43763 5.9387" fill="white"/>
</g>
<defs>
<filter id="filter0_d" x="0" y="0" width="21.0467" height="21.1244" filterUnits="userSpaceOnUse" color-interpolation-filters="sRGB">
<feFlood flood-opacity="0" result="BackgroundImageFix"/>
<feColorMatrix in="SourceAlpha" type="matrix" values="0 0 0 0 0 0 0 0 0 0 0 0 0 0 0 0 0 0 127 0"/>
<feOffset dy="1"/>
<feGaussianBlur stdDeviation="1"/>
<feColorMatrix type="matrix" values="0 0 0 0 0 0 0 0 0 0 0 0 0 0 0 0 0 0 0.25 0"/>
<feBlend mode="normal" in2="BackgroundImageFix" result="effect1_dropShadow"/>
<feBlend mode="normal" in="SourceGraphic" in2="effect1_dropShadow" result="shape"/>
</filter>
<linearGradient id="paint0_linear" x1="10.5232" y1="17.8265" x2="10.5232" y2="1.29636" gradientUnits="userSpaceOnUse">
<stop stop-color="#20B038"/>
<stop offset="1" stop-color="#60D66A"/>
</linearGradient>
<linearGradient id="paint1_linear" x1="10.5233" y1="18.1249" x2="10.5233" y2="1.00222" gradientUnits="userSpaceOnUse">
<stop stop-color="#F9F9F9"/>
<stop offset="1" stop-color="white"/>
</linearGradient>
</defs>
</svg>
