<svg width="588" height="588" viewBox="0 0 588 588" fill="none" xmlns="http://www.w3.org/2000/svg">
<path d="M86.451 501.46C113.388 528.396 144.766 549.548 179.716 564.331C215.923 579.645 254.358 587.409 293.955 587.409C333.551 587.409 371.987 579.645 408.194 564.331C443.143 549.548 474.522 528.395 501.46 501.46C528.396 474.522 549.55 443.144 564.331 408.194C579.645 371.987 587.411 333.551 587.411 293.956C587.411 254.358 579.645 215.923 564.331 179.717C549.55 144.767 528.395 113.389 501.46 86.452C474.522 59.515 443.144 38.362 408.194 23.58C371.986 8.26498 333.551 0.500977 293.955 0.500977C254.358 0.500977 215.923 8.26598 179.716 23.58C144.766 38.362 113.388 59.516 86.451 86.452C59.514 113.388 38.361 144.767 23.578 179.716C8.265 215.923 0.5 254.358 0.5 293.956C0.5 333.552 8.265 371.987 23.579 408.194C38.361 443.144 59.515 474.522 86.451 501.46ZM293.955 43.341C432.366 43.341 544.569 155.545 544.569 293.956C544.569 432.366 432.366 544.569 293.955 544.569C155.544 544.569 43.34 432.366 43.34 293.956C43.34 155.545 155.544 43.341 293.955 43.341Z" fill="white"/>
<path d="M293.955 587.909C254.288 587.909 215.788 580.131 179.521 564.792C144.511 549.983 113.079 528.794 86.098 501.813C59.115 474.829 37.926 443.396 23.119 408.388C7.778 372.119 0 333.618 0 293.956C0 254.293 7.778 215.791 23.118 179.521C37.925 144.513 59.115 113.081 86.097 86.098C113.079 59.115 144.512 37.926 179.52 23.119C215.79 7.77898 254.291 0.000976562 293.954 0.000976562C333.62 0.000976562 372.121 7.77898 408.387 23.12C443.396 37.927 474.828 59.117 501.812 86.099C528.796 113.084 549.985 144.516 564.791 179.522C580.132 215.792 587.91 254.293 587.91 293.956C587.91 333.618 580.132 372.119 564.791 408.389C549.985 443.396 528.797 474.828 501.812 501.814C474.83 528.794 443.397 549.983 408.387 564.793C372.121 580.131 333.62 587.909 293.955 587.909ZM293.955 1.00098C254.426 1.00098 216.057 8.75198 179.911 24.04C145.022 38.797 113.696 59.914 86.805 86.805C59.913 113.697 38.796 145.022 24.039 179.91C8.751 216.057 1 254.427 1 293.956C1 333.483 8.751 371.854 24.039 408C38.796 442.889 59.913 474.214 86.805 501.106C113.695 527.995 145.02 549.112 179.911 563.871C216.053 579.158 254.423 586.909 293.955 586.909C333.487 586.909 371.856 579.158 407.999 563.87C442.889 549.112 474.215 527.995 501.105 501.106C527.998 474.211 549.114 442.886 563.869 408C579.158 371.854 586.91 333.484 586.91 293.956C586.91 254.427 579.158 216.057 563.869 179.912C549.115 145.025 527.998 113.7 501.105 86.806C474.213 59.915 442.887 38.798 407.999 24.041C371.855 8.75198 333.485 1.00098 293.955 1.00098ZM293.955 545.069C226.88 545.069 163.819 518.949 116.39 471.52C68.961 424.09 42.84 361.031 42.84 293.956C42.84 226.881 68.96 163.82 116.39 116.391C163.819 68.962 226.88 42.841 293.955 42.841C361.03 42.841 424.09 68.962 471.519 116.391C518.949 163.821 545.069 226.881 545.069 293.956C545.069 361.031 518.949 424.091 471.519 471.52C424.09 518.949 361.029 545.069 293.955 545.069ZM293.955 43.841C227.147 43.841 164.338 69.858 117.097 117.098C69.857 164.339 43.84 227.148 43.84 293.956C43.84 360.764 69.857 423.573 117.097 470.812C164.337 518.052 227.147 544.069 293.955 544.069C360.763 544.069 423.572 518.052 470.812 470.812C518.052 423.573 544.069 360.763 544.069 293.956C544.069 227.148 518.052 164.338 470.812 117.098C423.571 69.857 360.763 43.841 293.955 43.841Z" fill="white"/>
<path d="M228.992 400.794C233.009 404.812 238.457 407.067 244.138 407.067C249.82 407.067 255.267 404.811 259.284 400.794L442.67 217.409C451.035 209.044 451.035 195.482 442.67 187.117C434.305 178.752 420.742 178.751 412.377 187.117L244.138 355.357L175.532 286.75C167.167 278.384 153.605 278.384 145.24 286.75C136.875 295.115 136.875 308.677 145.24 317.042L228.992 400.794Z" fill="white"/>
<path d="M244.138 407.567C238.283 407.567 232.778 405.287 228.638 401.147L144.886 317.395C136.34 308.848 136.34 294.942 144.886 286.395C149.026 282.254 154.531 279.974 160.386 279.974C166.241 279.974 171.745 282.254 175.886 286.395L244.139 354.648L412.024 186.762C416.164 182.621 421.669 180.342 427.524 180.342C433.378 180.342 438.883 182.622 443.024 186.762C447.165 190.902 449.445 196.407 449.445 202.262C449.445 208.117 447.165 213.621 443.024 217.762L259.638 401.147C255.499 405.287 249.994 407.567 244.138 407.567ZM160.386 280.975C154.798 280.975 149.545 283.151 145.594 287.103C137.438 295.26 137.438 308.531 145.594 316.688L229.346 400.44C233.297 404.391 238.55 406.567 244.138 406.567C249.727 406.567 254.98 404.391 258.931 400.44L442.316 217.055C446.267 213.104 448.444 207.85 448.444 202.263C448.444 196.676 446.267 191.421 442.316 187.47C438.365 183.518 433.111 181.343 427.523 181.343C421.935 181.343 416.681 183.519 412.73 187.47L244.138 356.063L175.178 287.103C171.227 283.151 165.974 280.975 160.386 280.975Z" fill="white"/>
</svg>
