<svg width="16" height="16" viewBox="0 0 16 16" fill="none" xmlns="http://www.w3.org/2000/svg">
<g clip-path="url(#clip0)">
<path d="M14.5937 1.90625H1.40618C1.18971 1.90625 0.987055 1.95947 0.803711 2.04719L7.96868 9.21216L9.57459 7.66881C9.57459 7.66881 9.57471 7.66866 9.57474 7.66859C9.57477 7.66853 9.5749 7.66847 9.5749 7.66847L15.1964 2.04731C15.013 1.95953 14.8102 1.90625 14.5937 1.90625Z" fill="white"/>
<path d="M15.8593 2.71027L10.5692 8.00008L15.8591 13.29C15.9468 13.1066 16.0001 12.904 16.0001 12.6875V3.31252C16.0001 3.09617 15.947 2.89355 15.8593 2.71027Z" fill="white"/>
<path d="M0.140938 2.71002C0.0532188 2.89337 0 3.09602 0 3.31249V12.6875C0 12.9038 0.0531562 13.1065 0.140813 13.2898L5.43091 7.99999L0.140938 2.71002Z" fill="white"/>
<path d="M9.90634 8.66297L8.30021 10.2065C8.20865 10.2981 8.08871 10.3438 7.96881 10.3438C7.8489 10.3438 7.72893 10.2981 7.6374 10.2065L6.09378 8.6629L0.803589 13.9527C0.986964 14.0405 1.18975 14.0938 1.40628 14.0938H14.5938C14.8102 14.0938 15.0129 14.0406 15.1962 13.9529L9.90634 8.66297Z" fill="white"/>
</g>
<defs>
<clipPath id="clip0">
<rect width="16" height="16" fill="white"/>
</clipPath>
</defs>
</svg>
