<svg width="24" height="25" viewBox="0 0 24 25" fill="none" xmlns="http://www.w3.org/2000/svg">
<path d="M21.6774 1.19775H2.32258C1.04516 1.19775 0 2.27558 0 3.59292C0 4.91025 1.04516 5.98808 2.32258 5.98808H21.6774C22.9548 5.98808 24 4.91025 24 3.59292C24 2.27558 22.9548 1.19775 21.6774 1.19775Z" fill="#172116"/>
<path d="M21.6774 9.97998H2.32258C1.04516 9.97998 0 11.0578 0 12.3751C0 13.6925 1.04516 14.7703 2.32258 14.7703H21.6774C22.9548 14.7703 24 13.6925 24 12.3751C24 11.0578 22.9548 9.97998 21.6774 9.97998Z" fill="#172116"/>
<path d="M21.6774 18.7622H2.32258C1.04516 18.7622 0 19.84 0 21.1574C0 22.4747 1.04516 23.5525 2.32258 23.5525H21.6774C22.9548 23.5525 24 22.4747 24 21.1574C24 19.84 22.9548 18.7622 21.6774 18.7622Z" fill="#172116"/>
</svg>
