<svg width="22" height="22" viewBox="0 0 22 22" fill="none" xmlns="http://www.w3.org/2000/svg">
<g filter="url(#filter0_d)">
<path d="M5.33324 17.3924L5.33326 17.3929C5.35777 18.1606 6.15014 18.6566 6.85081 18.3501L6.85188 18.3496L8.44062 17.6494L8.44121 17.6491C8.48282 17.6307 8.52949 17.6272 8.57339 17.6392L8.68951 17.2131L8.57215 17.6388C9.34125 17.8508 10.159 17.9621 11.0081 17.9621C15.7472 17.9621 19.4579 14.4792 19.4579 9.76026C19.4579 5.04135 15.7472 1.55837 11.0081 1.55837C6.26912 1.55837 2.55837 5.04136 2.55837 9.7603C2.55837 12.2182 3.56892 14.3531 5.22036 15.8291C5.26511 15.8697 5.28766 15.9206 5.28977 15.9712C5.28979 15.9715 5.2898 15.9718 5.28981 15.9721L5.33324 17.3924Z" fill="url(#paint0_linear)" stroke="white" stroke-width="0.883252"/>
<path fill-rule="evenodd" clip-rule="evenodd" d="M6.20034 12.03L8.55282 8.30203C8.92664 7.70967 9.72905 7.56156 10.2898 7.9817L12.1605 9.38373C12.2441 9.44619 12.3457 9.4798 12.45 9.47951C12.5543 9.47923 12.6557 9.44505 12.739 9.38213L15.2655 7.46658C15.6022 7.21068 16.0438 7.61473 15.8165 7.97205L13.4657 11.6984C13.0918 12.2908 12.2894 12.4389 11.7287 12.0188L9.85798 10.6167C9.77441 10.5543 9.67281 10.5207 9.56848 10.521C9.46415 10.5213 9.36274 10.5554 9.27952 10.6183L6.75138 12.5355C6.41464 12.7914 5.97311 12.3874 6.20034 12.03Z" fill="white"/>
</g>
<defs>
<filter id="filter0_d" x="0.116699" y="0.116699" width="21.7828" height="21.7672" filterUnits="userSpaceOnUse" color-interpolation-filters="sRGB">
<feFlood flood-opacity="0" result="BackgroundImageFix"/>
<feColorMatrix in="SourceAlpha" type="matrix" values="0 0 0 0 0 0 0 0 0 0 0 0 0 0 0 0 0 0 127 0"/>
<feOffset dy="1"/>
<feGaussianBlur stdDeviation="1"/>
<feColorMatrix type="matrix" values="0 0 0 0 0 0 0 0 0 0 0 0 0 0 0 0 0 0 0.25 0"/>
<feBlend mode="normal" in2="BackgroundImageFix" result="effect1_dropShadow"/>
<feBlend mode="normal" in="SourceGraphic" in2="effect1_dropShadow" result="shape"/>
</filter>
<linearGradient id="paint0_linear" x1="11.0081" y1="2" x2="11.0081" y2="18.0002" gradientUnits="userSpaceOnUse">
<stop stop-color="#00B2FF"/>
<stop offset="1" stop-color="#006AFF"/>
</linearGradient>
</defs>
</svg>
