<svg width="83" height="19" viewBox="0 0 83 19" fill="none" xmlns="http://www.w3.org/2000/svg">
<rect width="83" height="19" rx="9.5" fill="white"/>
<path d="M22.088 13.228H22.476V16H22.088V14.72H20.732V16H20.344V13.228H20.732V14.384H22.088V13.228ZM23.8443 15.732C23.9323 15.732 24.0096 15.7307 24.0763 15.728C24.1456 15.7227 24.203 15.7147 24.2483 15.704V15.084C24.2216 15.0707 24.1776 15.06 24.1163 15.052C24.0576 15.0413 23.9856 15.036 23.9003 15.036C23.8443 15.036 23.7843 15.04 23.7203 15.048C23.659 15.056 23.6016 15.0733 23.5483 15.1C23.4976 15.124 23.455 15.1587 23.4203 15.204C23.3856 15.2467 23.3683 15.304 23.3683 15.376C23.3683 15.5093 23.411 15.6027 23.4963 15.656C23.5816 15.7067 23.6976 15.732 23.8443 15.732ZM23.8123 13.868C23.9616 13.868 24.087 13.888 24.1883 13.928C24.2923 13.9653 24.375 14.02 24.4363 14.092C24.5003 14.1613 24.5456 14.2453 24.5723 14.344C24.599 14.44 24.6123 14.5467 24.6123 14.664V15.964C24.5803 15.9693 24.535 15.9773 24.4763 15.988C24.4203 15.996 24.3563 16.004 24.2843 16.012C24.2123 16.02 24.1336 16.0267 24.0483 16.032C23.9656 16.04 23.883 16.044 23.8003 16.044C23.683 16.044 23.575 16.032 23.4763 16.008C23.3776 15.984 23.2923 15.9467 23.2203 15.896C23.1483 15.8427 23.0923 15.7733 23.0523 15.688C23.0123 15.6027 22.9923 15.5 22.9923 15.38C22.9923 15.2653 23.015 15.1667 23.0603 15.084C23.1083 15.0013 23.1723 14.9347 23.2523 14.884C23.3323 14.8333 23.4256 14.796 23.5323 14.772C23.639 14.748 23.751 14.736 23.8683 14.736C23.9056 14.736 23.9443 14.7387 23.9843 14.744C24.0243 14.7467 24.0616 14.752 24.0963 14.76C24.1336 14.7653 24.1656 14.7707 24.1923 14.776C24.219 14.7813 24.2376 14.7853 24.2483 14.788V14.684C24.2483 14.6227 24.2416 14.5627 24.2283 14.504C24.215 14.4427 24.191 14.3893 24.1563 14.344C24.1216 14.296 24.0736 14.2587 24.0123 14.232C23.9536 14.2027 23.8763 14.188 23.7803 14.188C23.6576 14.188 23.5496 14.1973 23.4563 14.216C23.3656 14.232 23.2976 14.2493 23.2523 14.268L23.2083 13.96C23.2563 13.9387 23.3363 13.9187 23.4483 13.9C23.5603 13.8787 23.6816 13.868 23.8123 13.868ZM27.7942 13.92C27.7408 13.9867 27.6808 14.06 27.6142 14.14C27.5475 14.2173 27.4782 14.2987 27.4062 14.384C27.3342 14.4667 27.2608 14.5493 27.1862 14.632C27.1142 14.7147 27.0448 14.7933 26.9782 14.868C27.0582 14.9453 27.1408 15.0293 27.2262 15.12C27.3115 15.2107 27.3942 15.3053 27.4742 15.404C27.5568 15.5 27.6355 15.6 27.7102 15.704C27.7848 15.8053 27.8502 15.904 27.9062 16H27.4902C27.4342 15.912 27.3688 15.82 27.2942 15.724C27.2222 15.6253 27.1462 15.5307 27.0662 15.44C26.9888 15.3493 26.9102 15.2653 26.8302 15.188C26.7528 15.108 26.6808 15.0427 26.6142 14.992V16H26.2582V14.992C26.1915 15.0427 26.1182 15.108 26.0382 15.188C25.9608 15.2653 25.8822 15.3493 25.8022 15.44C25.7248 15.5307 25.6488 15.6253 25.5742 15.724C25.5022 15.82 25.4382 15.912 25.3822 16H24.9702C25.0262 15.904 25.0902 15.8053 25.1622 15.704C25.2368 15.6027 25.3142 15.504 25.3942 15.408C25.4768 15.3093 25.5608 15.2147 25.6462 15.124C25.7315 15.0333 25.8142 14.9493 25.8942 14.872C25.8275 14.7973 25.7568 14.7187 25.6822 14.636C25.6102 14.5533 25.5382 14.4707 25.4662 14.388C25.3942 14.3027 25.3248 14.2213 25.2582 14.144C25.1915 14.064 25.1302 13.9893 25.0742 13.92H25.4862C25.5822 14.04 25.6928 14.1733 25.8182 14.32C25.9435 14.4667 26.0902 14.636 26.2582 14.828V13.92H26.6142V14.828C26.7822 14.636 26.9288 14.4667 27.0542 14.32C27.1795 14.1733 27.2902 14.04 27.3862 13.92H27.7942ZM28.6769 14.468C28.6503 14.732 28.6303 14.996 28.6169 15.26C28.6036 15.5213 28.5929 15.768 28.5849 16H28.2289C28.2343 15.8373 28.2423 15.668 28.2529 15.492C28.2636 15.3133 28.2756 15.1347 28.2889 14.956C28.3023 14.7747 28.3169 14.5973 28.3329 14.424C28.3489 14.248 28.3663 14.08 28.3849 13.92H28.7249C28.8103 14.0587 28.9103 14.2493 29.0249 14.492C29.1396 14.732 29.2716 15.0093 29.4209 15.324C29.5703 15.0093 29.7023 14.732 29.8169 14.492C29.9316 14.2493 30.0316 14.0587 30.1169 13.92H30.4609C30.4796 14.08 30.4969 14.248 30.5129 14.424C30.5289 14.5973 30.5436 14.7747 30.5569 14.956C30.5703 15.1347 30.5823 15.3133 30.5929 15.492C30.6036 15.668 30.6116 15.8373 30.6169 16H30.2489C30.2409 15.768 30.2303 15.5213 30.2169 15.26C30.2036 14.996 30.1836 14.732 30.1569 14.468C30.1143 14.5507 30.0649 14.6507 30.0089 14.768C29.9529 14.8827 29.8969 15 29.8409 15.12C29.7876 15.24 29.7369 15.3547 29.6889 15.464C29.6409 15.5733 29.6036 15.66 29.5769 15.724H29.2649C29.2356 15.6573 29.1956 15.5693 29.1449 15.46C29.0969 15.3507 29.0449 15.236 28.9889 15.116C28.9356 14.9933 28.8809 14.8747 28.8249 14.76C28.7689 14.6427 28.7196 14.5453 28.6769 14.468ZM32.9547 13.92V16H32.5947V14.416C32.5147 14.5173 32.4267 14.636 32.3307 14.772C32.2347 14.908 32.1387 15.0493 32.0427 15.196C31.9467 15.34 31.8547 15.4827 31.7667 15.624C31.6787 15.7653 31.6027 15.8907 31.5387 16H31.2067V13.92H31.5667V15.416C31.6361 15.3013 31.7147 15.176 31.8027 15.04C31.8907 14.9013 31.9814 14.7653 32.0747 14.632C32.1707 14.496 32.2654 14.3667 32.3587 14.244C32.4547 14.1187 32.5441 14.0107 32.6267 13.92H32.9547ZM35.0614 13.92V14.232H34.3854V16H34.0134V14.232H33.3374V13.92H35.0614ZM35.329 14.964C35.329 14.78 35.3557 14.62 35.409 14.484C35.4623 14.3453 35.533 14.2307 35.621 14.14C35.709 14.0493 35.8103 13.9813 35.925 13.936C36.0397 13.8907 36.157 13.868 36.277 13.868C36.557 13.868 36.7717 13.956 36.921 14.132C37.0703 14.3053 37.145 14.5707 37.145 14.928C37.145 14.944 37.145 14.9653 37.145 14.992C37.145 15.016 37.1437 15.0387 37.141 15.06H35.717C35.733 15.276 35.7957 15.44 35.905 15.552C36.0143 15.664 36.185 15.72 36.417 15.72C36.5477 15.72 36.657 15.7093 36.745 15.688C36.8357 15.664 36.9037 15.6413 36.949 15.62L37.001 15.932C36.9557 15.956 36.8757 15.9813 36.761 16.008C36.649 16.0347 36.521 16.048 36.377 16.048C36.1957 16.048 36.0383 16.0213 35.905 15.968C35.7743 15.912 35.6663 15.836 35.581 15.74C35.4957 15.644 35.4317 15.5307 35.389 15.4C35.349 15.2667 35.329 15.1213 35.329 14.964ZM36.757 14.76C36.7597 14.592 36.717 14.4547 36.629 14.348C36.5437 14.2387 36.425 14.184 36.273 14.184C36.1877 14.184 36.1117 14.2013 36.045 14.236C35.981 14.268 35.9263 14.3107 35.881 14.364C35.8357 14.4173 35.7997 14.4787 35.773 14.548C35.749 14.6173 35.733 14.688 35.725 14.76H36.757ZM38.0245 15.544C38.0272 15.5653 38.0285 15.5867 38.0285 15.608C38.0285 15.6267 38.0285 15.6467 38.0285 15.668C38.0285 15.836 38.0032 16.0013 37.9525 16.164C37.9045 16.3293 37.8378 16.4867 37.7525 16.636L37.4645 16.544C37.5312 16.408 37.5752 16.2693 37.5965 16.128C37.6178 15.9893 37.6285 15.8587 37.6285 15.736C37.6285 15.7013 37.6272 15.668 37.6245 15.636C37.6245 15.604 37.6232 15.5733 37.6205 15.544H38.0245ZM39.7787 13.92V14.532C39.7787 14.6893 39.8187 14.8 39.8987 14.864C39.9787 14.9253 40.088 14.956 40.2267 14.956C40.328 14.956 40.412 14.9507 40.4787 14.94C40.548 14.9293 40.6093 14.9173 40.6627 14.904V13.92H41.0347V16H40.6627V15.192C40.6413 15.1973 40.6133 15.204 40.5787 15.212C40.544 15.22 40.504 15.228 40.4587 15.236C40.416 15.2413 40.3707 15.2467 40.3227 15.252C40.2747 15.2573 40.228 15.26 40.1827 15.26C40.068 15.26 39.9627 15.248 39.8667 15.224C39.7733 15.2 39.692 15.16 39.6227 15.104C39.556 15.048 39.5027 14.9747 39.4627 14.884C39.4253 14.7907 39.4067 14.6747 39.4067 14.536V13.92H39.7787ZM43.1435 13.92V14.232H42.4675V16H42.0955V14.232H41.4195V13.92H43.1435ZM45.363 14.96C45.363 15.1253 45.339 15.2747 45.291 15.408C45.243 15.5413 45.175 15.656 45.087 15.752C45.0017 15.848 44.899 15.9227 44.779 15.976C44.659 16.0267 44.5284 16.052 44.387 16.052C44.2457 16.052 44.115 16.0267 43.995 15.976C43.875 15.9227 43.771 15.848 43.683 15.752C43.5977 15.656 43.531 15.5413 43.483 15.408C43.435 15.2747 43.411 15.1253 43.411 14.96C43.411 14.7973 43.435 14.6493 43.483 14.516C43.531 14.38 43.5977 14.264 43.683 14.168C43.771 14.072 43.875 13.9987 43.995 13.948C44.115 13.8947 44.2457 13.868 44.387 13.868C44.5284 13.868 44.659 13.8947 44.779 13.948C44.899 13.9987 45.0017 14.072 45.087 14.168C45.175 14.264 45.243 14.38 45.291 14.516C45.339 14.6493 45.363 14.7973 45.363 14.96ZM44.975 14.96C44.975 14.7253 44.9217 14.54 44.815 14.404C44.711 14.2653 44.5684 14.196 44.387 14.196C44.2057 14.196 44.0617 14.2653 43.955 14.404C43.851 14.54 43.799 14.7253 43.799 14.96C43.799 15.1947 43.851 15.3813 43.955 15.52C44.0617 15.656 44.2057 15.724 44.387 15.724C44.5684 15.724 44.711 15.656 44.815 15.52C44.9217 15.3813 44.975 15.1947 44.975 14.96ZM46.2224 14.16C46.3051 14.0933 46.4011 14.0427 46.5104 14.008C46.6224 13.9707 46.7291 13.952 46.8304 13.952C47.1291 13.952 47.3544 14.044 47.5064 14.228C47.6611 14.4093 47.7384 14.6627 47.7384 14.988C47.7384 15.1267 47.7197 15.26 47.6824 15.388C47.6451 15.516 47.5864 15.6293 47.5064 15.728C47.4291 15.8267 47.3304 15.9053 47.2104 15.964C47.0904 16.0227 46.9477 16.052 46.7824 16.052C46.5931 16.052 46.4357 16.0173 46.3104 15.948C46.1851 15.8787 46.0851 15.784 46.0104 15.664C45.9384 15.544 45.8877 15.404 45.8584 15.244C45.8291 15.084 45.8144 14.9147 45.8144 14.736C45.8144 14.504 45.8304 14.288 45.8624 14.088C45.8971 13.888 45.9584 13.712 46.0464 13.56C46.1344 13.408 46.2557 13.2827 46.4104 13.184C46.5677 13.0827 46.7691 13.0147 47.0144 12.98C47.0864 12.9693 47.1491 12.9613 47.2024 12.956C47.2584 12.948 47.3064 12.9413 47.3464 12.936C47.3891 12.9307 47.4277 12.9253 47.4624 12.92C47.4971 12.912 47.5331 12.904 47.5704 12.896L47.6104 13.232C47.5917 13.2373 47.5717 13.2413 47.5504 13.244C47.5317 13.2467 47.5037 13.2507 47.4664 13.256C47.4317 13.2613 47.3837 13.268 47.3224 13.276C47.2637 13.284 47.1864 13.2933 47.0904 13.304C46.8264 13.3333 46.6237 13.4133 46.4824 13.544C46.3411 13.6747 46.2544 13.88 46.2224 14.16ZM46.1984 14.796C46.1984 14.9213 46.2064 15.04 46.2224 15.152C46.2411 15.264 46.2717 15.3627 46.3144 15.448C46.3597 15.5333 46.4197 15.6013 46.4944 15.652C46.5691 15.7 46.6651 15.724 46.7824 15.724C46.8837 15.724 46.9704 15.7053 47.0424 15.668C47.1144 15.628 47.1731 15.5747 47.2184 15.508C47.2637 15.4413 47.2971 15.364 47.3184 15.276C47.3397 15.1853 47.3504 15.0893 47.3504 14.988C47.3504 14.8973 47.3411 14.8093 47.3224 14.724C47.3064 14.6387 47.2757 14.5627 47.2304 14.496C47.1851 14.4293 47.1237 14.376 47.0464 14.336C46.9717 14.296 46.8771 14.276 46.7624 14.276C46.6504 14.276 46.5424 14.3 46.4384 14.348C46.3371 14.396 46.2584 14.4547 46.2024 14.524C46.1997 14.5533 46.1984 14.5947 46.1984 14.648C46.1984 14.7013 46.1984 14.7507 46.1984 14.796ZM49.0293 14.972C48.9573 14.972 48.8866 14.9747 48.8173 14.98C48.7506 14.9827 48.6906 14.9907 48.6373 15.004V15.72C48.6533 15.7227 48.676 15.7253 48.7053 15.728C48.7373 15.7307 48.7706 15.7333 48.8053 15.736C48.8426 15.736 48.88 15.7373 48.9173 15.74C48.9546 15.74 48.988 15.74 49.0173 15.74C49.18 15.74 49.3053 15.7093 49.3933 15.648C49.4813 15.5867 49.5253 15.488 49.5253 15.352C49.5253 15.2853 49.5106 15.228 49.4813 15.18C49.4546 15.132 49.4173 15.0933 49.3693 15.064C49.324 15.032 49.272 15.0093 49.2133 14.996C49.1546 14.98 49.0933 14.972 49.0293 14.972ZM48.2653 13.92H48.6373V14.716C48.6826 14.7053 48.748 14.6947 48.8333 14.684C48.9213 14.6733 49.0053 14.668 49.0853 14.668C49.1946 14.668 49.2986 14.6813 49.3973 14.708C49.496 14.732 49.5826 14.772 49.6573 14.828C49.732 14.8813 49.7906 14.952 49.8333 15.04C49.8786 15.1253 49.9013 15.228 49.9013 15.348C49.9013 15.4733 49.88 15.58 49.8373 15.668C49.7946 15.756 49.7346 15.828 49.6573 15.884C49.58 15.94 49.4866 15.98 49.3773 16.004C49.268 16.0307 49.148 16.044 49.0173 16.044C48.892 16.044 48.7653 16.036 48.6373 16.02C48.5093 16.0067 48.3853 15.9853 48.2653 15.956V13.92ZM50.6573 16H50.2853V13.92H50.6573V16ZM53.9263 16H53.5543V15.08H52.5943V16H52.2223V13.92H52.5943V14.768H53.5543V13.92H53.9263V16ZM55.2701 15.732C55.3581 15.732 55.4354 15.7307 55.5021 15.728C55.5714 15.7227 55.6288 15.7147 55.6741 15.704V15.084C55.6474 15.0707 55.6034 15.06 55.5421 15.052C55.4834 15.0413 55.4114 15.036 55.3261 15.036C55.2701 15.036 55.2101 15.04 55.1461 15.048C55.0848 15.056 55.0274 15.0733 54.9741 15.1C54.9234 15.124 54.8808 15.1587 54.8461 15.204C54.8114 15.2467 54.7941 15.304 54.7941 15.376C54.7941 15.5093 54.8368 15.6027 54.9221 15.656C55.0074 15.7067 55.1234 15.732 55.2701 15.732ZM55.2381 13.868C55.3874 13.868 55.5128 13.888 55.6141 13.928C55.7181 13.9653 55.8008 14.02 55.8621 14.092C55.9261 14.1613 55.9714 14.2453 55.9981 14.344C56.0248 14.44 56.0381 14.5467 56.0381 14.664V15.964C56.0061 15.9693 55.9608 15.9773 55.9021 15.988C55.8461 15.996 55.7821 16.004 55.7101 16.012C55.6381 16.02 55.5594 16.0267 55.4741 16.032C55.3914 16.04 55.3088 16.044 55.2261 16.044C55.1088 16.044 55.0008 16.032 54.9021 16.008C54.8034 15.984 54.7181 15.9467 54.6461 15.896C54.5741 15.8427 54.5181 15.7733 54.4781 15.688C54.4381 15.6027 54.4181 15.5 54.4181 15.38C54.4181 15.2653 54.4408 15.1667 54.4861 15.084C54.5341 15.0013 54.5981 14.9347 54.6781 14.884C54.7581 14.8333 54.8514 14.796 54.9581 14.772C55.0648 14.748 55.1768 14.736 55.2941 14.736C55.3314 14.736 55.3701 14.7387 55.4101 14.744C55.4501 14.7467 55.4874 14.752 55.5221 14.76C55.5594 14.7653 55.5914 14.7707 55.6181 14.776C55.6448 14.7813 55.6634 14.7853 55.6741 14.788V14.684C55.6741 14.6227 55.6674 14.5627 55.6541 14.504C55.6408 14.4427 55.6168 14.3893 55.5821 14.344C55.5474 14.296 55.4994 14.2587 55.4381 14.232C55.3794 14.2027 55.3021 14.188 55.2061 14.188C55.0834 14.188 54.9754 14.1973 54.8821 14.216C54.7914 14.232 54.7234 14.2493 54.6781 14.268L54.6341 13.96C54.6821 13.9387 54.7621 13.9187 54.8741 13.9C54.9861 13.8787 55.1074 13.868 55.2381 13.868ZM58.3279 16H57.9559V14.232H57.0279V16H56.6559V13.92H58.3279V16ZM60.7164 13.92V16H60.3564V14.416C60.2764 14.5173 60.1884 14.636 60.0924 14.772C59.9964 14.908 59.9004 15.0493 59.8044 15.196C59.7084 15.34 59.6164 15.4827 59.5284 15.624C59.4404 15.7653 59.3644 15.8907 59.3004 16H58.9684V13.92H59.3284V15.416C59.3978 15.3013 59.4764 15.176 59.5644 15.04C59.6524 14.9013 59.7431 14.7653 59.8364 14.632C59.9324 14.496 60.0271 14.3667 60.1204 14.244C60.2164 14.1187 60.3058 14.0107 60.3884 13.92H60.7164ZM62.2592 16.048C62.0912 16.048 61.9432 16.0213 61.8152 15.968C61.6898 15.9147 61.5832 15.84 61.4952 15.744C61.4098 15.648 61.3458 15.5347 61.3032 15.404C61.2605 15.2707 61.2392 15.124 61.2392 14.964C61.2392 14.804 61.2618 14.6573 61.3072 14.524C61.3552 14.3907 61.4218 14.276 61.5072 14.18C61.5925 14.0813 61.6965 14.0053 61.8192 13.952C61.9445 13.896 62.0832 13.868 62.2352 13.868C62.3285 13.868 62.4218 13.876 62.5152 13.892C62.6085 13.908 62.6978 13.9333 62.7832 13.968L62.6992 14.284C62.6432 14.2573 62.5778 14.236 62.5032 14.22C62.4312 14.204 62.3538 14.196 62.2712 14.196C62.0632 14.196 61.9032 14.2613 61.7912 14.392C61.6818 14.5227 61.6272 14.7133 61.6272 14.964C61.6272 15.076 61.6392 15.1787 61.6632 15.272C61.6898 15.3653 61.7298 15.4453 61.7832 15.512C61.8392 15.5787 61.9098 15.6307 61.9952 15.668C62.0805 15.7027 62.1845 15.72 62.3072 15.72C62.4058 15.72 62.4952 15.7107 62.5752 15.692C62.6552 15.6733 62.7178 15.6533 62.7632 15.632L62.8152 15.944C62.7938 15.9573 62.7632 15.9707 62.7232 15.984C62.6832 15.9947 62.6378 16.004 62.5872 16.012C62.5365 16.0227 62.4818 16.0307 62.4232 16.036C62.3672 16.044 62.3125 16.048 62.2592 16.048ZM63.9185 15.732C64.0065 15.732 64.0839 15.7307 64.1505 15.728C64.2199 15.7227 64.2772 15.7147 64.3225 15.704V15.084C64.2959 15.0707 64.2519 15.06 64.1905 15.052C64.1319 15.0413 64.0599 15.036 63.9745 15.036C63.9185 15.036 63.8585 15.04 63.7945 15.048C63.7332 15.056 63.6759 15.0733 63.6225 15.1C63.5719 15.124 63.5292 15.1587 63.4945 15.204C63.4599 15.2467 63.4425 15.304 63.4425 15.376C63.4425 15.5093 63.4852 15.6027 63.5705 15.656C63.6559 15.7067 63.7719 15.732 63.9185 15.732ZM63.8865 13.868C64.0359 13.868 64.1612 13.888 64.2625 13.928C64.3665 13.9653 64.4492 14.02 64.5105 14.092C64.5745 14.1613 64.6199 14.2453 64.6465 14.344C64.6732 14.44 64.6865 14.5467 64.6865 14.664V15.964C64.6545 15.9693 64.6092 15.9773 64.5505 15.988C64.4945 15.996 64.4305 16.004 64.3585 16.012C64.2865 16.02 64.2079 16.0267 64.1225 16.032C64.0399 16.04 63.9572 16.044 63.8745 16.044C63.7572 16.044 63.6492 16.032 63.5505 16.008C63.4519 15.984 63.3665 15.9467 63.2945 15.896C63.2225 15.8427 63.1665 15.7733 63.1265 15.688C63.0865 15.6027 63.0665 15.5 63.0665 15.38C63.0665 15.2653 63.0892 15.1667 63.1345 15.084C63.1825 15.0013 63.2465 14.9347 63.3265 14.884C63.4065 14.8333 63.4999 14.796 63.6065 14.772C63.7132 14.748 63.8252 14.736 63.9425 14.736C63.9799 14.736 64.0185 14.7387 64.0585 14.744C64.0985 14.7467 64.1359 14.752 64.1705 14.76C64.2079 14.7653 64.2399 14.7707 64.2665 14.776C64.2932 14.7813 64.3119 14.7853 64.3225 14.788V14.684C64.3225 14.6227 64.3159 14.5627 64.3025 14.504C64.2892 14.4427 64.2652 14.3893 64.2305 14.344C64.1959 14.296 64.1479 14.2587 64.0865 14.232C64.0279 14.2027 63.9505 14.188 63.8545 14.188C63.7319 14.188 63.6239 14.1973 63.5305 14.216C63.4399 14.232 63.3719 14.2493 63.3265 14.268L63.2825 13.96C63.3305 13.9387 63.4105 13.9187 63.5225 13.9C63.6345 13.8787 63.7559 13.868 63.8865 13.868ZM66.7724 13.92V14.232H66.0964V16H65.7244V14.232H65.0484V13.92H66.7724ZM67.9439 15.74C68.1013 15.74 68.2253 15.7093 68.3159 15.648C68.4066 15.5867 68.4519 15.488 68.4519 15.352C68.4519 15.2853 68.4386 15.228 68.4119 15.18C68.3853 15.132 68.3479 15.0933 68.2999 15.064C68.2546 15.032 68.2013 15.0093 68.1399 14.996C68.0786 14.98 68.0133 14.972 67.9439 14.972C67.8719 14.972 67.7973 14.9747 67.7199 14.98C67.6453 14.9827 67.5813 14.9907 67.5279 15.004V15.72C67.5439 15.7227 67.5679 15.7253 67.5999 15.728C67.6319 15.7307 67.6666 15.7333 67.7039 15.736C67.7439 15.736 67.7839 15.7373 67.8239 15.74C67.8666 15.74 67.9066 15.74 67.9439 15.74ZM67.1559 15.956V13.92H67.5279V14.716C67.5493 14.7107 67.5773 14.7053 67.6119 14.7C67.6493 14.6947 67.6879 14.6893 67.7279 14.684C67.7706 14.6787 67.8146 14.6747 67.8599 14.672C67.9053 14.6693 67.9479 14.668 67.9879 14.668C68.1026 14.668 68.2106 14.6813 68.3119 14.708C68.4133 14.732 68.5013 14.772 68.5759 14.828C68.6533 14.8813 68.7146 14.952 68.7599 15.04C68.8053 15.1253 68.8279 15.228 68.8279 15.348C68.8279 15.4733 68.8066 15.58 68.7639 15.668C68.7213 15.756 68.6599 15.828 68.5799 15.884C68.4999 15.94 68.4039 15.98 68.2919 16.004C68.1826 16.0307 68.0599 16.044 67.9239 16.044C67.7906 16.044 67.6599 16.036 67.5319 16.02C67.4039 16.0067 67.2786 15.9853 67.1559 15.956Z" fill="#007AFF"/>
<path d="M22.6055 2.73264L24.4722 8.00347L26.329 2.73264H28.2956V10H26.7932V8.01345L26.9429 4.58442L24.9813 10H23.9531L21.9965 4.58941L22.1463 8.01345V10H20.6489V2.73264H22.6055ZM31.9941 10.0998C31.2022 10.0998 30.5566 9.85692 30.0575 9.37109C29.5617 8.88527 29.3138 8.23806 29.3138 7.42947V7.28971C29.3138 6.74732 29.4186 6.26317 29.6283 5.83724C29.8379 5.40799 30.134 5.07856 30.5167 4.84896C30.9027 4.61603 31.3419 4.49957 31.8344 4.49957C32.5731 4.49957 33.1538 4.73249 33.5764 5.19835C34.0023 5.66421 34.2153 6.32473 34.2153 7.1799V7.76888H30.7763C30.8228 8.1216 30.9626 8.40444 31.1955 8.6174C31.4318 8.83037 31.7296 8.93685 32.089 8.93685C32.6447 8.93685 33.0789 8.73553 33.3917 8.3329L34.1005 9.12652C33.8842 9.43265 33.5914 9.67224 33.222 9.84527C32.8526 10.015 32.4434 10.0998 31.9941 10.0998ZM31.8294 5.66753C31.5433 5.66753 31.3103 5.76403 31.1306 5.95703C30.9543 6.15003 30.8411 6.42622 30.7912 6.78559H32.7977V6.67079C32.7911 6.35135 32.7046 6.10511 32.5382 5.93207C32.3718 5.75571 32.1356 5.66753 31.8294 5.66753ZM37.9638 8.5076C37.9638 8.33124 37.8756 8.19314 37.6992 8.09332C37.5262 7.99016 37.2467 7.89865 36.8607 7.81879C35.5762 7.54926 34.934 7.00354 34.934 6.18164C34.934 5.70247 35.132 5.30317 35.528 4.98372C35.9273 4.66095 36.4481 4.49957 37.0903 4.49957C37.7758 4.49957 38.3231 4.66095 38.7324 4.98372C39.145 5.3065 39.3513 5.72577 39.3513 6.24154H37.9089C37.9089 6.03523 37.8423 5.86552 37.7092 5.73242C37.5761 5.59599 37.3681 5.52778 37.0853 5.52778C36.8424 5.52778 36.6544 5.58268 36.5213 5.69249C36.3882 5.8023 36.3216 5.94206 36.3216 6.11176C36.3216 6.27148 36.3965 6.40126 36.5462 6.50109C36.6993 6.59758 36.9555 6.68244 37.3149 6.75564C37.6743 6.82552 37.9771 6.90538 38.2233 6.99523C38.9853 7.27474 39.3663 7.7589 39.3663 8.4477C39.3663 8.94018 39.155 9.33948 38.7324 9.64562C38.3098 9.94842 37.7641 10.0998 37.0953 10.0998C36.6427 10.0998 36.2401 10.02 35.8874 9.86024C35.538 9.69719 35.2635 9.47591 35.0638 9.1964C34.8641 8.91356 34.7643 8.60909 34.7643 8.28299H36.1319C36.1453 8.53921 36.2401 8.73553 36.4164 8.87196C36.5928 9.00839 36.8291 9.07661 37.1252 9.07661C37.4014 9.07661 37.6094 9.02503 37.7491 8.92187C37.8922 8.81539 37.9638 8.6773 37.9638 8.5076ZM43.2246 8.5076C43.2246 8.33124 43.1364 8.19314 42.9601 8.09332C42.787 7.99016 42.5075 7.89865 42.1215 7.81879C40.8371 7.54926 40.1949 7.00354 40.1949 6.18164C40.1949 5.70247 40.3929 5.30317 40.7888 4.98372C41.1882 4.66095 41.7089 4.49957 42.3511 4.49957C43.0366 4.49957 43.584 4.66095 43.9933 4.98372C44.4059 5.3065 44.6122 5.72577 44.6122 6.24154H43.1697C43.1697 6.03523 43.1032 5.86552 42.9701 5.73242C42.8369 5.59599 42.629 5.52778 42.3461 5.52778C42.1032 5.52778 41.9152 5.58268 41.7821 5.69249C41.649 5.8023 41.5825 5.94206 41.5825 6.11176C41.5825 6.27148 41.6573 6.40126 41.8071 6.50109C41.9601 6.59758 42.2164 6.68244 42.5757 6.75564C42.9351 6.82552 43.2379 6.90538 43.4842 6.99523C44.2462 7.27474 44.6272 7.7589 44.6272 8.4477C44.6272 8.94018 44.4159 9.33948 43.9933 9.64562C43.5707 9.94842 43.025 10.0998 42.3561 10.0998C41.9036 10.0998 41.5009 10.02 41.1482 9.86024C40.7988 9.69719 40.5243 9.47591 40.3247 9.1964C40.125 8.91356 40.0252 8.60909 40.0252 8.28299H41.3928C41.4061 8.53921 41.5009 8.73553 41.6773 8.87196C41.8537 9.00839 42.0899 9.07661 42.3861 9.07661C42.6623 9.07661 42.8702 9.02503 43.01 8.92187C43.1531 8.81539 43.2246 8.6773 43.2246 8.5076ZM48.0462 10.0998C47.2543 10.0998 46.6087 9.85692 46.1096 9.37109C45.6138 8.88527 45.3659 8.23806 45.3659 7.42947V7.28971C45.3659 6.74732 45.4707 6.26317 45.6803 5.83724C45.89 5.40799 46.1861 5.07856 46.5688 4.84896C46.9548 4.61603 47.394 4.49957 47.8865 4.49957C48.6252 4.49957 49.2059 4.73249 49.6285 5.19835C50.0544 5.66421 50.2674 6.32473 50.2674 7.1799V7.76888H46.8283C46.8749 8.1216 47.0147 8.40444 47.2476 8.6174C47.4839 8.83037 47.7817 8.93685 48.1411 8.93685C48.6968 8.93685 49.131 8.73553 49.4438 8.3329L50.1526 9.12652C49.9363 9.43265 49.6434 9.67224 49.2741 9.84527C48.9047 10.015 48.4954 10.0998 48.0462 10.0998ZM47.8815 5.66753C47.5953 5.66753 47.3624 5.76403 47.1827 5.95703C47.0064 6.15003 46.8932 6.42622 46.8433 6.78559H48.8498V6.67079C48.8432 6.35135 48.7567 6.10511 48.5903 5.93207C48.4239 5.75571 48.1876 5.66753 47.8815 5.66753ZM52.4186 4.59939L52.4635 5.22331C52.8495 4.74081 53.367 4.49957 54.0158 4.49957C54.5882 4.49957 55.0141 4.66761 55.2936 5.00369C55.5731 5.33977 55.7162 5.84223 55.7229 6.51107V10H54.2804V6.54601C54.2804 6.23987 54.2138 6.01859 54.0807 5.88216C53.9476 5.7424 53.7263 5.67253 53.4169 5.67253C53.0109 5.67253 52.7065 5.84556 52.5035 6.19162V10H51.061V4.59939H52.4186ZM56.6113 7.25977C56.6113 6.43121 56.8077 5.76403 57.2003 5.25825C57.5963 4.75246 58.1287 4.49957 58.7975 4.49957C59.3898 4.49957 59.8507 4.70255 60.1801 5.10851L60.24 4.59939H61.5477V9.82031C61.5477 10.2928 61.4396 10.7038 61.2233 11.0532C61.0103 11.4026 60.7092 11.6688 60.3199 11.8518C59.9306 12.0348 59.4747 12.1263 58.9523 12.1263C58.5563 12.1263 58.1703 12.0464 57.7943 11.8867C57.4183 11.7303 57.1338 11.5273 56.9408 11.2778L57.5796 10.3993C57.939 10.8019 58.3749 11.0033 58.8874 11.0033C59.27 11.0033 59.5679 10.9001 59.7808 10.6938C59.9938 10.4908 60.1003 10.2013 60.1003 9.8253V9.53581C59.7675 9.91182 59.3299 10.0998 58.7875 10.0998C58.1387 10.0998 57.6129 9.84693 57.2103 9.34115C56.811 8.83203 56.6113 8.1582 56.6113 7.31966V7.25977ZM58.0538 7.36458C58.0538 7.85373 58.152 8.23806 58.3483 8.51758C58.5446 8.79376 58.8142 8.93186 59.1569 8.93186C59.5961 8.93186 59.9106 8.76714 60.1003 8.43772V6.16667C59.9073 5.83724 59.5961 5.67253 59.1669 5.67253C58.8208 5.67253 58.548 5.81395 58.3483 6.09679C58.152 6.37963 58.0538 6.80223 58.0538 7.36458ZM65.1465 10.0998C64.3545 10.0998 63.709 9.85692 63.2099 9.37109C62.7141 8.88527 62.4661 8.23806 62.4661 7.42947V7.28971C62.4661 6.74732 62.571 6.26317 62.7806 5.83724C62.9902 5.40799 63.2864 5.07856 63.6691 4.84896C64.0551 4.61603 64.4943 4.49957 64.9868 4.49957C65.7255 4.49957 66.3061 4.73249 66.7287 5.19835C67.1547 5.66421 67.3676 6.32473 67.3676 7.1799V7.76888H63.9286C63.9752 8.1216 64.1149 8.40444 64.3479 8.6174C64.5841 8.83037 64.8819 8.93685 65.2413 8.93685C65.797 8.93685 66.2313 8.73553 66.5441 8.3329L67.2528 9.12652C67.0365 9.43265 66.7437 9.67224 66.3744 9.84527C66.005 10.015 65.5957 10.0998 65.1465 10.0998ZM64.9818 5.66753C64.6956 5.66753 64.4627 5.76403 64.283 5.95703C64.1066 6.15003 63.9935 6.42622 63.9436 6.78559H65.9501V6.67079C65.9434 6.35135 65.8569 6.10511 65.6905 5.93207C65.5242 5.75571 65.2879 5.66753 64.9818 5.66753ZM71.2259 5.95204C71.0296 5.92542 70.8566 5.91211 70.7068 5.91211C70.1611 5.91211 69.8034 6.09679 69.6337 6.46615V10H68.1912V4.59939H69.5538L69.5938 5.24327C69.8832 4.74747 70.2842 4.49957 70.7967 4.49957C70.9564 4.49957 71.1061 4.52119 71.2459 4.56445L71.2259 5.95204Z" fill="#222E20"/>
<path d="M3.27207 17.3785L3.27209 17.3792C3.29792 18.1878 4.13256 18.7102 4.87047 18.3873L4.87169 18.3868L6.45881 17.6873L6.45948 17.687C6.48868 17.6741 6.52144 17.6716 6.55225 17.68L6.68372 17.1976L6.55085 17.6796C7.32439 17.8929 8.14662 18.0047 9 18.0047C13.7645 18.0047 17.5 14.5011 17.5 9.75236C17.5 5.00362 13.7645 1.5 9 1.5C4.2355 1.5 0.5 5.00362 0.5 9.7524C0.5 12.2246 1.51663 14.3732 3.17882 15.8589C3.21208 15.8891 3.22716 15.9252 3.22866 15.9591C3.22867 15.9594 3.22869 15.9598 3.2287 15.9601L3.27207 17.3785Z" fill="url(#paint0_linear)" stroke="white"/>
<path fill-rule="evenodd" clip-rule="evenodd" d="M4.19686 12.0197L6.54694 8.29548C6.92038 7.70372 7.72198 7.55576 8.28214 7.97548L10.1509 9.37608C10.2344 9.43848 10.3359 9.47206 10.4401 9.47177C10.5444 9.47148 10.6457 9.43734 10.7288 9.37448L13.2528 7.46088C13.5892 7.20524 14.0303 7.60888 13.8033 7.96584L11.4548 11.6884C11.0813 12.2802 10.2797 12.4282 9.71958 12.0084L7.85078 10.6078C7.76729 10.5454 7.6658 10.5119 7.56157 10.5122C7.45735 10.5124 7.35604 10.5466 7.2729 10.6094L4.74734 12.5246C4.41094 12.7803 3.96986 12.3767 4.19686 12.0197Z" fill="white"/>
<defs>
<linearGradient id="paint0_linear" x1="9" y1="2" x2="9" y2="17.9839" gradientUnits="userSpaceOnUse">
<stop stop-color="#00B2FF"/>
<stop offset="1" stop-color="#006AFF"/>
</linearGradient>
</defs>
</svg>
