<svg width="16" height="16" viewBox="0 0 16 16" fill="none" xmlns="http://www.w3.org/2000/svg">
<path d="M15.6889 12.7226L13.9151 11.54L12.3383 10.4889C12.034 10.2865 11.625 10.3529 11.4004 10.6412L10.4246 11.8956C10.2151 12.1677 9.83803 12.246 9.53747 12.0795C8.87541 11.7113 8.09251 11.3645 6.3651 9.63489C4.63768 7.90525 4.28872 7.12458 3.92044 6.46252C3.75403 6.16196 3.83225 5.78493 4.10444 5.57537L5.35877 4.59967C5.64711 4.37504 5.71351 3.96608 5.51105 3.66174L4.49231 2.13348L3.27742 0.311122C3.07064 0.000938137 2.6567 -0.0921858 2.33702 0.0995307L0.935911 0.940084C0.55726 1.16317 0.278919 1.52342 0.158545 1.94613C-0.224606 3.34309 -0.301855 6.42471 4.63684 11.3634C9.57553 16.3021 12.6569 16.2246 14.0538 15.8414C14.4765 15.7211 14.8368 15.4427 15.0599 15.064L15.9004 13.663C16.0922 13.3433 15.999 12.9294 15.6889 12.7226Z" fill="white"/>
<path d="M9.10274 2.48262C11.6915 2.4855 13.7895 4.58341 13.7923 7.17222C13.7923 7.32456 13.9158 7.44809 14.0682 7.44809C14.2206 7.44809 14.3441 7.3246 14.3441 7.17222C14.3409 4.27885 11.9961 1.9341 9.10278 1.93091C8.95043 1.93091 8.8269 2.05441 8.8269 2.20678C8.82687 2.35909 8.95037 2.48262 9.10274 2.48262Z" fill="white"/>
<path d="M9.10278 4.1378C10.7779 4.13977 12.1352 5.49719 12.1372 7.17224C12.1372 7.32458 12.2607 7.44811 12.4131 7.44811C12.5654 7.44811 12.689 7.32461 12.689 7.17224C12.6867 5.1926 11.0824 3.58834 9.10278 3.58606C8.95043 3.58606 8.8269 3.70956 8.8269 3.86193C8.8269 4.0143 8.9504 4.1378 9.10278 4.1378Z" fill="white"/>
<path d="M9.10274 5.79305C9.86414 5.79395 10.4811 6.41094 10.482 7.17234C10.482 7.32468 10.6055 7.44821 10.7579 7.44821C10.9103 7.44821 11.0338 7.32471 11.0338 7.17234C11.0326 6.10639 10.1687 5.24255 9.10278 5.24133C8.95043 5.24133 8.8269 5.36483 8.8269 5.5172C8.82687 5.66955 8.95037 5.79305 9.10274 5.79305Z" fill="white"/>
</svg>
