<svg width="32" height="32" viewBox="0 0 32 32" fill="none" xmlns="http://www.w3.org/2000/svg">
<g clip-path="url(#clip0)">
<path d="M3.83787 3.31084C3.83922 2.99155 4.09787 2.7329 4.41716 2.73154H30.8957C31.2152 2.7329 31.4737 2.99154 31.475 3.31098C31.475 3.31116 31.475 3.31134 31.475 3.31152V16.5485C31.475 16.5487 31.475 16.5488 31.475 16.549C31.4737 16.8685 31.2152 17.1272 30.8956 17.1285H3.83787V3.31084Z" fill="#09FF7A" stroke="#234840" stroke-width="1.05"/>
<path d="M17.2229 15.596L16.7799 16.039C16.523 15.7505 16.2496 15.4771 15.9611 15.2201L16.4041 14.7771L17.2229 15.596Z" fill="#D1D3D4" stroke="#234840" stroke-width="1.05"/>
<path d="M8.80295 12.1104H9.95966V12.7327C9.57442 12.7098 9.18819 12.7098 8.80295 12.7327V12.1104Z" fill="#D1D3D4" stroke="#234840" stroke-width="1.05"/>
<path d="M2.3584 14.7771L2.78779 15.2065V15.2332C2.50264 15.4845 2.23316 15.7531 1.98094 16.0373L1.53958 15.596L2.3584 14.7771Z" fill="#D1D3D4" stroke="#234840" stroke-width="1.05"/>
<path d="M18.2347 22.6174V22.6189C18.236 26.4976 15.7124 29.9255 12.0084 31.0762L12.0083 31.0762C8.3043 32.2271 4.2824 30.8331 2.08531 27.6369C-0.111805 24.4404 0.0273067 20.186 2.4286 17.1401L2.4286 17.1401L2.43033 17.1379C2.79073 16.6757 3.19951 16.253 3.6493 15.8774L3.66024 15.8683L3.67066 15.8585C3.73649 15.7972 3.8104 15.7366 3.89642 15.6709L3.89647 15.671L3.9039 15.6651C5.18189 14.6511 6.71778 14.0148 8.33801 13.8281L8.34071 13.8277C9.03194 13.7444 9.73053 13.7444 10.4218 13.8277L10.4218 13.8277L10.4245 13.828C12.045 14.0148 13.5808 14.6511 14.8585 15.665L14.8593 15.6657C15.4067 16.0983 15.9017 16.5932 16.3343 17.1406L16.3366 17.1436C16.5371 17.3935 16.7216 17.6554 16.8888 17.9281L16.8888 17.9281L16.8918 17.933C17.7735 19.3361 18.239 20.9603 18.2347 22.6174Z" fill="#FFD422" stroke="#234840" stroke-width="1.05"/>
<path d="M11.063 9.93009V11.0334C11.063 11.0482 11.051 11.0601 11.0363 11.0601H7.72624C7.71152 11.0601 7.69956 11.0482 7.69956 11.0334V9.93009C7.69956 9.91538 7.71152 9.90342 7.72624 9.90342H11.0363C11.051 9.90342 11.063 9.91538 11.063 9.93009Z" fill="#FF5023" stroke="#234840" stroke-width="1.05"/>
<path d="M20.9931 9.93009C20.9931 11.773 19.4994 13.2668 17.6564 13.2668C15.8137 13.2668 14.3197 11.773 14.3197 9.93009C14.3197 8.08717 15.8137 6.59336 17.6564 6.59336C19.4994 6.59336 20.9931 8.08714 20.9931 9.93009Z" fill="#FFD422" stroke="#234840" stroke-width="1.05"/>
<path d="M31.475 1.10498L31.475 1.78844C31.2958 1.72005 31.1014 1.68233 30.8983 1.6817H30.8967H4.41622V1.6817L4.41459 1.68171C4.21147 1.68233 4.01709 1.72007 3.83787 1.78849V1.1043C3.83922 0.785002 4.09787 0.526356 4.41716 0.525H30.8957C31.2152 0.526356 31.4737 0.784996 31.475 1.10444C31.475 1.10462 31.475 1.1048 31.475 1.10498Z" fill="#08FF7A" stroke="#234840" stroke-width="1.05"/>
<path d="M9.79264 23.0211L9.79253 23.021L9.78346 23.0303C9.67847 23.1379 9.53446 23.1982 9.3842 23.1973V23.1973H9.38131C9.06193 23.1973 8.80295 22.9383 8.80295 22.619C8.80295 22.2996 9.06193 22.0406 9.38131 22.0406C9.70068 22.0406 9.95966 22.2996 9.95965 22.619L9.95967 22.6219C9.9605 22.7721 9.90026 22.9161 9.79264 23.0211Z" fill="#FF5023" stroke="#234840" stroke-width="1.05"/>
<path d="M6.64952 6.0682V7.19822H6.59617V5.51652C6.59617 5.50181 6.60813 5.48984 6.62284 5.48984H8.30455V5.5432H7.17452H6.64952V6.0682Z" fill="#00B39D" stroke="#234840" stroke-width="1.05"/>
<path d="M28.1382 5.5432H27.0082V5.48984H28.6899C28.7046 5.48984 28.7165 5.50181 28.7165 5.51652V7.19822H28.6632V6.0682V5.5432H28.1382Z" fill="#00B39D" stroke="#234840" stroke-width="1.05"/>
<path d="M28.6632 13.7917V12.6617H28.7165V14.3434C28.7165 14.3581 28.7046 14.3701 28.6899 14.3701H27.0082V14.3167H28.1382H28.6632V13.7917Z" fill="#00B39D" stroke="#234840" stroke-width="1.05"/>
<path d="M24.2497 9.90342H24.3031V9.95677H24.2497V9.90342Z" fill="#00B39D" stroke="#234840" stroke-width="1.05"/>
<path d="M12.8524 26.1278L10.5113 23.7867L10.5491 23.7489L12.8901 26.0901L12.8524 26.1278Z" fill="#FF5023" stroke="#234840" stroke-width="1.05"/>
<path d="M12.0852 16.5451C15.0654 17.8712 16.6466 21.1814 15.8053 24.3328L15.7545 24.3149C16.5865 21.1914 15.0199 17.9116 12.0673 16.5957L12.0852 16.5451Z" fill="#FFB655" stroke="#234840" stroke-width="1.05"/>
<path d="M9.96778 15.9974L9.95892 16.0501C9.94136 16.0485 9.9238 16.0471 9.90623 16.0457V15.9923C9.92675 15.9939 9.94727 15.9956 9.96778 15.9974Z" fill="#FFB655" stroke="#234840" stroke-width="1.05"/>
<path d="M30.3023 19.8336H30.3557C30.0894 24.3026 26.5122 27.8799 22.0431 28.1462V28.0928C26.4829 27.8271 30.0366 24.2734 30.3023 19.8336Z" fill="#FF9811" stroke="#234840" stroke-width="1.05"/>
<path d="M19.8364 28.1085H19.8898V28.1618H19.8364V28.1085Z" fill="#FF9811" stroke="#234840" stroke-width="1.05"/>
<path d="M9.38122 23.7489C8.75719 23.7489 8.2512 23.2429 8.2512 22.6189C8.2512 21.9949 8.75719 21.4889 9.38122 21.4889C10.0053 21.4889 10.5113 21.9949 10.5113 22.6189C10.5113 23.2429 10.0053 23.7489 9.38122 23.7489ZM9.38122 21.5422C8.78661 21.5422 8.30455 22.0243 8.30455 22.6189C8.30455 23.2135 8.78661 23.6956 9.38122 23.6956C9.97583 23.6956 10.4579 23.2135 10.4579 22.6189C10.4579 22.0243 9.97583 21.5422 9.38122 21.5422Z" fill="#ED1C24" stroke="#234840" stroke-width="1.05"/>
</g>
<defs>
<clipPath id="clip0">
<rect width="32" height="32" fill="white"/>
</clipPath>
</defs>
</svg>
