<svg width="32" height="32" viewBox="0 0 32 32" fill="none" xmlns="http://www.w3.org/2000/svg">
<g clip-path="url(#clip0)">
<path d="M14.2548 23.7257C14.3735 24.2212 14.4355 24.7425 14.4355 25.2741C14.4355 28.9799 11.4316 31.9838 7.72579 31.9838C4.01998 31.9838 1.01611 28.9799 1.01611 25.2741C1.01611 22.0948 3.23031 19.4315 6.19805 18.7399C6.68837 18.6264 7.19934 18.5645 7.72579 18.5645C8.25224 18.5645 8.76321 18.6264 9.25353 18.7399C10.9826 19.1425 12.4587 20.2161 13.3826 21.6716C13.78 22.2909 14.0793 22.9877 14.2548 23.7257Z" fill="#FF826E"/>
<path d="M7.72585 29.9192C10.2913 29.9192 12.371 27.8395 12.371 25.2741C12.371 22.7086 10.2913 20.6289 7.72585 20.6289C5.1604 20.6289 3.08069 22.7086 3.08069 25.2741C3.08069 27.8395 5.1604 29.9192 7.72585 29.9192Z" fill="#E6E9ED"/>
<path d="M31.9839 7.20947V22.6933C31.9839 23.2611 31.5194 23.7256 30.9517 23.7256H14.2549C14.0794 22.9875 13.78 22.2908 13.3826 21.6714L13.4033 21.6611H19.5968H28.8871V9.27399H19.5968H10.3065V14.4353H7.20972V7.20947H31.9839Z" fill="#FF9811"/>
<path d="M31.9839 4.11282V7.2096H7.20972V4.11282C7.20972 3.54508 7.67423 3.08057 8.24197 3.08057H10.3065V4.62895C10.3065 4.91282 10.5387 5.14508 10.8226 5.14508H11.8549C12.1387 5.14508 12.371 4.91282 12.371 4.62895V3.08057H14.4355V4.62895C14.4355 4.91282 14.6678 5.14508 14.9517 5.14508H15.9839C16.2678 5.14508 16.5 4.91282 16.5 4.62895V3.08057H22.6936V4.62895C22.6936 4.91282 22.9258 5.14508 23.2097 5.14508H24.242C24.5258 5.14508 24.7581 4.91282 24.7581 4.62895V3.08057H26.8226V4.62895C26.8226 4.91282 27.0549 5.14508 27.3387 5.14508H28.371C28.6549 5.14508 28.8871 4.91282 28.8871 4.62895V3.08057H30.9517C31.5194 3.08057 31.9839 3.54508 31.9839 4.11282Z" fill="#E6E9ED"/>
<path d="M28.8871 3.08063V4.62902C28.8871 4.91289 28.6549 5.14515 28.371 5.14515H27.3388C27.0549 5.14515 26.8226 4.91289 26.8226 4.62902V3.08063V2.04837C26.8226 1.48063 27.2871 1.01611 27.8549 1.01611C28.1388 1.01611 28.3968 1.12966 28.5826 1.32063C28.7736 1.50644 28.8871 1.7645 28.8871 2.04837V3.08063Z" fill="#FCD770"/>
<path d="M24.7581 3.08063V4.62902C24.7581 4.91289 24.5259 5.14515 24.242 5.14515H23.2097C22.9259 5.14515 22.6936 4.91289 22.6936 4.62902V3.08063V2.04837C22.6936 1.48063 23.1581 1.01611 23.7259 1.01611C24.0097 1.01611 24.2678 1.12966 24.4536 1.32063C24.6446 1.50644 24.7581 1.7645 24.7581 2.04837V3.08063Z" fill="#FCD770"/>
<path d="M19.5968 9.27441H10.3064V14.4357V16.5002H9.27419V18.6525L9.25354 18.7402C10.9826 19.1428 12.4587 20.2163 13.3826 21.6718L13.4032 21.6615H19.5968H28.8871V9.27441H19.5968Z" fill="#E6E9ED"/>
<path d="M16.4999 3.08063V4.62902C16.4999 4.91289 16.2677 5.14515 15.9838 5.14515H14.9516C14.6677 5.14515 14.4354 4.91289 14.4354 4.62902V3.08063V2.04837C14.4354 1.48063 14.8999 1.01611 15.4677 1.01611C15.7516 1.01611 16.0096 1.12966 16.1954 1.32063C16.3864 1.50644 16.4999 1.7645 16.4999 2.04837V3.08063Z" fill="#FCD770"/>
<path d="M12.3709 3.08063V4.62902C12.3709 4.91289 12.1387 5.14515 11.8548 5.14515H10.8225C10.5387 5.14515 10.3064 4.91289 10.3064 4.62902V3.08063V2.04837C10.3064 1.48063 10.7709 1.01611 11.3387 1.01611C11.6225 1.01611 11.8806 1.12966 12.0664 1.32063C12.2574 1.50644 12.3709 1.7645 12.3709 2.04837V3.08063Z" fill="#FCD770"/>
<path d="M10.3064 14.4355V16.5001H9.27417H6.1774H5.14514V14.4355H7.20966H10.3064Z" fill="#E6E9ED"/>
<path d="M9.27414 16.5V18.6523L9.2535 18.74C8.76317 18.6265 8.25221 18.5645 7.72576 18.5645C7.1993 18.5645 6.68834 18.6265 6.19801 18.74L6.17737 18.6523V16.5H9.27414Z" fill="#AAB2BD"/>
<path d="M7.72587 20.1128C4.87993 20.1128 2.56458 22.4281 2.56458 25.2741C2.56458 28.12 4.87993 30.4354 7.72587 30.4354C10.5718 30.4354 12.8872 28.12 12.8872 25.2741C12.8872 22.4281 10.5718 20.1128 7.72587 20.1128ZM7.72587 29.4031C5.44922 29.4031 3.59683 27.5507 3.59683 25.2741C3.59683 22.9974 5.44922 21.1451 7.72587 21.1451C10.0025 21.1451 11.8549 22.9974 11.8549 25.2741C11.8549 27.5507 10.0025 29.4031 7.72587 29.4031Z" fill="#234840"/>
<path d="M7.20965 25.0603L6.32861 25.9414L7.05842 26.6712L8.2419 25.4877V22.1772H7.20965V25.0603Z" fill="#234840"/>
<path d="M30.9516 2.56452H29.4032V2.04839C29.4032 1.19471 28.7085 0.5 27.8548 0.5C27.0012 0.5 26.3064 1.19471 26.3064 2.04839V2.56452H25.2742V2.04839C25.2742 1.19471 24.5795 0.5 23.7258 0.5C22.8721 0.5 22.1774 1.19471 22.1774 2.04839V2.56452H17.0161V2.04839C17.0161 1.19471 16.3214 0.5 15.4677 0.5C14.6141 0.5 13.9194 1.19471 13.9194 2.04839V2.56452H12.8871V2.04839C12.8871 1.19471 12.1924 0.5 11.3387 0.5C10.485 0.5 9.79032 1.19471 9.79032 2.04839V2.56452H8.24194C7.38826 2.56452 6.69355 3.25923 6.69355 4.1129V13.9194H4.62903V17.0161H5.66129V18.3529C2.68064 19.2437 0.5 22.0076 0.5 25.2742C0.5 29.2587 3.74129 32.5 7.72581 32.5C11.7103 32.5 14.9516 29.2587 14.9516 25.2742H13.9194C13.9194 28.6894 11.141 31.4677 7.72581 31.4677C4.31058 31.4677 1.53226 28.6894 1.53226 25.2742C1.53226 21.859 4.31058 19.0806 7.72581 19.0806C10.6125 19.0806 13.0915 21.0399 13.7537 23.844L13.8476 24.2419H30.9516C31.8053 24.2419 32.5 23.5472 32.5 22.6935V4.1129C32.5 3.25923 31.8053 2.56452 30.9516 2.56452ZM27.3387 2.04839C27.3387 1.76348 27.5705 1.53226 27.8548 1.53226C28.1392 1.53226 28.371 1.76348 28.371 2.04839L28.3715 4.62903H27.3387V2.04839ZM23.2097 2.04839C23.2097 1.76348 23.4414 1.53226 23.7258 1.53226C24.0102 1.53226 24.2419 1.76348 24.2419 2.04839L24.2425 4.62903H23.2097V2.04839ZM14.9516 2.04839C14.9516 1.76348 15.1834 1.53226 15.4677 1.53226C15.7521 1.53226 15.9839 1.76348 15.9839 2.04839L15.9844 4.62903H14.9516V2.04839ZM10.8226 2.04839C10.8226 1.76348 11.0543 1.53226 11.3387 1.53226C11.6231 1.53226 11.8548 1.76348 11.8548 2.04839L11.8554 4.62903H10.8226V2.04839ZM8.24194 3.59677H9.79032V4.62903C9.79032 5.19832 10.2533 5.66129 10.8226 5.66129H11.8548C12.4241 5.66129 12.8871 5.19832 12.8871 4.62903V3.59677H13.9194V4.62903C13.9194 5.19832 14.3823 5.66129 14.9516 5.66129H15.9839C16.5532 5.66129 17.0161 5.19832 17.0161 4.62903V3.59677H22.1774V4.62903C22.1774 5.19832 22.6404 5.66129 23.2097 5.66129H24.2419C24.8112 5.66129 25.2742 5.19832 25.2742 4.62903V3.59677H26.3064V4.62903C26.3064 5.19832 26.7694 5.66129 27.3387 5.66129H28.371C28.9403 5.66129 29.4032 5.19832 29.4032 4.62903V3.59677H30.9516C31.236 3.59677 31.4677 3.828 31.4677 4.1129V6.69355H7.72581V4.1129C7.72581 3.828 7.95755 3.59677 8.24194 3.59677ZM5.66129 14.9516H9.79032V15.9839H5.66129V14.9516ZM6.69355 18.131V17.0161H8.75806V18.1258C8.42 18.0778 8.07626 18.0484 7.72581 18.0484C7.37432 18.0484 7.03161 18.0819 6.69355 18.131ZM30.9516 23.2097H14.6528C14.5465 22.8515 14.4128 22.5077 14.2569 22.1774H29.4032V8.75806H9.79032V12.8541H10.8226V9.79032H28.371V21.1452H13.6634C12.7338 19.8032 11.3692 18.8174 9.79032 18.3508V17.0161H10.8226V13.9194H7.72581V7.72581H31.4677V22.6935C31.4677 22.9785 31.236 23.2097 30.9516 23.2097Z" fill="#234840"/>
<path d="M19.5967 18.0486C19.0275 18.0486 18.5645 17.5856 18.5645 17.0163H17.5322C17.5322 17.9758 18.1929 18.7768 19.0806 19.0075V20.1131H20.1129V19.0075C21.0006 18.7768 21.6613 17.9758 21.6613 17.0163C21.6613 15.8777 20.7353 14.9518 19.5967 14.9518C19.0275 14.9518 18.5645 14.4888 18.5645 13.9195C18.5645 13.3502 19.0275 12.8873 19.5967 12.8873C20.166 12.8873 20.629 13.3502 20.629 13.9195H21.6613C21.6613 12.96 21.0006 12.159 20.1129 11.9283V10.8228H19.0806V11.9283C18.1929 12.159 17.5322 12.96 17.5322 13.9195C17.5322 15.0581 18.4582 15.984 19.5967 15.984C20.166 15.984 20.629 16.447 20.629 17.0163C20.629 17.5856 20.166 18.0486 19.5967 18.0486Z" fill="#234840"/>
</g>
<defs>
<clipPath id="clip0">
<rect width="32" height="32" fill="white"/>
</clipPath>
</defs>
</svg>
