<svg width="83" height="19" viewBox="0 0 83 19" fill="none" xmlns="http://www.w3.org/2000/svg">
<rect width="83" height="19" rx="9.5" fill="white"/>
<path d="M72.4707 8.00177C72.4247 8.23368 72.3455 8.43608 72.2337 8.6099C72.1213 8.78381 71.9746 8.92536 71.7931 9.03281C71.612 9.14113 71.386 9.1955 71.1157 9.1955C70.853 9.1955 70.629 9.14113 70.4438 9.03281C70.2582 8.92536 70.1099 8.7838 69.9975 8.6099C69.8862 8.43608 69.8047 8.23368 69.7543 8.00177C69.7042 7.77038 69.6792 7.53441 69.6792 7.29568C69.6792 7.04763 69.7029 6.80831 69.7489 6.57709C69.7951 6.34527 69.8745 6.14073 69.9863 5.96216C70.0982 5.78497 70.2451 5.64022 70.4265 5.52846C70.6075 5.41644 70.8335 5.35973 71.1042 5.35973C71.3666 5.35973 71.5884 5.41644 71.7697 5.52846C71.9516 5.64023 72.0999 5.78652 72.2159 5.9683C72.3322 6.14998 72.4152 6.35686 72.4652 6.58825C72.5159 6.82016 72.5405 7.05595 72.5405 7.29571C72.5405 7.53443 72.517 7.77041 72.4708 8.0018L72.4707 8.00177ZM74.023 6.11891C73.9148 5.72923 73.7489 5.3872 73.5248 5.09357C73.3008 4.80021 73.0195 4.56434 72.6796 4.38697C72.3395 4.209 71.9338 4.12062 71.4628 4.12062C71.0925 4.12062 70.7525 4.19363 70.4438 4.34044C70.1349 4.48734 69.88 4.72295 69.6792 5.04738H69.6566V4.28236H68.0926V12.3703H69.7371V9.53161H69.7604C69.9611 9.82539 70.2184 10.0471 70.5307 10.1973C70.8433 10.3479 71.1854 10.4237 71.5562 10.4237C71.9959 10.4237 72.38 10.3381 72.7086 10.1686C73.0364 9.99888 73.3111 9.77069 73.5307 9.48474C73.7513 9.19879 73.9148 8.87091 74.023 8.50014C74.1317 8.1292 74.1854 7.74304 74.1854 7.34147C74.1854 6.91666 74.1317 6.50939 74.023 6.11892V6.11891ZM65.9153 8.00181C65.8685 8.23372 65.7891 8.43612 65.6775 8.60994C65.5655 8.78385 65.4186 8.9254 65.2366 9.03285C65.0557 9.14116 64.8295 9.19554 64.5594 9.19554C64.2965 9.19554 64.0735 9.14116 63.8881 9.03285C63.7025 8.92539 63.554 8.78384 63.4419 8.60994C63.3299 8.43612 63.2489 8.23372 63.1986 8.00181C63.1482 7.77042 63.1237 7.53445 63.1237 7.29572C63.1237 7.04767 63.1462 6.80835 63.1925 6.57713C63.2394 6.34531 63.3181 6.14077 63.4304 5.9622C63.5417 5.78501 63.6888 5.64026 63.8709 5.52851C64.052 5.41648 64.2773 5.35977 64.548 5.35977C64.8102 5.35977 65.0331 5.41648 65.214 5.52851C65.3954 5.64027 65.5445 5.78656 65.66 5.96834C65.7756 6.15002 65.8585 6.35689 65.9089 6.58828C65.9594 6.82019 65.9839 7.05599 65.9839 7.29575C65.9839 7.53447 65.9613 7.77044 65.9152 8.00183L65.9153 8.00181ZM66.9688 5.09366C66.7452 4.8003 66.463 4.56443 66.1232 4.38706C65.7832 4.20909 65.3782 4.1207 64.9073 4.1207C64.5362 4.1207 64.1967 4.19372 63.8881 4.34053C63.5784 4.48742 63.3243 4.72304 63.1237 5.04747H63.1V4.28245H61.5359V12.3704H63.1818V9.5317H63.204C63.4046 9.82547 63.6621 10.0472 63.975 10.1974C64.287 10.348 64.629 10.4238 64.9997 10.4238C65.4402 10.4238 65.8241 10.3382 66.1521 10.1687C66.4804 9.99897 66.7546 9.77078 66.9746 9.48483C67.195 9.19888 67.3584 8.871 67.4673 8.50023C67.5746 8.12929 67.6293 7.74313 67.6293 7.34156C67.6293 6.91675 67.5746 6.50947 67.4673 6.11901C67.3584 5.72933 67.1928 5.38731 66.9688 5.09367V5.09366ZM56.1505 7.07513L57.2277 4.03925H57.2507L58.2934 7.07513H56.1505ZM56.324 2.00008L53.1969 10.2727H55.027L55.6753 8.43041H58.7684L59.3934 10.2727H61.2819L58.1895 2.00008H56.324ZM53.0574 7.6486C52.9494 7.45941 52.8065 7.30105 52.6289 7.17321C52.4514 7.04617 52.2482 6.94355 52.0209 6.86596C51.7928 6.78914 51.5593 6.72398 51.3197 6.6697C51.0882 6.61541 50.8608 6.56517 50.6368 6.51874C50.4129 6.47213 50.2136 6.42009 50.0398 6.36252C49.8662 6.30444 49.7258 6.22961 49.6175 6.13614C49.509 6.0437 49.4555 5.92417 49.4555 5.77719C49.4555 5.65359 49.4857 5.5552 49.5478 5.48167C49.6098 5.40865 49.6851 5.35247 49.7738 5.31346C49.8628 5.27513 49.9606 5.25019 50.069 5.23819C50.1771 5.22679 50.2778 5.22136 50.3701 5.22136C50.6638 5.22136 50.9186 5.2772 51.1353 5.38915C51.3508 5.50117 51.4709 5.71556 51.4937 6.03204H53.0574C53.0265 5.66151 52.9321 5.3546 52.7736 5.11063C52.6156 4.86768 52.4164 4.67253 52.1773 4.52599C51.9383 4.37918 51.6659 4.2751 51.3604 4.21313C51.0554 4.15125 50.7409 4.12069 50.4171 4.12069C50.0922 4.12069 49.7754 4.14969 49.4673 4.207C49.1578 4.26526 48.8799 4.36606 48.6331 4.50865C48.3857 4.65149 48.1872 4.8462 48.0362 5.09364C47.8854 5.34074 47.8102 5.65783 47.8102 6.04372C47.8102 6.30636 47.8647 6.52887 47.973 6.7102C48.0801 6.89197 48.2237 7.04198 48.4006 7.16186C48.5787 7.28157 48.7816 7.37849 49.0093 7.45133C49.237 7.52547 49.4707 7.58873 49.7096 7.64302C50.2972 7.76678 50.7548 7.88995 51.0827 8.01396C51.4109 8.13729 51.575 8.32259 51.575 8.57005C51.575 8.71677 51.5406 8.83777 51.4709 8.93453C51.4012 9.03163 51.3145 9.10836 51.2104 9.16636C51.1055 9.22453 50.9896 9.26725 50.8628 9.29366C50.7353 9.32093 50.6134 9.33457 50.4976 9.33457C50.3355 9.33457 50.1791 9.31507 50.029 9.27657C49.878 9.2379 49.7448 9.17792 49.6291 9.09679C49.5134 9.01583 49.4183 8.91175 49.3451 8.78393C49.2722 8.65637 49.2348 8.50446 49.2348 8.32633H47.6712C47.687 8.728 47.7775 9.06227 47.944 9.32862C48.1092 9.59515 48.3215 9.80927 48.5807 9.97179C48.8392 10.1337 49.1349 10.2499 49.4673 10.3196C49.7988 10.3889 50.1387 10.4238 50.4856 10.4238C50.8256 10.4238 51.1596 10.3906 51.4881 10.3256C51.8162 10.2597 52.1078 10.1457 52.3626 9.98318C52.618 9.82126 52.8237 9.60695 52.9825 9.34028C53.1404 9.07342 53.2194 8.74328 53.2194 8.34929C53.2194 8.07078 53.1655 7.83783 53.0574 7.64866L53.0574 7.6486ZM46.2585 2.48675H44.6134V4.28237H43.6177V5.38297H44.6134V8.91721C44.6134 9.21886 44.6642 9.4619 44.7642 9.6471C44.8648 9.83223 45.0016 9.97601 45.1752 10.0761C45.349 10.1766 45.55 10.2439 45.7778 10.2787C46.005 10.3132 46.2473 10.3308 46.5016 10.3308C46.6644 10.3308 46.8299 10.3266 47.0001 10.3196C47.1696 10.3117 47.3239 10.2967 47.4632 10.2728V8.99816C47.3857 9.01387 47.3047 9.02595 47.2196 9.03294C47.1349 9.04079 47.046 9.04493 46.9533 9.04493C46.6756 9.04493 46.49 8.99815 46.3971 8.90554C46.305 8.81311 46.2585 8.62764 46.2585 8.3493V5.38314H47.4632V4.28255H46.2585L46.2585 2.48675ZM41.5441 7.95496C41.5441 8.04844 41.5347 8.17194 41.5151 8.32618C41.4959 8.4811 41.4437 8.63309 41.3589 8.78377C41.2739 8.93438 41.1422 9.06427 40.9651 9.17189C40.7875 9.28038 40.5366 9.3344 40.2119 9.3344C40.0809 9.3344 39.9533 9.32283 39.8298 9.29919C39.706 9.27641 39.5982 9.2355 39.5055 9.17776C39.413 9.11985 39.3394 9.04061 39.2852 8.94015C39.2316 8.83977 39.2042 8.71661 39.2042 8.56989C39.2042 8.41549 39.2316 8.28722 39.2852 8.18728C39.3394 8.08734 39.4109 8.00397 39.4999 7.93811C39.5883 7.87251 39.6927 7.82047 39.8124 7.78146C39.932 7.74296 40.0535 7.71215 40.1774 7.68893C40.3083 7.66623 40.44 7.6463 40.5709 7.63094C40.7027 7.61584 40.828 7.59598 40.9474 7.5732C41.0675 7.55005 41.1791 7.52072 41.2836 7.48594C41.3879 7.45116 41.4744 7.40352 41.5441 7.34138L41.5441 7.95496ZM43.1888 8.94018V5.8238C43.1888 5.4602 43.1081 5.16889 42.9454 4.94907C42.7836 4.72873 42.575 4.55707 42.3204 4.4334C42.0652 4.30989 41.7832 4.22669 41.4744 4.18432C41.1657 4.14185 40.8605 4.12071 40.5596 4.12071C40.2277 4.12071 39.8973 4.15325 39.5696 4.2191C39.2406 4.2847 38.9458 4.395 38.6831 4.54914C38.4205 4.70363 38.2036 4.9086 38.0347 5.16321C37.8643 5.41809 37.7679 5.7387 37.7448 6.12503H39.3894C39.4203 5.80043 39.5289 5.56852 39.7143 5.42966C39.8995 5.29053 40.154 5.2214 40.4787 5.2214C40.6252 5.2214 40.7621 5.23107 40.8898 5.25023C41.017 5.26973 41.1291 5.3078 41.2257 5.36606C41.3224 5.42397 41.3996 5.50484 41.4572 5.60944C41.5151 5.71361 41.5441 5.8549 41.5441 6.0321C41.5518 6.20256 41.5014 6.33116 41.3938 6.42014C41.2853 6.50947 41.1388 6.57723 40.9534 6.62297C40.768 6.66975 40.5556 6.70462 40.3161 6.72705C40.0766 6.75071 39.8336 6.7822 39.5867 6.82027C39.3394 6.85902 39.0941 6.91106 38.8514 6.97674C38.6082 7.04199 38.3913 7.14099 38.2024 7.27175C38.013 7.40371 37.8587 7.57917 37.7386 7.79943C37.6192 8.01969 37.5594 8.29994 37.5594 8.63937C37.5594 8.94827 37.6115 9.2147 37.7158 9.4385C37.8199 9.66316 37.9647 9.84778 38.1502 9.99474C38.3357 10.1416 38.5517 10.2499 38.7988 10.3196C39.0456 10.3889 39.3122 10.4238 39.5982 10.4238C39.9688 10.4238 40.3319 10.3695 40.6865 10.2619C41.0419 10.1529 41.3512 9.96436 41.6137 9.6936C41.6214 9.79398 41.6349 9.8928 41.654 9.98912C41.6733 10.0853 41.6986 10.1805 41.7295 10.2728H43.3976C43.3205 10.1499 43.266 9.96436 43.2355 9.71672C43.2041 9.46972 43.1888 9.21139 43.1888 8.9403L43.1888 8.94018ZM36.4127 4.79785C36.2507 4.58536 36.0286 4.41957 35.7471 4.29952C35.4649 4.18042 35.1039 4.12061 34.664 4.12061C34.355 4.12061 34.0385 4.19949 33.7138 4.35813C33.3896 4.51607 33.1231 4.76929 32.9148 5.11711H32.88V2H31.2351V10.2727H32.88V7.13279C32.88 6.52268 32.9803 6.08458 33.1812 5.81764C33.3818 5.55146 33.7061 5.41803 34.1542 5.41803C34.5479 5.41803 34.8221 5.53964 34.9766 5.78329C35.1311 6.02633 35.2082 6.39539 35.2082 6.88951V10.2728H36.8532V6.58834C36.8532 6.21782 36.82 5.88003 36.7546 5.57431C36.6889 5.26972 36.575 5.01073 36.4127 4.79798L36.4127 4.79785ZM27.7256 7.70078H27.7027L26.2896 2.00015H24.5868L23.1503 7.63129H23.1273L21.8183 2.00015H20L22.1891 10.2728H24.031L25.4091 4.64165H25.4323L26.8339 10.2728H28.6409L30.8649 2.00015H29.0812L27.7256 7.70078Z" fill="#222E20"/>
<path d="M4.70808 15.4068L4.96579 15.5596C6.0487 16.2022 7.29023 16.5421 8.5563 16.5428H8.55907C12.4473 16.5428 15.6119 13.3789 15.6134 9.49045C15.614 7.60592 14.8809 5.83413 13.5491 4.50102C12.2171 3.16816 10.4461 2.43362 8.56158 2.43283C4.6704 2.43283 1.50583 5.59618 1.50436 9.48467C1.50385 10.8172 1.8766 12.1149 2.58286 13.2376L2.75073 13.5045L2.03791 16.1069L4.70808 15.4068ZM0.000244141 18.1227L1.20432 13.726C0.461633 12.4393 0.0709243 10.9796 0.0715359 9.48428C0.0733463 4.80605 3.88052 1 8.55924 1C10.8296 1.00098 12.9605 1.88456 14.563 3.48835C16.1653 5.09212 17.0474 7.22394 17.0467 9.49113C17.0447 14.1691 13.2367 17.9759 8.55924 17.9759C8.55889 17.9759 8.55941 17.9759 8.55924 17.9759H8.55561C7.13517 17.9754 5.73943 17.6191 4.49978 16.943L0.000244141 18.1227Z" fill="white"/>
<path d="M0.363864 9.48865C0.36335 10.9321 0.740506 12.3413 1.45765 13.5836L0.295166 17.8281L4.63871 16.6892C5.83545 17.3413 7.18285 17.6856 8.55412 17.686H8.55766C13.0734 17.686 16.7491 14.0114 16.751 9.49508C16.7519 7.3064 15.9004 5.24866 14.3533 3.70026C12.8065 2.15208 10.7494 1.299 8.55729 1.29797C4.04127 1.29797 0.365617 4.97215 0.36366 9.48867L0.363864 9.48865ZM8.55754 17.686H8.55762H8.55754C8.55736 17.686 8.55745 17.686 8.55754 17.686Z" fill="url(#paint0_linear)"/>
<path d="M0.0712917 9.48638C0.070778 10.9817 0.461487 12.4415 1.20418 13.7282L0 18.1245L4.49939 16.9448C5.73911 17.6209 7.13478 17.9771 8.55523 17.9777H8.55885C13.2363 17.9777 17.0444 14.1709 17.0463 9.49296C17.0471 7.22565 16.1649 5.09388 14.5626 3.49019C12.96 1.88649 10.8292 1.00281 8.55885 1.00183C3.88038 1.00183 0.0731062 4.80788 0.071149 9.48611L0.0712917 9.48638ZM2.75058 13.5065L2.58262 13.2397C1.87636 12.1169 1.50361 10.8191 1.50412 9.48675C1.50566 5.5985 4.67016 2.4349 8.56135 2.4349C10.4457 2.43564 12.2167 3.17025 13.5488 4.50309C14.8808 5.83603 15.6137 7.60797 15.6132 9.49228C15.6115 13.3808 12.4469 16.5446 8.55868 16.5446H8.55592C7.28987 16.5439 6.04824 16.204 4.96541 15.5615L4.70769 15.4087L2.03756 16.1088L2.75058 13.5065ZM8.55885 17.9777H8.55894H8.55885C8.55868 17.9777 8.55877 17.9777 8.55885 17.9777Z" fill="url(#paint1_linear)"/>
<path fill-rule="evenodd" clip-rule="evenodd" d="M6.43764 5.93883C6.27874 5.58565 6.11156 5.57858 5.96044 5.57236C5.83676 5.5671 5.69531 5.56745 5.55403 5.56745C5.41257 5.56745 5.18282 5.62053 4.98854 5.83275C4.79409 6.04498 4.24622 6.55799 4.24622 7.60136C4.24622 8.64482 5.00625 9.65306 5.11214 9.79469C5.21821 9.93606 6.57929 12.1457 8.7347 12.9957C10.5262 13.7021 10.8907 13.5616 11.2796 13.5262C11.6684 13.4909 12.5343 13.0134 12.711 12.5182C12.8877 12.023 12.8877 11.5986 12.8347 11.5099C12.7817 11.4216 12.6403 11.3685 12.4282 11.2625C12.2161 11.1564 11.1735 10.6433 10.9791 10.5726C10.7847 10.5019 10.6433 10.4666 10.5018 10.6789C10.3605 10.8909 9.9543 11.3685 9.83053 11.5099C9.70686 11.6517 9.58309 11.6694 9.37103 11.5633C9.15888 11.4569 8.47585 11.2331 7.66559 10.5108C7.03512 9.94865 6.60952 9.25448 6.48575 9.04215C6.36207 8.83009 6.47255 8.71522 6.57888 8.60948C6.67416 8.51445 6.79102 8.36187 6.8971 8.2381C7.00291 8.11425 7.03821 8.02587 7.1089 7.88441C7.17967 7.74286 7.14429 7.61901 7.09129 7.51293C7.03821 7.40685 6.62609 6.35812 6.43751 5.93876" fill="white"/>
<path d="M22.088 14.228H22.476V17H22.088V15.72H20.732V17H20.344V14.228H20.732V15.384H22.088V14.228ZM23.8443 16.732C23.9323 16.732 24.0096 16.7307 24.0763 16.728C24.1456 16.7227 24.203 16.7147 24.2483 16.704V16.084C24.2216 16.0707 24.1776 16.06 24.1163 16.052C24.0576 16.0413 23.9856 16.036 23.9003 16.036C23.8443 16.036 23.7843 16.04 23.7203 16.048C23.659 16.056 23.6016 16.0733 23.5483 16.1C23.4976 16.124 23.455 16.1587 23.4203 16.204C23.3856 16.2467 23.3683 16.304 23.3683 16.376C23.3683 16.5093 23.411 16.6027 23.4963 16.656C23.5816 16.7067 23.6976 16.732 23.8443 16.732ZM23.8123 14.868C23.9616 14.868 24.087 14.888 24.1883 14.928C24.2923 14.9653 24.375 15.02 24.4363 15.092C24.5003 15.1613 24.5456 15.2453 24.5723 15.344C24.599 15.44 24.6123 15.5467 24.6123 15.664V16.964C24.5803 16.9693 24.535 16.9773 24.4763 16.988C24.4203 16.996 24.3563 17.004 24.2843 17.012C24.2123 17.02 24.1336 17.0267 24.0483 17.032C23.9656 17.04 23.883 17.044 23.8003 17.044C23.683 17.044 23.575 17.032 23.4763 17.008C23.3776 16.984 23.2923 16.9467 23.2203 16.896C23.1483 16.8427 23.0923 16.7733 23.0523 16.688C23.0123 16.6027 22.9923 16.5 22.9923 16.38C22.9923 16.2653 23.015 16.1667 23.0603 16.084C23.1083 16.0013 23.1723 15.9347 23.2523 15.884C23.3323 15.8333 23.4256 15.796 23.5323 15.772C23.639 15.748 23.751 15.736 23.8683 15.736C23.9056 15.736 23.9443 15.7387 23.9843 15.744C24.0243 15.7467 24.0616 15.752 24.0963 15.76C24.1336 15.7653 24.1656 15.7707 24.1923 15.776C24.219 15.7813 24.2376 15.7853 24.2483 15.788V15.684C24.2483 15.6227 24.2416 15.5627 24.2283 15.504C24.215 15.4427 24.191 15.3893 24.1563 15.344C24.1216 15.296 24.0736 15.2587 24.0123 15.232C23.9536 15.2027 23.8763 15.188 23.7803 15.188C23.6576 15.188 23.5496 15.1973 23.4563 15.216C23.3656 15.232 23.2976 15.2493 23.2523 15.268L23.2083 14.96C23.2563 14.9387 23.3363 14.9187 23.4483 14.9C23.5603 14.8787 23.6816 14.868 23.8123 14.868ZM27.7942 14.92C27.7408 14.9867 27.6808 15.06 27.6142 15.14C27.5475 15.2173 27.4782 15.2987 27.4062 15.384C27.3342 15.4667 27.2608 15.5493 27.1862 15.632C27.1142 15.7147 27.0448 15.7933 26.9782 15.868C27.0582 15.9453 27.1408 16.0293 27.2262 16.12C27.3115 16.2107 27.3942 16.3053 27.4742 16.404C27.5568 16.5 27.6355 16.6 27.7102 16.704C27.7848 16.8053 27.8502 16.904 27.9062 17H27.4902C27.4342 16.912 27.3688 16.82 27.2942 16.724C27.2222 16.6253 27.1462 16.5307 27.0662 16.44C26.9888 16.3493 26.9102 16.2653 26.8302 16.188C26.7528 16.108 26.6808 16.0427 26.6142 15.992V17H26.2582V15.992C26.1915 16.0427 26.1182 16.108 26.0382 16.188C25.9608 16.2653 25.8822 16.3493 25.8022 16.44C25.7248 16.5307 25.6488 16.6253 25.5742 16.724C25.5022 16.82 25.4382 16.912 25.3822 17H24.9702C25.0262 16.904 25.0902 16.8053 25.1622 16.704C25.2368 16.6027 25.3142 16.504 25.3942 16.408C25.4768 16.3093 25.5608 16.2147 25.6462 16.124C25.7315 16.0333 25.8142 15.9493 25.8942 15.872C25.8275 15.7973 25.7568 15.7187 25.6822 15.636C25.6102 15.5533 25.5382 15.4707 25.4662 15.388C25.3942 15.3027 25.3248 15.2213 25.2582 15.144C25.1915 15.064 25.1302 14.9893 25.0742 14.92H25.4862C25.5822 15.04 25.6928 15.1733 25.8182 15.32C25.9435 15.4667 26.0902 15.636 26.2582 15.828V14.92H26.6142V15.828C26.7822 15.636 26.9288 15.4667 27.0542 15.32C27.1795 15.1733 27.2902 15.04 27.3862 14.92H27.7942ZM28.6769 15.468C28.6503 15.732 28.6303 15.996 28.6169 16.26C28.6036 16.5213 28.5929 16.768 28.5849 17H28.2289C28.2343 16.8373 28.2423 16.668 28.2529 16.492C28.2636 16.3133 28.2756 16.1347 28.2889 15.956C28.3023 15.7747 28.3169 15.5973 28.3329 15.424C28.3489 15.248 28.3663 15.08 28.3849 14.92H28.7249C28.8103 15.0587 28.9103 15.2493 29.0249 15.492C29.1396 15.732 29.2716 16.0093 29.4209 16.324C29.5703 16.0093 29.7023 15.732 29.8169 15.492C29.9316 15.2493 30.0316 15.0587 30.1169 14.92H30.4609C30.4796 15.08 30.4969 15.248 30.5129 15.424C30.5289 15.5973 30.5436 15.7747 30.5569 15.956C30.5703 16.1347 30.5823 16.3133 30.5929 16.492C30.6036 16.668 30.6116 16.8373 30.6169 17H30.2489C30.2409 16.768 30.2303 16.5213 30.2169 16.26C30.2036 15.996 30.1836 15.732 30.1569 15.468C30.1143 15.5507 30.0649 15.6507 30.0089 15.768C29.9529 15.8827 29.8969 16 29.8409 16.12C29.7876 16.24 29.7369 16.3547 29.6889 16.464C29.6409 16.5733 29.6036 16.66 29.5769 16.724H29.2649C29.2356 16.6573 29.1956 16.5693 29.1449 16.46C29.0969 16.3507 29.0449 16.236 28.9889 16.116C28.9356 15.9933 28.8809 15.8747 28.8249 15.76C28.7689 15.6427 28.7196 15.5453 28.6769 15.468ZM32.9547 14.92V17H32.5947V15.416C32.5147 15.5173 32.4267 15.636 32.3307 15.772C32.2347 15.908 32.1387 16.0493 32.0427 16.196C31.9467 16.34 31.8547 16.4827 31.7667 16.624C31.6787 16.7653 31.6027 16.8907 31.5387 17H31.2067V14.92H31.5667V16.416C31.6361 16.3013 31.7147 16.176 31.8027 16.04C31.8907 15.9013 31.9814 15.7653 32.0747 15.632C32.1707 15.496 32.2654 15.3667 32.3587 15.244C32.4547 15.1187 32.5441 15.0107 32.6267 14.92H32.9547ZM35.0614 14.92V15.232H34.3854V17H34.0134V15.232H33.3374V14.92H35.0614ZM35.329 15.964C35.329 15.78 35.3557 15.62 35.409 15.484C35.4623 15.3453 35.533 15.2307 35.621 15.14C35.709 15.0493 35.8103 14.9813 35.925 14.936C36.0397 14.8907 36.157 14.868 36.277 14.868C36.557 14.868 36.7717 14.956 36.921 15.132C37.0703 15.3053 37.145 15.5707 37.145 15.928C37.145 15.944 37.145 15.9653 37.145 15.992C37.145 16.016 37.1437 16.0387 37.141 16.06H35.717C35.733 16.276 35.7957 16.44 35.905 16.552C36.0143 16.664 36.185 16.72 36.417 16.72C36.5477 16.72 36.657 16.7093 36.745 16.688C36.8357 16.664 36.9037 16.6413 36.949 16.62L37.001 16.932C36.9557 16.956 36.8757 16.9813 36.761 17.008C36.649 17.0347 36.521 17.048 36.377 17.048C36.1957 17.048 36.0383 17.0213 35.905 16.968C35.7743 16.912 35.6663 16.836 35.581 16.74C35.4957 16.644 35.4317 16.5307 35.389 16.4C35.349 16.2667 35.329 16.1213 35.329 15.964ZM36.757 15.76C36.7597 15.592 36.717 15.4547 36.629 15.348C36.5437 15.2387 36.425 15.184 36.273 15.184C36.1877 15.184 36.1117 15.2013 36.045 15.236C35.981 15.268 35.9263 15.3107 35.881 15.364C35.8357 15.4173 35.7997 15.4787 35.773 15.548C35.749 15.6173 35.733 15.688 35.725 15.76H36.757ZM38.0245 16.544C38.0272 16.5653 38.0285 16.5867 38.0285 16.608C38.0285 16.6267 38.0285 16.6467 38.0285 16.668C38.0285 16.836 38.0032 17.0013 37.9525 17.164C37.9045 17.3293 37.8378 17.4867 37.7525 17.636L37.4645 17.544C37.5312 17.408 37.5752 17.2693 37.5965 17.128C37.6178 16.9893 37.6285 16.8587 37.6285 16.736C37.6285 16.7013 37.6272 16.668 37.6245 16.636C37.6245 16.604 37.6232 16.5733 37.6205 16.544H38.0245ZM39.7787 14.92V15.532C39.7787 15.6893 39.8187 15.8 39.8987 15.864C39.9787 15.9253 40.088 15.956 40.2267 15.956C40.328 15.956 40.412 15.9507 40.4787 15.94C40.548 15.9293 40.6093 15.9173 40.6627 15.904V14.92H41.0347V17H40.6627V16.192C40.6413 16.1973 40.6133 16.204 40.5787 16.212C40.544 16.22 40.504 16.228 40.4587 16.236C40.416 16.2413 40.3707 16.2467 40.3227 16.252C40.2747 16.2573 40.228 16.26 40.1827 16.26C40.068 16.26 39.9627 16.248 39.8667 16.224C39.7733 16.2 39.692 16.16 39.6227 16.104C39.556 16.048 39.5027 15.9747 39.4627 15.884C39.4253 15.7907 39.4067 15.6747 39.4067 15.536V14.92H39.7787ZM43.1435 14.92V15.232H42.4675V17H42.0955V15.232H41.4195V14.92H43.1435ZM45.363 15.96C45.363 16.1253 45.339 16.2747 45.291 16.408C45.243 16.5413 45.175 16.656 45.087 16.752C45.0017 16.848 44.899 16.9227 44.779 16.976C44.659 17.0267 44.5284 17.052 44.387 17.052C44.2457 17.052 44.115 17.0267 43.995 16.976C43.875 16.9227 43.771 16.848 43.683 16.752C43.5977 16.656 43.531 16.5413 43.483 16.408C43.435 16.2747 43.411 16.1253 43.411 15.96C43.411 15.7973 43.435 15.6493 43.483 15.516C43.531 15.38 43.5977 15.264 43.683 15.168C43.771 15.072 43.875 14.9987 43.995 14.948C44.115 14.8947 44.2457 14.868 44.387 14.868C44.5284 14.868 44.659 14.8947 44.779 14.948C44.899 14.9987 45.0017 15.072 45.087 15.168C45.175 15.264 45.243 15.38 45.291 15.516C45.339 15.6493 45.363 15.7973 45.363 15.96ZM44.975 15.96C44.975 15.7253 44.9217 15.54 44.815 15.404C44.711 15.2653 44.5684 15.196 44.387 15.196C44.2057 15.196 44.0617 15.2653 43.955 15.404C43.851 15.54 43.799 15.7253 43.799 15.96C43.799 16.1947 43.851 16.3813 43.955 16.52C44.0617 16.656 44.2057 16.724 44.387 16.724C44.5684 16.724 44.711 16.656 44.815 16.52C44.9217 16.3813 44.975 16.1947 44.975 15.96ZM46.2224 15.16C46.3051 15.0933 46.4011 15.0427 46.5104 15.008C46.6224 14.9707 46.7291 14.952 46.8304 14.952C47.1291 14.952 47.3544 15.044 47.5064 15.228C47.6611 15.4093 47.7384 15.6627 47.7384 15.988C47.7384 16.1267 47.7197 16.26 47.6824 16.388C47.6451 16.516 47.5864 16.6293 47.5064 16.728C47.4291 16.8267 47.3304 16.9053 47.2104 16.964C47.0904 17.0227 46.9477 17.052 46.7824 17.052C46.5931 17.052 46.4357 17.0173 46.3104 16.948C46.1851 16.8787 46.0851 16.784 46.0104 16.664C45.9384 16.544 45.8877 16.404 45.8584 16.244C45.8291 16.084 45.8144 15.9147 45.8144 15.736C45.8144 15.504 45.8304 15.288 45.8624 15.088C45.8971 14.888 45.9584 14.712 46.0464 14.56C46.1344 14.408 46.2557 14.2827 46.4104 14.184C46.5677 14.0827 46.7691 14.0147 47.0144 13.98C47.0864 13.9693 47.1491 13.9613 47.2024 13.956C47.2584 13.948 47.3064 13.9413 47.3464 13.936C47.3891 13.9307 47.4277 13.9253 47.4624 13.92C47.4971 13.912 47.5331 13.904 47.5704 13.896L47.6104 14.232C47.5917 14.2373 47.5717 14.2413 47.5504 14.244C47.5317 14.2467 47.5037 14.2507 47.4664 14.256C47.4317 14.2613 47.3837 14.268 47.3224 14.276C47.2637 14.284 47.1864 14.2933 47.0904 14.304C46.8264 14.3333 46.6237 14.4133 46.4824 14.544C46.3411 14.6747 46.2544 14.88 46.2224 15.16ZM46.1984 15.796C46.1984 15.9213 46.2064 16.04 46.2224 16.152C46.2411 16.264 46.2717 16.3627 46.3144 16.448C46.3597 16.5333 46.4197 16.6013 46.4944 16.652C46.5691 16.7 46.6651 16.724 46.7824 16.724C46.8837 16.724 46.9704 16.7053 47.0424 16.668C47.1144 16.628 47.1731 16.5747 47.2184 16.508C47.2637 16.4413 47.2971 16.364 47.3184 16.276C47.3397 16.1853 47.3504 16.0893 47.3504 15.988C47.3504 15.8973 47.3411 15.8093 47.3224 15.724C47.3064 15.6387 47.2757 15.5627 47.2304 15.496C47.1851 15.4293 47.1237 15.376 47.0464 15.336C46.9717 15.296 46.8771 15.276 46.7624 15.276C46.6504 15.276 46.5424 15.3 46.4384 15.348C46.3371 15.396 46.2584 15.4547 46.2024 15.524C46.1997 15.5533 46.1984 15.5947 46.1984 15.648C46.1984 15.7013 46.1984 15.7507 46.1984 15.796ZM49.0293 15.972C48.9573 15.972 48.8866 15.9747 48.8173 15.98C48.7506 15.9827 48.6906 15.9907 48.6373 16.004V16.72C48.6533 16.7227 48.676 16.7253 48.7053 16.728C48.7373 16.7307 48.7706 16.7333 48.8053 16.736C48.8426 16.736 48.88 16.7373 48.9173 16.74C48.9546 16.74 48.988 16.74 49.0173 16.74C49.18 16.74 49.3053 16.7093 49.3933 16.648C49.4813 16.5867 49.5253 16.488 49.5253 16.352C49.5253 16.2853 49.5106 16.228 49.4813 16.18C49.4546 16.132 49.4173 16.0933 49.3693 16.064C49.324 16.032 49.272 16.0093 49.2133 15.996C49.1546 15.98 49.0933 15.972 49.0293 15.972ZM48.2653 14.92H48.6373V15.716C48.6826 15.7053 48.748 15.6947 48.8333 15.684C48.9213 15.6733 49.0053 15.668 49.0853 15.668C49.1946 15.668 49.2986 15.6813 49.3973 15.708C49.496 15.732 49.5826 15.772 49.6573 15.828C49.732 15.8813 49.7906 15.952 49.8333 16.04C49.8786 16.1253 49.9013 16.228 49.9013 16.348C49.9013 16.4733 49.88 16.58 49.8373 16.668C49.7946 16.756 49.7346 16.828 49.6573 16.884C49.58 16.94 49.4866 16.98 49.3773 17.004C49.268 17.0307 49.148 17.044 49.0173 17.044C48.892 17.044 48.7653 17.036 48.6373 17.02C48.5093 17.0067 48.3853 16.9853 48.2653 16.956V14.92ZM50.6573 17H50.2853V14.92H50.6573V17ZM53.9263 17H53.5543V16.08H52.5943V17H52.2223V14.92H52.5943V15.768H53.5543V14.92H53.9263V17ZM55.2701 16.732C55.3581 16.732 55.4354 16.7307 55.5021 16.728C55.5714 16.7227 55.6288 16.7147 55.6741 16.704V16.084C55.6474 16.0707 55.6034 16.06 55.5421 16.052C55.4834 16.0413 55.4114 16.036 55.3261 16.036C55.2701 16.036 55.2101 16.04 55.1461 16.048C55.0848 16.056 55.0274 16.0733 54.9741 16.1C54.9234 16.124 54.8808 16.1587 54.8461 16.204C54.8114 16.2467 54.7941 16.304 54.7941 16.376C54.7941 16.5093 54.8368 16.6027 54.9221 16.656C55.0074 16.7067 55.1234 16.732 55.2701 16.732ZM55.2381 14.868C55.3874 14.868 55.5128 14.888 55.6141 14.928C55.7181 14.9653 55.8008 15.02 55.8621 15.092C55.9261 15.1613 55.9714 15.2453 55.9981 15.344C56.0248 15.44 56.0381 15.5467 56.0381 15.664V16.964C56.0061 16.9693 55.9608 16.9773 55.9021 16.988C55.8461 16.996 55.7821 17.004 55.7101 17.012C55.6381 17.02 55.5594 17.0267 55.4741 17.032C55.3914 17.04 55.3088 17.044 55.2261 17.044C55.1088 17.044 55.0008 17.032 54.9021 17.008C54.8034 16.984 54.7181 16.9467 54.6461 16.896C54.5741 16.8427 54.5181 16.7733 54.4781 16.688C54.4381 16.6027 54.4181 16.5 54.4181 16.38C54.4181 16.2653 54.4408 16.1667 54.4861 16.084C54.5341 16.0013 54.5981 15.9347 54.6781 15.884C54.7581 15.8333 54.8514 15.796 54.9581 15.772C55.0648 15.748 55.1768 15.736 55.2941 15.736C55.3314 15.736 55.3701 15.7387 55.4101 15.744C55.4501 15.7467 55.4874 15.752 55.5221 15.76C55.5594 15.7653 55.5914 15.7707 55.6181 15.776C55.6448 15.7813 55.6634 15.7853 55.6741 15.788V15.684C55.6741 15.6227 55.6674 15.5627 55.6541 15.504C55.6408 15.4427 55.6168 15.3893 55.5821 15.344C55.5474 15.296 55.4994 15.2587 55.4381 15.232C55.3794 15.2027 55.3021 15.188 55.2061 15.188C55.0834 15.188 54.9754 15.1973 54.8821 15.216C54.7914 15.232 54.7234 15.2493 54.6781 15.268L54.6341 14.96C54.6821 14.9387 54.7621 14.9187 54.8741 14.9C54.9861 14.8787 55.1074 14.868 55.2381 14.868ZM58.3279 17H57.9559V15.232H57.0279V17H56.6559V14.92H58.3279V17ZM60.7164 14.92V17H60.3564V15.416C60.2764 15.5173 60.1884 15.636 60.0924 15.772C59.9964 15.908 59.9004 16.0493 59.8044 16.196C59.7084 16.34 59.6164 16.4827 59.5284 16.624C59.4404 16.7653 59.3644 16.8907 59.3004 17H58.9684V14.92H59.3284V16.416C59.3978 16.3013 59.4764 16.176 59.5644 16.04C59.6524 15.9013 59.7431 15.7653 59.8364 15.632C59.9324 15.496 60.0271 15.3667 60.1204 15.244C60.2164 15.1187 60.3058 15.0107 60.3884 14.92H60.7164ZM62.2592 17.048C62.0912 17.048 61.9432 17.0213 61.8152 16.968C61.6898 16.9147 61.5832 16.84 61.4952 16.744C61.4098 16.648 61.3458 16.5347 61.3032 16.404C61.2605 16.2707 61.2392 16.124 61.2392 15.964C61.2392 15.804 61.2618 15.6573 61.3072 15.524C61.3552 15.3907 61.4218 15.276 61.5072 15.18C61.5925 15.0813 61.6965 15.0053 61.8192 14.952C61.9445 14.896 62.0832 14.868 62.2352 14.868C62.3285 14.868 62.4218 14.876 62.5152 14.892C62.6085 14.908 62.6978 14.9333 62.7832 14.968L62.6992 15.284C62.6432 15.2573 62.5778 15.236 62.5032 15.22C62.4312 15.204 62.3538 15.196 62.2712 15.196C62.0632 15.196 61.9032 15.2613 61.7912 15.392C61.6818 15.5227 61.6272 15.7133 61.6272 15.964C61.6272 16.076 61.6392 16.1787 61.6632 16.272C61.6898 16.3653 61.7298 16.4453 61.7832 16.512C61.8392 16.5787 61.9098 16.6307 61.9952 16.668C62.0805 16.7027 62.1845 16.72 62.3072 16.72C62.4058 16.72 62.4952 16.7107 62.5752 16.692C62.6552 16.6733 62.7178 16.6533 62.7632 16.632L62.8152 16.944C62.7938 16.9573 62.7632 16.9707 62.7232 16.984C62.6832 16.9947 62.6378 17.004 62.5872 17.012C62.5365 17.0227 62.4818 17.0307 62.4232 17.036C62.3672 17.044 62.3125 17.048 62.2592 17.048ZM63.9185 16.732C64.0065 16.732 64.0839 16.7307 64.1505 16.728C64.2199 16.7227 64.2772 16.7147 64.3225 16.704V16.084C64.2959 16.0707 64.2519 16.06 64.1905 16.052C64.1319 16.0413 64.0599 16.036 63.9745 16.036C63.9185 16.036 63.8585 16.04 63.7945 16.048C63.7332 16.056 63.6759 16.0733 63.6225 16.1C63.5719 16.124 63.5292 16.1587 63.4945 16.204C63.4599 16.2467 63.4425 16.304 63.4425 16.376C63.4425 16.5093 63.4852 16.6027 63.5705 16.656C63.6559 16.7067 63.7719 16.732 63.9185 16.732ZM63.8865 14.868C64.0359 14.868 64.1612 14.888 64.2625 14.928C64.3665 14.9653 64.4492 15.02 64.5105 15.092C64.5745 15.1613 64.6199 15.2453 64.6465 15.344C64.6732 15.44 64.6865 15.5467 64.6865 15.664V16.964C64.6545 16.9693 64.6092 16.9773 64.5505 16.988C64.4945 16.996 64.4305 17.004 64.3585 17.012C64.2865 17.02 64.2079 17.0267 64.1225 17.032C64.0399 17.04 63.9572 17.044 63.8745 17.044C63.7572 17.044 63.6492 17.032 63.5505 17.008C63.4519 16.984 63.3665 16.9467 63.2945 16.896C63.2225 16.8427 63.1665 16.7733 63.1265 16.688C63.0865 16.6027 63.0665 16.5 63.0665 16.38C63.0665 16.2653 63.0892 16.1667 63.1345 16.084C63.1825 16.0013 63.2465 15.9347 63.3265 15.884C63.4065 15.8333 63.4999 15.796 63.6065 15.772C63.7132 15.748 63.8252 15.736 63.9425 15.736C63.9799 15.736 64.0185 15.7387 64.0585 15.744C64.0985 15.7467 64.1359 15.752 64.1705 15.76C64.2079 15.7653 64.2399 15.7707 64.2665 15.776C64.2932 15.7813 64.3119 15.7853 64.3225 15.788V15.684C64.3225 15.6227 64.3159 15.5627 64.3025 15.504C64.2892 15.4427 64.2652 15.3893 64.2305 15.344C64.1959 15.296 64.1479 15.2587 64.0865 15.232C64.0279 15.2027 63.9505 15.188 63.8545 15.188C63.7319 15.188 63.6239 15.1973 63.5305 15.216C63.4399 15.232 63.3719 15.2493 63.3265 15.268L63.2825 14.96C63.3305 14.9387 63.4105 14.9187 63.5225 14.9C63.6345 14.8787 63.7559 14.868 63.8865 14.868ZM66.7724 14.92V15.232H66.0964V17H65.7244V15.232H65.0484V14.92H66.7724ZM67.9439 16.74C68.1013 16.74 68.2253 16.7093 68.3159 16.648C68.4066 16.5867 68.4519 16.488 68.4519 16.352C68.4519 16.2853 68.4386 16.228 68.4119 16.18C68.3853 16.132 68.3479 16.0933 68.2999 16.064C68.2546 16.032 68.2013 16.0093 68.1399 15.996C68.0786 15.98 68.0133 15.972 67.9439 15.972C67.8719 15.972 67.7973 15.9747 67.7199 15.98C67.6453 15.9827 67.5813 15.9907 67.5279 16.004V16.72C67.5439 16.7227 67.5679 16.7253 67.5999 16.728C67.6319 16.7307 67.6666 16.7333 67.7039 16.736C67.7439 16.736 67.7839 16.7373 67.8239 16.74C67.8666 16.74 67.9066 16.74 67.9439 16.74ZM67.1559 16.956V14.92H67.5279V15.716C67.5493 15.7107 67.5773 15.7053 67.6119 15.7C67.6493 15.6947 67.6879 15.6893 67.7279 15.684C67.7706 15.6787 67.8146 15.6747 67.8599 15.672C67.9053 15.6693 67.9479 15.668 67.9879 15.668C68.1026 15.668 68.2106 15.6813 68.3119 15.708C68.4133 15.732 68.5013 15.772 68.5759 15.828C68.6533 15.8813 68.7146 15.952 68.7599 16.04C68.8053 16.1253 68.8279 16.228 68.8279 16.348C68.8279 16.4733 68.8066 16.58 68.7639 16.668C68.7213 16.756 68.6599 16.828 68.5799 16.884C68.4999 16.94 68.4039 16.98 68.2919 17.004C68.1826 17.0307 68.0599 17.044 67.9239 17.044C67.7906 17.044 67.6599 17.036 67.5319 17.02C67.4039 17.0067 67.2786 16.9853 67.1559 16.956Z" fill="#44C554"/>
<defs>
<linearGradient id="paint0_linear" x1="8.5232" y1="17.8264" x2="8.5232" y2="1.29624" gradientUnits="userSpaceOnUse">
<stop stop-color="#20B038"/>
<stop offset="1" stop-color="#60D66A"/>
</linearGradient>
<linearGradient id="paint1_linear" x1="8.52328" y1="18.125" x2="8.52328" y2="1.00235" gradientUnits="userSpaceOnUse">
<stop stop-color="#F9F9F9"/>
<stop offset="1" stop-color="white"/>
</linearGradient>
</defs>
</svg>
