<svg width="3084" height="644" viewBox="0 0 3084 644" fill="none" xmlns="http://www.w3.org/2000/svg">
<path d="M1625.82 334.975V377.702H1558.68V557.603H1508.57V377.702H1441.43V334.975H1625.82ZM1695.23 524.192C1699.95 524.192 1704.44 524.085 1708.73 523.871C1713.01 523.657 1716.44 523.336 1719.01 522.907V486.606C1717.08 486.178 1714.19 485.749 1710.33 485.321C1706.48 484.893 1702.94 484.678 1699.73 484.678C1695.23 484.678 1690.95 485 1686.88 485.642C1683.03 486.07 1679.6 487.034 1676.6 488.533C1673.6 490.033 1671.25 492.067 1669.53 494.637C1667.82 497.207 1666.96 500.42 1666.96 504.275C1666.96 511.771 1669.43 517.018 1674.35 520.016C1679.49 522.8 1686.45 524.192 1695.23 524.192ZM1691.38 384.127C1705.51 384.127 1717.29 385.733 1726.72 388.945C1736.14 392.158 1743.64 396.762 1749.2 402.759C1754.99 408.756 1759.06 416.038 1761.41 424.604C1763.77 433.171 1764.95 442.701 1764.95 453.196V552.784C1758.09 554.283 1748.56 555.996 1736.35 557.924C1724.15 560.065 1709.37 561.136 1692.02 561.136C1681.1 561.136 1671.14 560.173 1662.15 558.245C1653.36 556.318 1645.76 553.212 1639.34 548.929C1632.91 544.431 1627.99 538.649 1624.56 531.581C1621.13 524.514 1619.42 515.84 1619.42 505.56C1619.42 495.708 1621.35 487.355 1625.2 480.502C1629.27 473.649 1634.62 468.187 1641.26 464.118C1647.9 460.049 1655.51 457.158 1664.07 455.444C1672.64 453.517 1681.53 452.553 1690.74 452.553C1696.95 452.553 1702.41 452.874 1707.12 453.517C1712.05 453.945 1716.01 454.588 1719.01 455.444V450.947C1719.01 442.809 1716.54 436.276 1711.62 431.351C1706.69 426.425 1698.13 423.962 1685.92 423.962C1677.78 423.962 1669.75 424.604 1661.82 425.889C1653.9 426.96 1647.05 428.566 1641.26 430.708L1635.16 392.158C1637.94 391.301 1641.37 390.445 1645.44 389.588C1649.72 388.517 1654.33 387.66 1659.25 387.018C1664.18 386.161 1669.32 385.519 1674.67 385.09C1680.24 384.448 1685.81 384.127 1691.38 384.127ZM1856.1 447.734C1860.81 443.237 1865.73 438.311 1870.87 432.957C1876.23 427.603 1881.37 422.356 1886.29 417.216C1891.22 411.861 1895.93 406.721 1900.43 401.795C1904.93 396.87 1908.89 392.479 1912.31 388.624H1970.46C1966.18 393.122 1960.82 398.69 1954.4 405.329C1948.19 411.968 1941.55 418.929 1934.48 426.211C1927.41 433.278 1920.24 440.346 1912.96 447.413C1905.89 454.481 1899.14 460.799 1892.72 466.367C1899.14 471.293 1906 477.397 1913.28 484.678C1920.56 491.96 1927.63 499.777 1934.48 508.13C1941.55 516.482 1948.19 524.942 1954.4 533.509C1960.82 542.075 1966.29 550.107 1970.78 557.603H1916.17C1912.31 551.82 1907.92 545.823 1903 539.612C1898.07 533.187 1892.93 526.977 1887.58 520.98C1882.22 514.769 1876.76 508.986 1871.19 503.632C1865.84 498.278 1860.81 493.673 1856.1 489.818V557.603H1808.23V388.624H1856.1V447.734ZM1982.78 473.113C1982.78 460.906 1984.71 449.448 1988.57 438.739C1992.64 427.817 1998.42 418.393 2005.91 410.469C2013.41 402.331 2022.51 395.906 2033.22 391.194C2043.93 386.482 2056.14 384.127 2069.84 384.127C2078.84 384.127 2087.08 384.983 2094.58 386.697C2102.08 388.196 2109.36 390.445 2116.43 393.443L2106.47 431.672C2101.97 429.959 2097.04 428.459 2091.69 427.174C2086.33 425.889 2080.34 425.247 2073.7 425.247C2059.56 425.247 2048.96 429.637 2041.89 438.418C2035.04 447.199 2031.61 458.764 2031.61 473.113C2031.61 488.319 2034.83 500.098 2041.25 508.451C2047.89 516.804 2059.35 520.98 2075.63 520.98C2081.41 520.98 2087.62 520.444 2094.26 519.374C2100.9 518.303 2107 516.589 2112.57 514.234L2119.32 553.426C2113.75 555.782 2106.79 557.817 2098.44 559.53C2090.08 561.243 2080.87 562.1 2070.81 562.1C2055.39 562.1 2042.11 559.851 2030.97 555.354C2019.84 550.642 2010.63 544.324 2003.34 536.4C1996.28 528.476 1991.03 519.159 1987.6 508.451C1984.39 497.528 1982.78 485.749 1982.78 473.113ZM2301.34 472.792C2301.34 486.07 2299.41 498.278 2295.56 509.415C2291.7 520.337 2286.13 529.761 2278.85 537.685C2271.57 545.395 2262.79 551.392 2252.51 555.675C2242.44 559.958 2231.09 562.1 2218.46 562.1C2206.04 562.1 2194.69 559.958 2184.41 555.675C2174.34 551.392 2165.67 545.395 2158.38 537.685C2151.1 529.761 2145.43 520.337 2141.36 509.415C2137.29 498.278 2135.25 486.07 2135.25 472.792C2135.25 459.514 2137.29 447.413 2141.36 436.491C2145.64 425.568 2151.42 416.252 2158.7 408.542C2166.2 400.832 2174.98 394.835 2185.05 390.552C2195.33 386.268 2206.46 384.127 2218.46 384.127C2230.67 384.127 2241.8 386.268 2251.87 390.552C2262.15 394.835 2270.93 400.832 2278.21 408.542C2285.49 416.252 2291.17 425.568 2295.24 436.491C2299.31 447.413 2301.34 459.514 2301.34 472.792ZM2252.51 472.792C2252.51 458.014 2249.51 446.449 2243.52 438.097C2237.73 429.53 2229.38 425.247 2218.46 425.247C2207.54 425.247 2199.08 429.53 2193.08 438.097C2187.08 446.449 2184.08 458.014 2184.08 472.792C2184.08 487.57 2187.08 499.349 2193.08 508.13C2199.08 516.696 2207.54 520.98 2218.46 520.98C2229.38 520.98 2237.73 516.696 2243.52 508.13C2249.51 499.349 2252.51 487.57 2252.51 472.792ZM2483.95 388.624V557.603H2436.08V428.459H2386.29V557.603H2338.42V388.624H2483.95ZM2593.42 524.192C2598.13 524.192 2602.63 524.085 2606.91 523.871C2611.2 523.657 2614.62 523.336 2617.19 522.907V486.606C2615.27 486.178 2612.38 485.749 2608.52 485.321C2604.67 484.893 2601.13 484.678 2597.92 484.678C2593.42 484.678 2589.14 485 2585.07 485.642C2581.21 486.07 2577.79 487.034 2574.79 488.533C2571.79 490.033 2569.43 492.067 2567.72 494.637C2566.01 497.207 2565.15 500.42 2565.15 504.275C2565.15 511.771 2567.61 517.018 2572.54 520.016C2577.68 522.8 2584.64 524.192 2593.42 524.192ZM2589.57 384.127C2603.7 384.127 2615.48 385.733 2624.9 388.945C2634.33 392.158 2641.82 396.762 2647.39 402.759C2653.17 408.756 2657.24 416.038 2659.6 424.604C2661.95 433.171 2663.13 442.701 2663.13 453.196V552.784C2656.28 554.283 2646.75 555.996 2634.54 557.924C2622.33 560.065 2607.56 561.136 2590.21 561.136C2579.29 561.136 2569.33 560.173 2560.33 558.245C2551.55 556.318 2543.95 553.212 2537.52 548.929C2531.1 544.431 2526.17 538.649 2522.75 531.581C2519.32 524.514 2517.61 515.84 2517.61 505.56C2517.61 495.708 2519.53 487.355 2523.39 480.502C2527.46 473.649 2532.81 468.187 2539.45 464.118C2546.09 460.049 2553.69 457.158 2562.26 455.444C2570.83 453.517 2579.71 452.553 2588.92 452.553C2595.13 452.553 2600.6 452.874 2605.31 453.517C2610.23 453.945 2614.2 454.588 2617.19 455.444V450.947C2617.19 442.809 2614.73 436.276 2609.81 431.351C2604.88 426.425 2596.31 423.962 2584.1 423.962C2575.97 423.962 2567.94 424.604 2560.01 425.889C2552.09 426.96 2545.23 428.566 2539.45 430.708L2533.35 392.158C2536.13 391.301 2539.56 390.445 2543.63 389.588C2547.91 388.517 2552.52 387.66 2557.44 387.018C2562.37 386.161 2567.51 385.519 2572.86 385.09C2578.43 384.448 2584 384.127 2589.57 384.127ZM2814.68 474.398C2814.68 459.621 2811.36 447.842 2804.72 439.061C2798.08 430.066 2788.23 425.568 2775.16 425.568C2770.88 425.568 2766.92 425.782 2763.28 426.211C2759.64 426.425 2756.64 426.746 2754.28 427.174V513.591C2757.28 515.519 2761.14 517.125 2765.85 518.41C2770.77 519.695 2775.7 520.337 2780.63 520.337C2803.33 520.337 2814.68 505.024 2814.68 474.398ZM2863.51 473.113C2863.51 486.178 2861.9 498.064 2858.69 508.772C2855.48 519.481 2850.77 528.69 2844.55 536.4C2838.34 544.11 2830.63 550.107 2821.42 554.39C2812.22 558.673 2801.61 560.815 2789.62 560.815C2782.98 560.815 2776.77 560.173 2770.99 558.888C2765.21 557.603 2759.64 555.782 2754.28 553.426V617.034H2706.42V394.407C2710.7 393.122 2715.63 391.944 2721.19 390.873C2726.76 389.588 2732.54 388.517 2738.54 387.66C2744.75 386.804 2750.96 386.161 2757.17 385.733C2763.6 385.09 2769.7 384.769 2775.49 384.769C2789.41 384.769 2801.83 386.911 2812.75 391.194C2823.67 395.263 2832.88 401.153 2840.38 408.863C2847.87 416.359 2853.55 425.568 2857.4 436.491C2861.47 447.413 2863.51 459.621 2863.51 473.113ZM2948.16 447.734C2952.88 443.237 2957.8 438.311 2962.94 432.957C2968.3 427.603 2973.44 422.356 2978.36 417.216C2983.29 411.861 2988 406.721 2992.5 401.795C2996.99 396.87 3000.96 392.479 3004.38 388.624H3062.53C3058.25 393.122 3052.89 398.69 3046.47 405.329C3040.26 411.968 3033.62 418.929 3026.55 426.211C3019.48 433.278 3012.31 440.346 3005.03 447.413C2997.96 454.481 2991.21 460.799 2984.79 466.367C2991.21 471.293 2998.06 477.397 3005.35 484.678C3012.63 491.96 3019.7 499.777 3026.55 508.13C3033.62 516.482 3040.26 524.942 3046.47 533.509C3052.89 542.075 3058.35 550.107 3062.85 557.603H3008.24C3004.38 551.82 2999.99 545.823 2995.07 539.612C2990.14 533.187 2985 526.977 2979.65 520.98C2974.29 514.769 2968.83 508.986 2963.26 503.632C2957.91 498.278 2952.88 493.673 2948.16 489.818V557.603H2900.3V388.624H2948.16V447.734Z" fill="#172116"/>
<path d="M1600.3 99.4583V281H1567.29V127.751H1489.75V281H1456.74V99.4583H1600.3ZM1634.58 213.151C1634.58 201.101 1636.33 190.535 1639.82 181.453C1643.49 172.372 1648.29 164.862 1654.23 158.924C1660.17 152.812 1666.98 148.271 1674.66 145.302C1682.35 142.159 1690.21 140.587 1698.24 140.587C1717.1 140.587 1731.77 146.437 1742.25 158.138C1752.9 169.84 1758.23 187.304 1758.23 210.531C1758.23 212.278 1758.14 214.286 1757.97 216.557C1757.97 218.652 1757.88 220.573 1757.71 222.32H1667.33C1668.2 233.322 1672.04 241.88 1678.85 247.992C1685.84 253.93 1695.88 256.899 1708.98 256.899C1716.66 256.899 1723.65 256.201 1729.94 254.804C1736.4 253.406 1741.46 251.922 1745.13 250.35L1749.32 276.285C1747.58 277.158 1745.13 278.118 1741.99 279.166C1739.02 280.039 1735.53 280.825 1731.51 281.524C1727.67 282.397 1723.48 283.096 1718.94 283.62C1714.39 284.144 1709.77 284.406 1705.05 284.406C1693 284.406 1682.52 282.659 1673.62 279.166C1664.71 275.499 1657.37 270.521 1651.61 264.234C1645.85 257.772 1641.57 250.263 1638.77 241.705C1635.98 232.973 1634.58 223.455 1634.58 213.151ZM1726.53 199.005C1726.53 194.639 1725.92 190.535 1724.7 186.693C1723.48 182.676 1721.64 179.27 1719.2 176.476C1716.93 173.507 1714.05 171.237 1710.55 169.665C1707.23 167.918 1703.22 167.045 1698.5 167.045C1693.61 167.045 1689.33 168.006 1685.67 169.927C1682 171.673 1678.85 174.031 1676.23 177C1673.79 179.969 1671.87 183.374 1670.47 187.217C1669.07 191.059 1668.11 194.988 1667.59 199.005H1726.53ZM1882.74 213.151C1882.74 199.005 1879.51 188.002 1873.05 180.143C1866.76 172.285 1856.54 168.355 1842.4 168.355C1839.43 168.355 1836.28 168.53 1832.97 168.879C1829.82 169.054 1826.68 169.578 1823.53 170.451V248.778C1826.33 250.699 1830 252.533 1834.54 254.28C1839.25 255.851 1844.23 256.637 1849.47 256.637C1861 256.637 1869.38 252.708 1874.62 244.849C1880.03 236.99 1882.74 226.424 1882.74 213.151ZM1915.22 212.627C1915.22 223.106 1913.83 232.711 1911.03 241.443C1908.41 250.175 1904.57 257.685 1899.5 263.972C1894.44 270.259 1888.07 275.149 1880.38 278.642C1872.87 282.135 1864.31 283.882 1854.71 283.882C1848.25 283.882 1842.31 283.096 1836.9 281.524C1831.48 279.952 1827.03 278.206 1823.53 276.285V329.464H1791.84V148.446C1798.3 146.699 1806.25 145.04 1815.68 143.468C1825.11 141.897 1835.06 141.111 1845.54 141.111C1856.37 141.111 1866.06 142.77 1874.62 146.088C1883.18 149.406 1890.42 154.209 1896.36 160.496C1902.47 166.609 1907.1 174.118 1910.25 183.025C1913.56 191.757 1915.22 201.625 1915.22 212.627ZM2002.38 283.62C1997.31 283.62 1992.16 283.445 1986.92 283.096C1981.68 282.746 1976.62 282.31 1971.73 281.786C1967.01 281.262 1962.56 280.738 1958.37 280.214C1954.18 279.516 1950.68 278.817 1947.89 278.118V145.826C1950.68 145.128 1954.18 144.516 1958.37 143.992C1962.56 143.294 1967.01 142.77 1971.73 142.421C1976.62 141.897 1981.68 141.547 1986.92 141.373C1992.16 141.023 1997.31 140.849 2002.38 140.849C2020.89 140.849 2035.3 144.254 2045.6 151.065C2055.91 157.702 2061.06 167.045 2061.06 179.096C2061.06 185.383 2059.49 190.971 2056.34 195.861C2053.2 200.751 2049.1 204.419 2044.03 206.864C2050.32 209.309 2055.73 213.151 2060.27 218.39C2064.81 223.63 2067.08 231.052 2067.08 240.657C2067.08 254.454 2061.67 265.107 2050.84 272.617C2040.01 279.952 2023.86 283.62 2002.38 283.62ZM2003.17 199.005C2011.02 199.005 2017.49 197.87 2022.55 195.599C2027.79 193.329 2030.41 188.788 2030.41 181.977C2030.41 178.659 2029.54 175.952 2027.79 173.856C2026.22 171.761 2024.03 170.102 2021.24 168.879C2018.45 167.656 2015.22 166.871 2011.55 166.521C2007.88 165.997 2004.04 165.735 2000.02 165.735C1996.88 165.735 1993.21 165.823 1989.02 165.997C1985 166.172 1981.77 166.434 1979.33 166.783V199.005H2003.17ZM1979.33 257.423C1981.42 257.772 1984.83 258.122 1989.54 258.471C1994.43 258.646 1998.97 258.733 2003.17 258.733C2012.6 258.733 2020.37 257.423 2026.48 254.804C2032.77 252.184 2035.91 247.207 2035.91 239.872C2035.91 232.711 2033.03 227.821 2027.27 225.201C2021.68 222.407 2014.34 221.01 2005.26 221.01H1979.33V257.423ZM2263.91 281H2232.21V143.992H2263.91V281ZM2128.73 194.552C2131.35 193.853 2135.11 193.242 2140 192.718C2145.06 192.194 2149.95 191.932 2154.67 191.932C2162.18 191.932 2169.25 192.805 2175.89 194.552C2182.7 196.298 2188.55 199.092 2193.44 202.934C2198.5 206.602 2202.43 211.405 2205.23 217.343C2208.2 223.106 2209.68 230.004 2209.68 238.038C2209.68 246.246 2208.28 253.232 2205.49 258.995C2202.7 264.758 2198.77 269.474 2193.7 273.141C2188.64 276.809 2182.52 279.516 2175.36 281.262C2168.38 283.008 2160.61 283.882 2152.05 283.882C2142.09 283.882 2132.66 283.358 2123.76 282.31C2115.02 281.262 2106.12 279.69 2097.04 277.594V143.992H2128.73V194.552ZM2151.26 258.995C2159.47 258.995 2165.93 257.336 2170.65 254.018C2175.54 250.525 2177.98 245.023 2177.98 237.514C2177.98 233.672 2177.2 230.441 2175.63 227.821C2174.05 225.201 2171.87 223.106 2169.08 221.534C2166.46 219.788 2163.4 218.565 2159.91 217.866C2156.59 217.168 2153.1 216.819 2149.43 216.819C2146.11 216.819 2142.44 216.993 2138.43 217.343C2134.58 217.517 2131.35 217.954 2128.73 218.652V257.685C2131 258.034 2134.32 258.384 2138.69 258.733C2143.06 258.908 2147.25 258.995 2151.26 258.995ZM2424.23 143.992V281H2392.8C2392.8 271.045 2392.8 261.178 2392.8 251.398C2392.97 241.618 2393.06 232.536 2393.06 224.154C2393.24 215.771 2393.32 208.523 2393.32 202.411C2393.5 196.123 2393.58 191.495 2393.58 188.526C2388.35 195.337 2382.93 202.847 2377.34 211.055C2371.75 219.264 2366.17 227.472 2360.58 235.68C2355.16 243.888 2350.01 251.922 2345.12 259.781C2340.23 267.64 2335.95 274.713 2332.29 281H2304.25V143.992H2335.43C2335.43 154.122 2335.34 163.814 2335.17 173.07C2335.17 182.152 2335.17 190.447 2335.17 197.957C2335.17 205.467 2335.08 212.016 2334.9 217.604C2334.9 223.193 2334.9 227.472 2334.9 230.441C2339.79 222.931 2344.86 215.247 2350.1 207.388C2355.34 199.354 2360.58 191.583 2365.82 184.073C2371.23 176.389 2376.56 169.141 2381.8 162.33C2387.04 155.519 2392.1 149.406 2396.99 143.992H2424.23ZM2364.51 123.559C2358.92 123.559 2353.68 122.773 2348.79 121.201C2344.07 119.63 2339.79 117.359 2335.95 114.39C2332.11 111.421 2328.97 107.841 2326.52 103.65C2324.08 99.2836 2322.59 94.3936 2322.07 88.9797L2344.86 82.9545C2347.83 95.3542 2354.38 101.554 2364.51 101.554C2374.81 101.554 2381.36 95.4415 2384.15 83.2165L2406.68 89.2417C2405.98 94.6556 2404.41 99.5456 2401.97 103.912C2399.7 108.103 2396.64 111.683 2392.8 114.652C2389.13 117.447 2384.85 119.63 2379.96 121.201C2375.07 122.773 2369.92 123.559 2364.51 123.559Z" fill="#172116"/>
<g filter="url(#filter0_d)">
<path d="M0 574H1360V629.463C1360 637.492 1353.49 644 1345.46 644H14.537C6.5084 644 0 637.492 0 629.463V574Z" fill="#263D40"/>
<path d="M85.2728 76.408C91.2532 41.511 121.508 16 156.914 16H1203.09C1238.49 16 1268.75 41.511 1274.73 76.408L1360 574H0L85.2728 76.408Z" fill="#FCF206"/>
<g filter="url(#filter1_d)">
<g filter="url(#filter2_d)">
<path d="M1161.12 503.317V453.24C1161.12 448.284 1157.1 444.271 1152.15 444.271H1144.9C1141.93 444.271 1139.09 443.744 1136.44 442.78C1135.32 442.365 1134.22 441.872 1133.18 441.3C1125.51 437.141 1120.31 429.013 1120.31 419.674V86.9685C1120.31 82.0131 1116.29 78 1111.34 78H1047.08C1044.44 78 1041.97 79.2449 1040.3 81.2962C1033.21 89.9841 1022.5 97.5961 1008.14 104.143C1002.43 106.734 996.555 108.863 990.502 110.523C986.646 111.587 984 115.141 984 119.143V171.261C984 176.339 988.204 180.397 993.271 180.229C1001.81 179.939 1010.32 179.558 1016.72 179.064C1021.93 178.672 1026.36 182.786 1026.36 188.01V419.675C1026.36 433.251 1015.34 444.271 1001.76 444.271H993.249C988.294 444.271 984.281 448.284 984.281 453.24V503.317C984.281 508.272 988.294 512.285 993.249 512.285H1152.15C1157.1 512.285 1161.12 508.272 1161.12 503.317Z" fill="#172116"/>
</g>
<path d="M319.63 420.627H445.441V294.81H319.63V420.627Z" fill="#172116"/>
<path d="M571.258 420.664H697.075V294.847H571.258V420.664Z" fill="#172116"/>
<path d="M697 294.817H822.817V169H697V294.817Z" fill="#172116"/>
<path d="M194 294.817H319.817V169H194V294.817Z" fill="#172116"/>
<path d="M445.44 294.849H571.257V169.032H445.44V294.849Z" fill="#172116"/>
</g>
</g>
<defs>
<filter id="filter0_d" x="0" y="0" width="1383" height="644" filterUnits="userSpaceOnUse" color-interpolation-filters="sRGB">
<feFlood flood-opacity="0" result="BackgroundImageFix"/>
<feColorMatrix in="SourceAlpha" type="matrix" values="0 0 0 0 0 0 0 0 0 0 0 0 0 0 0 0 0 0 127 0"/>
<feOffset dx="19" dy="-12"/>
<feGaussianBlur stdDeviation="2"/>
<feColorMatrix type="matrix" values="0 0 0 0 0.14902 0 0 0 0 0.239216 0 0 0 0 0.25098 0 0 0 0.25 0"/>
<feBlend mode="normal" in2="BackgroundImageFix" result="effect1_dropShadow"/>
<feBlend mode="normal" in="SourceGraphic" in2="effect1_dropShadow" result="shape"/>
</filter>
<filter id="filter1_d" x="186.893" y="76.5787" width="981.329" height="448.499" filterUnits="userSpaceOnUse" color-interpolation-filters="sRGB">
<feFlood flood-opacity="0" result="BackgroundImageFix"/>
<feColorMatrix in="SourceAlpha" type="matrix" values="0 0 0 0 0 0 0 0 0 0 0 0 0 0 0 0 0 0 127 0"/>
<feOffset dy="5.68536"/>
<feGaussianBlur stdDeviation="3.55335"/>
<feColorMatrix type="matrix" values="0 0 0 0 0 0 0 0 0 0 0 0 0 0 0 0 0 0 0.75 0"/>
<feBlend mode="normal" in2="BackgroundImageFix" result="effect1_dropShadow"/>
<feBlend mode="normal" in="SourceGraphic" in2="effect1_dropShadow" result="shape"/>
</filter>
<filter id="filter2_d" x="978.315" y="78" width="188.486" height="445.656" filterUnits="userSpaceOnUse" color-interpolation-filters="sRGB">
<feFlood flood-opacity="0" result="BackgroundImageFix"/>
<feColorMatrix in="SourceAlpha" type="matrix" values="0 0 0 0 0 0 0 0 0 0 0 0 0 0 0 0 0 0 127 0"/>
<feOffset dy="5.68536"/>
<feGaussianBlur stdDeviation="2.84268"/>
<feColorMatrix type="matrix" values="0 0 0 0 0 0 0 0 0 0 0 0 0 0 0 0 0 0 0.75 0"/>
<feBlend mode="normal" in2="BackgroundImageFix" result="effect1_dropShadow"/>
<feBlend mode="normal" in="SourceGraphic" in2="effect1_dropShadow" result="shape"/>
</filter>
</defs>
</svg>
